<svg width="70" height="70" viewBox="0 0 70 70" fill="none" xmlns="http://www.w3.org/2000/svg">
<rect width="70" height="70" fill="white"/>
<path d="M11.2012 8.16669C10.7346 5.36669 14.0015 3.96667 16.3347 5.83335C17.1162 6.45858 18.2012 8.42565 18.2012 9.56668C18.2012 12.1334 16.1014 13.0667 14.0012 11.6667C12.7392 10.8254 11.4136 9.44134 11.2012 8.16669Z" fill="#DE99FF" fill-opacity="0.2"/>
<path d="M64.6125 22.1952C66.0125 20.7952 68.5791 21.4952 68.3458 23.5952C68.1468 25.3863 66.9458 26.6285 65.3125 27.7952C63.9123 28.7953 64.146 28.2618 64.1458 26.1618C64.1457 25.3835 63.4456 23.3618 64.6125 22.1952Z" fill="#DE99FF" fill-opacity="0.2"/>
<path d="M9.96794 16.5762C13.2346 16.1095 22.8013 17.9762 26.5346 16.1095C29.3346 14.7095 39.3679 6.51951 48.2346 6.07619C52.9013 5.84287 59.4929 9.80954 60.1346 14.9429C60.6013 18.6762 58.7346 22.5962 60.1346 28.4762C60.9679 31.9762 67.6013 38.2762 66.4346 46.6762C65.4631 53.671 57.1013 60.9095 48.9346 62.7762H15.8011C13.4678 62.7762 9.62604 62.4875 8.33446 59.7429C6.46779 55.7762 12.7678 49.7095 11.3679 44.8095C10.5091 41.8032 5.53477 35.4762 4.36794 28.9429C3.68025 25.0924 5.06794 17.2762 9.96794 16.5762Z" fill="#DE99FF" fill-opacity="0.2"/>
<ellipse cx="33.1346" cy="63.4664" rx="21.4667" ry="1.4" fill="#CD63FF"/>
<mask id="mask0_2359_137386" style="mask-type:alpha" maskUnits="userSpaceOnUse" x="17" y="8" width="27" height="56">
<path d="M17.457 28.1171C17.457 20.3347 23.9424 18.7134 23.9424 8.66113H36.913C36.913 18.7134 43.3983 20.659 43.3983 28.1171V61.9928C43.3983 62.647 42.9097 63.2 42.2599 63.2746C37.8015 63.7864 35.2223 63.7864 30.4277 63.7864C25.6331 63.7864 23.0539 63.7864 18.5955 63.2746C17.9456 63.2 17.457 62.647 17.457 61.9928V28.1171Z" fill="white"/>
</mask>
<g mask="url(#mask0_2359_137386)">
<path d="M17.457 28.1171C17.457 20.3347 23.9424 18.7134 23.9424 8.66113H36.913C36.913 18.7134 43.3983 20.659 43.3983 28.1171V61.9928C43.3983 62.647 42.9097 63.2 42.2599 63.2746C37.8015 63.7864 35.2223 63.7864 30.4277 63.7864C25.6331 63.7864 23.0539 63.7864 18.5955 63.2746C17.9456 63.2 17.457 62.647 17.457 61.9928V28.1171Z" fill="#E4FFFF" fill-opacity="0.8"/>
<path d="M23.3516 9.03516L38.0863 9.30306L37.2826 11.1784C32.2741 9.94265 29.1426 9.9561 23.6195 9.83887L23.3516 9.03516Z" fill="#C6F3FC"/>
<path d="M40.1569 25.1986C40.1569 21.6317 37.5627 19.6861 36.5899 17.4162C35.9414 15.7949 35.9414 12.4754 35.9414 9.30957H40.1569L45.6694 17.4162L45.3451 26.1714V64.4348H40.1569V25.1986Z" fill="#C6F3FC"/>
<mask id="mask1_2359_137386" style="mask-type:alpha" maskUnits="userSpaceOnUse" x="15" y="18" width="31" height="48">
<path d="M20.7 19.0372C22.6456 18.3887 26.5368 18.3887 30.428 18.3887C34.3192 18.3887 38.2104 18.3887 40.156 19.0372L45.3442 28.7652V65.083H15.5117V28.7652L20.7 19.0372Z" fill="#FFE352"/>
</mask>
<g mask="url(#mask1_2359_137386)">
<path d="M20.7 19.0372C22.6456 18.3887 26.5368 18.3887 30.428 18.3887C34.3192 18.3887 38.2104 18.3887 40.156 19.0372L45.3442 28.7652V65.083H15.5117V28.7652L20.7 19.0372Z" fill="#FFCD1C"/>
<path d="M31.3906 20.2865C34.4543 20.2085 36.6963 20.1348 39.4278 19.2148L40.2315 21.0902C36.754 21.4139 34.3152 20.6609 31.3906 20.2865Z" fill="#FFBF1C"/>
<path d="M21.7726 27.5556C23.1122 26.2161 29.0061 25.9482 29.8098 27.5556C28.8769 39.1748 29.3148 45.7071 26.5949 57.293C25.3068 58.0486 24.5083 58.1399 22.8443 57.293C21.3892 46.124 21.8159 39.3293 21.7726 27.5556Z" fill="#FCE157"/>
<path d="M17.1914 60.4717C17.1915 63.1507 43.446 62.6149 43.7139 60.7396L43.9817 64.4902H17.1914V60.4717Z" fill="#FFB21C"/>
<path d="M40.1569 25.1986C40.1569 21.6317 37.5627 19.6861 36.5899 17.4162C35.9414 15.7949 35.9414 12.4754 35.9414 9.30957H40.1569L45.6694 17.4162L45.3451 26.1714V64.4348H40.1569V25.1986Z" fill="#FFB21C"/>
<path d="M19.0664 25.9257C19.0664 25.2095 19.213 24.5015 19.476 23.8353C19.8407 22.9113 19.9106 22.7005 20.9417 21.0898C20.9417 21.0898 21.7454 21.3577 22.0134 21.3577C21.0251 22.8874 20.8354 22.9726 20.4404 23.9982C20.2276 24.5507 20.138 25.1427 20.138 25.7347V59.4001C19.6667 59.5819 19.3343 59.4001 19.0664 59.1322V25.9257Z" fill="#FFF2C6"/>
<path d="M23.3513 17.6077L28.4415 17.3398L28.7094 18.4115C26.2983 18.6794 22.8153 18.6794 22.5477 18.9473C22.2795 19.2152 25.9809 19.8808 28.1735 20.2868C24.6909 20.2868 20.1365 19.4831 20.6721 18.6794L23.3513 17.6077Z" fill="#FFF2C6"/>
</g>
<mask id="mask2_2359_137386" style="mask-type:alpha" maskUnits="userSpaceOnUse" x="17" y="32" width="27" height="21">
<path d="M17.457 32.6562C20.0512 33.3048 30.4277 33.3048 30.4277 33.3048C30.4277 33.3048 40.8042 33.3048 43.3983 32.6562V51.4637C40.8042 52.1122 35.6159 52.1122 30.4277 52.1122C25.2394 52.1122 20.0512 52.1122 17.457 51.4637V32.6562Z" fill="#4EA04C"/>
</mask>
<g mask="url(#mask2_2359_137386)">
<path d="M17.457 32.6562C20.0512 33.3048 30.4277 33.3048 30.4277 33.3048C30.4277 33.3048 40.8042 33.3048 43.3983 32.6562V51.4637C40.8042 52.1122 35.6159 52.1122 30.4277 52.1122C25.2394 52.1122 20.0512 52.1122 17.457 51.4637V32.6562Z" fill="#4EA04C"/>
<path d="M22.6689 39.8666C25.9115 39.218 31.1001 42.785 30.4513 47.0004C25.2633 47.3247 22.345 42.4607 22.6689 39.8666Z" fill="#A0E56A"/>
<path d="M23.9969 47.2085C24.8684 45.2084 29.03 44.0451 31.3107 46.2527C29.4877 49.1372 25.4297 48.5273 23.9969 47.2085Z" fill="#A0E56A"/>
<mask id="mask3_2359_137386" style="mask-type:alpha" maskUnits="userSpaceOnUse" x="26" y="37" width="10" height="10">
<path d="M35.9495 45.3099C35.4376 45.8218 34.83 46.2278 34.1611 46.5049C33.4923 46.7819 32.7755 46.9245 32.0516 46.9245C31.3277 46.9245 30.6108 46.7819 29.942 46.5049C29.2732 46.2278 28.6655 45.8218 28.1536 45.3099C27.6418 44.798 27.2357 44.1903 26.9587 43.5215C26.6816 42.8527 26.5391 42.1359 26.5391 41.4119C26.5391 40.688 26.6816 39.9712 26.9587 39.3024C27.2357 38.6336 27.6418 38.0259 28.1536 37.514L32.0516 41.4119L35.9495 45.3099Z" fill="#D9D9D9"/>
</mask>
<g mask="url(#mask3_2359_137386)">
<path d="M35.9495 45.3099C35.4376 45.8218 34.83 46.2278 34.1611 46.5049C33.4923 46.7819 32.7755 46.9245 32.0516 46.9245C31.3277 46.9245 30.6108 46.7819 29.942 46.5049C29.2732 46.2278 28.6655 45.8218 28.1536 45.3099C27.6418 44.798 27.2357 44.1903 26.9587 43.5215C26.6816 42.8527 26.5391 42.1359 26.5391 41.4119C26.5391 40.688 26.6816 39.9712 26.9587 39.3024C27.2357 38.6336 27.6418 38.0259 28.1536 37.514L32.0516 41.4119L35.9495 45.3099Z" fill="#FFA51E"/>
<path d="M36.0444 44.7563C35.5626 45.2381 34.9907 45.6203 34.3612 45.881C33.7318 46.1417 33.0571 46.2759 32.3758 46.2759C31.6944 46.2759 31.0198 46.1417 30.3903 45.881C29.7608 45.6203 29.1889 45.2381 28.7071 44.7563C28.2253 44.2746 27.8432 43.7026 27.5824 43.0731C27.3217 42.4437 27.1875 41.769 27.1875 41.0877C27.1875 40.4063 27.3217 39.7317 27.5824 39.1022C27.8432 38.4727 28.2253 37.9008 28.7071 37.419L32.3758 41.0877L36.0444 44.7563Z" fill="#FFF1AA"/>
<path d="M31.8213 41.5567C32.0525 41.7846 30.2413 45.0077 29.7827 45.011C29.3241 45.0143 28.4003 44.1038 28.397 43.6453C28.3939 43.1869 31.5904 41.3292 31.8213 41.5567Z" fill="#FFA51E"/>
<path d="M32.3137 42.1709C32.6267 42.2567 32.7244 45.5788 32.3353 45.7718C31.9462 45.9647 30.6953 45.6218 30.4589 45.2574C30.2228 44.8931 32.001 42.0852 32.3137 42.1709Z" fill="#FFA51E"/>
<path d="M31.3109 41.0768C31.3897 41.3759 28.553 43.0826 28.1949 42.8574C27.8367 42.6322 27.5214 41.4368 27.722 41.0643C27.9226 40.6919 31.2321 40.778 31.3109 41.0768Z" fill="#FFA51E"/>
<path d="M33.0486 43.0296C33.3472 42.9024 35.1639 44.6847 34.9494 45.0085C34.7349 45.3323 33.5416 45.8408 33.1595 45.7712C32.7776 45.7016 32.7504 43.1567 33.0486 43.0296Z" fill="#FFA51E"/>
<path d="M30.4789 40.3471C30.5761 40.0571 28.6376 38.4407 28.3377 38.6624C28.0379 38.8841 27.6494 40.0429 27.7549 40.4006C27.8606 40.758 30.3818 40.6367 30.4789 40.3471Z" fill="#FFA51E"/>
</g>
<path d="M40.1569 25.1986C40.1569 21.6317 37.5627 19.6861 36.5899 17.4162C35.9414 15.7949 35.9414 12.4754 35.9414 9.30957H40.1569L45.6694 17.4162L45.3451 26.1714V64.4348H40.1569V25.1986Z" fill="#388649"/>
<rect x="17.457" y="31.2705" width="12.3236" height="22.504" fill="white" fill-opacity="0.1"/>
<rect x="18.5273" y="31.2705" width="5.89389" height="22.504" fill="white" fill-opacity="0.1"/>
</g>
</g>
<mask id="mask4_2359_137386" style="mask-type:alpha" maskUnits="userSpaceOnUse" x="22" y="6" width="17" height="4">
<rect x="22.6445" y="6.06738" width="15.5648" height="3.24266" rx="0.648533" fill="#70AF70"/>
</mask>
<g mask="url(#mask4_2359_137386)">
<rect x="22.6445" y="6.06738" width="15.5648" height="3.24266" rx="0.648533" fill="#4EA04C"/>
<rect x="36.2617" y="6.06738" width="1.9456" height="3.24266" fill="#388649"/>
<rect x="22.2773" y="6.08789" width="9.64455" height="3.21485" fill="white" fill-opacity="0.1"/>
<rect x="22.2773" y="6.08789" width="6.4297" height="3.21485" fill="white" fill-opacity="0.1"/>
<rect x="22.2773" y="6.08789" width="3.21485" height="3.21485" fill="white" fill-opacity="0.1"/>
</g>
<path d="M24.9596 10.6426H26.0313C25.562 13.5882 25.1941 15.205 23.888 17.876H22.8164C23.3522 17.6081 24.5652 13.7915 24.9596 10.6426Z" fill="white"/>
<mask id="mask5_2359_137386" style="mask-type:alpha" maskUnits="userSpaceOnUse" x="33" y="25" width="19" height="20">
<path d="M33.2645 28.0321C33.2565 27.5227 33.5987 27.0745 34.0931 26.9517C39.7319 25.5515 45.3498 25.5473 50.5245 26.9394C51.0062 27.069 51.3341 27.511 51.3265 28.0098C51.2178 35.0861 49.6732 42.2346 43.425 44.6795H42.2953L41.1656 44.6795C34.924 42.2372 33.3761 35.1012 33.2645 28.0321Z" fill="#F5FEFF"/>
</mask>
<g mask="url(#mask5_2359_137386)">
<path d="M33.2645 28.0321C33.2565 27.5227 33.5987 27.0745 34.0931 26.9517C39.7319 25.5515 45.3498 25.5473 50.5245 26.9394C51.0062 27.069 51.3341 27.511 51.3265 28.0098C51.2178 35.0861 49.6732 42.2346 43.425 44.6795H42.2953L41.1656 44.6795C34.924 42.2372 33.3761 35.1012 33.2645 28.0321Z" fill="white" fill-opacity="0.7"/>
<path d="M48.7902 28.2984L51.8969 27.4512L50.4848 41.8547L42.8594 45.5262V43.8317C48.1193 40.5083 49.0727 35.0766 48.7902 28.2984Z" fill="#DBD6D6"/>
</g>
<mask id="mask6_2359_137386" style="mask-type:alpha" maskUnits="userSpaceOnUse" x="33" y="44" width="19" height="21">
<path d="M41.1629 44.6797H43.4223V59.3656C43.4223 62.4723 51.1138 62.5004 51.3301 63.3196C51.5371 64.1037 43.1398 64.1668 42.2926 64.1668C41.4453 64.1668 33.0142 64.0425 33.2551 63.3196C33.5374 62.4723 41.1629 62.4723 41.1629 59.3656V44.6797Z" fill="#F5FEFF"/>
</mask>
<g mask="url(#mask6_2359_137386)">
<path d="M41.1629 44.6797H43.4223V59.3656C43.4223 62.4723 51.1138 62.5004 51.3301 63.3196C51.5371 64.1037 43.1398 64.1668 42.2926 64.1668C41.4453 64.1668 33.0142 64.0425 33.2551 63.3196C33.5374 62.4723 41.1629 62.4723 41.1629 59.3656V44.6797Z" fill="#F5FEFF" fill-opacity="0.7"/>
<path d="M41.7656 46.2C41.7656 45.2667 43.1656 45.2667 43.1656 46.2V58.3333C43.1656 59.2667 41.7656 59.2667 41.7656 58.3333V46.2Z" fill="white"/>
<path d="M33.1328 63.2334C40.04 64.0221 44.7995 64.1667 51.5661 63.2334L50.8661 64.8667H33.3661L33.1328 63.2334Z" fill="#DBD6D6"/>
</g>
<mask id="mask7_2359_137386" style="mask-type:alpha" maskUnits="userSpaceOnUse" x="33" y="32" width="18" height="13">
<path d="M33.8587 33.0919C33.8368 32.9408 33.9407 32.7986 34.0914 32.7742C37.3022 32.2539 38.9955 32.2539 42.293 32.2539C45.5863 32.2539 47.2795 32.2539 50.4824 32.7722C50.638 32.7974 50.7424 32.9474 50.7132 33.1022C49.5749 39.144 47.5942 42.7295 43.4227 44.3981C42.5754 44.6805 42.0106 44.6805 41.1633 44.3981C36.9894 42.7285 34.7346 39.1399 33.8587 33.0919Z" fill="#4E2E56"/>
</mask>
<g mask="url(#mask7_2359_137386)">
<path d="M33.8587 33.0919C33.8368 32.9408 33.9407 32.7986 34.0914 32.7742C37.3022 32.2539 38.9955 32.2539 42.293 32.2539C45.5863 32.2539 47.2795 32.2539 50.4824 32.7722C50.638 32.7974 50.7424 32.9474 50.7132 33.1022C49.5749 39.144 47.5942 42.7295 43.4227 44.3981C42.5754 44.6805 42.0106 44.6805 41.1633 44.3981C36.9894 42.7285 34.7346 39.1399 33.8587 33.0919Z" fill="#3A1943"/>
<path d="M48.8645 28.3814L51.9711 27.5342L50.559 41.9377L42.9336 45.6092V43.9147C48.1935 40.5913 49.1469 35.1596 48.8645 28.3814Z" fill="#2C0F34"/>
<path d="M50.1458 32.8579C50.2216 32.8724 50.2896 32.8869 50.3501 32.9012C50.2896 32.9155 50.2216 32.93 50.1458 32.9445C49.7214 33.0259 49.0991 33.1005 48.3207 33.1636C46.7664 33.2896 44.6147 33.3678 42.2349 33.3678C39.8551 33.3678 37.7033 33.2896 36.1491 33.1636C35.3707 33.1005 34.7484 33.0259 34.3239 32.9445C34.2482 32.93 34.1801 32.9155 34.1196 32.9012C34.1801 32.8869 34.2482 32.8724 34.3239 32.8579C34.7484 32.7765 35.3707 32.7019 36.1491 32.6388C37.7033 32.5127 39.8551 32.4345 42.2349 32.4345C44.6147 32.4345 46.7664 32.5127 48.3207 32.6388C49.0991 32.7019 49.7214 32.7765 50.1458 32.8579Z" fill="#3A1943" stroke="#8B0837" stroke-width="0.466667"/>
<path d="M36.241 28.3814L33.1344 27.5342L34.5465 41.9377L42.1719 45.6092V44.8485C42.1719 44.2671 41.8676 43.7322 41.3987 43.3887C36.8177 40.0326 35.973 34.8131 36.241 28.3814Z" fill="#8B0837"/>
</g>
<path d="M50.7656 27.4516C47.3766 28.2988 45.682 28.2988 42.293 28.2988C38.9039 28.2988 37.2094 28.2988 33.8203 27.4516" stroke="white" stroke-width="0.564844" stroke-linecap="round"/>
<path d="M34.7656 33.833L35.699 34.0663C36.1656 38.033 36.8656 39.433 39.4324 41.9997C39.9174 42.4846 39.4228 42.8853 38.9657 42.4663C36.399 40.1136 35.699 38.4997 34.7656 33.833Z" fill="#B0456C"/>
<path d="M35.4666 28.7001C35.1075 28.7056 34.5333 28.4668 34.5333 28.4668C34.4917 29.2355 34.5002 30.7721 34.5646 32.0253C34.8295 31.7129 35.2333 31.7335 35.4666 31.7335C35.4324 30.6797 35.4705 29.2935 35.4666 28.7001Z" fill="white"/>
<path d="M41.5221 60.6764C41.5304 60.6698 41.5409 60.666 41.5515 60.666H42.8885C42.9143 60.666 42.9352 60.6871 42.9348 60.7128C42.9162 61.8527 42.2163 62.7674 40.3926 63.4569C40.3769 63.4629 40.3588 63.466 40.342 63.466C37.125 63.466 38.1054 63.4652 35.8097 63.1585C35.6438 63.1363 35.6458 62.885 35.8121 62.8663C38.1845 62.5999 39.5281 62.2684 41.5221 60.6764Z" fill="white"/>
</svg>
