<svg width="70" height="70" viewBox="0 0 70 70" fill="none" xmlns="http://www.w3.org/2000/svg">
<rect width="70" height="70" fill="white"/>
<path d="M11.2012 8.16669C10.7346 5.36669 14.0015 3.96667 16.3347 5.83335C17.1162 6.45858 18.2012 8.42565 18.2012 9.56668C18.2012 12.1334 16.1014 13.0667 14.0012 11.6667C12.7392 10.8254 11.4136 9.44134 11.2012 8.16669Z" fill="#FFB2F3" fill-opacity="0.2"/>
<path d="M64.6125 22.1952C66.0125 20.7952 68.5791 21.4952 68.3458 23.5952C68.1468 25.3863 66.9458 26.6285 65.3125 27.7952C63.9123 28.7953 64.146 28.2618 64.1458 26.1618C64.1457 25.3835 63.4456 23.3618 64.6125 22.1952Z" fill="#FFB2F3" fill-opacity="0.2"/>
<path d="M9.96794 16.5762C13.2346 16.1095 22.8013 17.9762 26.5346 16.1095C29.3346 14.7095 39.3679 6.51951 48.2346 6.07619C52.9013 5.84287 59.4929 9.80954 60.1346 14.9429C60.6013 18.6762 58.7346 22.5962 60.1346 28.4762C60.9679 31.9762 67.6013 38.2762 66.4346 46.6762C65.4631 53.671 57.1013 60.9095 48.9346 62.7762H15.8011C13.4678 62.7762 9.62604 62.4875 8.33446 59.7429C6.46779 55.7762 12.7678 49.7095 11.3679 44.8095C10.5091 41.8032 5.53477 35.4762 4.36794 28.9429C3.68025 25.0924 5.06794 17.2762 9.96794 16.5762Z" fill="#FFB2F3" fill-opacity="0.2"/>
<ellipse cx="33.1346" cy="63.4664" rx="21.4667" ry="1.4" fill="#FF7AEA"/>
<mask id="mask0_2363_138423" style="mask-type:alpha" maskUnits="userSpaceOnUse" x="17" y="37" width="23" height="28">
<path fill-rule="evenodd" clip-rule="evenodd" d="M36.1906 38.5291C36.1906 38.2029 35.9262 37.9385 35.6 37.9385H21.6612C21.335 37.9385 21.0706 38.2029 21.0706 38.5291C21.0706 38.6003 21.0489 38.6699 21.0083 38.7284L20.9288 38.8432C20.8457 38.9631 20.8457 39.122 20.9288 39.2419L21.0083 39.3567C21.0489 39.4153 21.0706 39.4848 21.0706 39.5561C21.0706 39.6507 20.9999 39.7304 20.906 39.7417L19.6006 39.8983C18.9373 40.0729 17.6471 40.7698 17.6406 41.2944C17.6406 41.2967 17.6422 41.2987 17.6445 41.2993C17.6425 41.2989 17.6406 41.3004 17.6406 41.3024V62.2238C17.6406 62.5513 17.8678 62.8351 18.1875 62.9068L23.5905 64.1185C23.5906 64.1185 23.5906 64.1184 23.5906 64.1184C23.5906 64.1183 23.5907 64.1183 23.5907 64.1183H33.6706C34.0572 64.1183 34.3706 63.8049 34.3706 63.4183V43.4597C34.3706 43.4595 34.3708 43.4593 34.371 43.4593C34.3712 43.4593 34.3714 43.4595 34.3714 43.4597V63.1817C34.3714 63.6493 34.8212 63.9855 35.2697 63.853L39.1897 62.6948C39.4872 62.6069 39.6914 62.3337 39.6914 62.0235V41.1095C39.6914 41.0989 39.6812 41.0914 39.6711 41.0944C39.6616 41.0972 39.6519 41.0905 39.6506 41.0807C39.5579 40.3668 38.193 40.0673 37.4156 39.8983L36.3268 39.7168C36.2482 39.7037 36.1906 39.6357 36.1906 39.5561C36.1906 39.4848 36.2124 39.4153 36.2529 39.3567L36.3325 39.2419C36.4156 39.122 36.4156 38.9631 36.3325 38.8432L36.2529 38.7284C36.2124 38.6699 36.1906 38.6003 36.1906 38.5291Z" fill="#D9D9D9"/>
</mask>
<g mask="url(#mask0_2363_138423)">
<path fill-rule="evenodd" clip-rule="evenodd" d="M36.1906 38.5291C36.1906 38.2029 35.9262 37.9385 35.6 37.9385H21.6612C21.335 37.9385 21.0706 38.2029 21.0706 38.5291C21.0706 38.6003 21.0489 38.6699 21.0083 38.7284L20.9288 38.8432C20.8457 38.9631 20.8457 39.122 20.9288 39.2419L21.0083 39.3567C21.0489 39.4153 21.0706 39.4848 21.0706 39.5561C21.0706 39.6507 20.9999 39.7304 20.906 39.7417L19.6006 39.8983C18.9373 40.0729 17.6471 40.7698 17.6406 41.2944C17.6406 41.2967 17.6422 41.2987 17.6445 41.2993C17.6425 41.2989 17.6406 41.3004 17.6406 41.3024V62.2238C17.6406 62.5513 17.8678 62.8351 18.1875 62.9068L23.5905 64.1185C23.5906 64.1185 23.5906 64.1184 23.5906 64.1184C23.5906 64.1183 23.5907 64.1183 23.5907 64.1183H33.6706C34.0572 64.1183 34.3706 63.8049 34.3706 63.4183V43.4597C34.3706 43.4595 34.3708 43.4593 34.371 43.4593C34.3712 43.4593 34.3714 43.4595 34.3714 43.4597V63.1817C34.3714 63.6493 34.8212 63.9855 35.2697 63.853L39.1897 62.6948C39.4872 62.6069 39.6914 62.3337 39.6914 62.0235V41.1095C39.6914 41.0989 39.6812 41.0914 39.6711 41.0944C39.6616 41.0972 39.6519 41.0905 39.6506 41.0807C39.5579 40.3668 38.193 40.0673 37.4156 39.8983L36.3268 39.7168C36.2482 39.7037 36.1906 39.6357 36.1906 39.5561C36.1906 39.4848 36.2124 39.4153 36.2529 39.3567L36.3325 39.2419C36.4156 39.122 36.4156 38.9631 36.3325 38.8432L36.2529 38.7284C36.2124 38.6699 36.1906 38.6003 36.1906 38.5291Z" fill="#D9D9D9"/>
<path d="M34.1953 43.3293L35.3153 37.2393L40.1803 39.5143L40.8103 42.4893V64.6793L34.1953 65.5193V43.3293Z" fill="#A7A7A7"/>
<mask id="mask1_2363_138423" style="mask-type:alpha" maskUnits="userSpaceOnUse" x="18" y="37" width="22" height="27">
<path fill-rule="evenodd" clip-rule="evenodd" d="M35.6998 37.9395H21.4898V40.1013C21.0156 40.1152 20.5649 40.1709 20.0886 40.2963C19.4595 40.4619 18.2344 41.1241 18.2344 41.6207V61.4165C18.2344 61.7264 18.4493 61.9949 18.7517 62.0627L23.0561 63.028C23.47 63.1208 23.8632 62.806 23.8632 62.3818V43.1502L23.8634 43.15L23.8635 43.1502V62.5469C23.8635 62.9126 24.16 63.2091 24.5258 63.2091H34.0615L34.0617 63.2089L34.0618 63.2088L38.6192 61.8623C38.9006 61.7791 39.0938 61.5207 39.0938 61.2272V41.4415C39.0938 41.4318 39.0845 41.4249 39.0752 41.4276C39.0665 41.4302 39.0575 41.424 39.0564 41.415C38.9689 40.7396 37.6775 40.4562 36.942 40.2963L35.75 40.0976L35.6998 40.0963V37.9395Z" fill="#945556"/>
</mask>
<g mask="url(#mask1_2363_138423)">
<path fill-rule="evenodd" clip-rule="evenodd" d="M35.6998 37.9395H21.4898V40.1013C21.0156 40.1152 20.5649 40.1709 20.0886 40.2963C19.4595 40.4619 18.2344 41.1241 18.2344 41.6207V61.4165C18.2344 61.7264 18.4493 61.9949 18.7517 62.0627L23.0561 63.028C23.47 63.1208 23.8632 62.806 23.8632 62.3818V43.1502L23.8634 43.15L23.8635 43.1502V62.5469C23.8635 62.9126 24.16 63.2091 24.5258 63.2091H34.0615L34.0617 63.2089L34.0618 63.2088L38.6192 61.8623C38.9006 61.7791 39.0938 61.5207 39.0938 61.2272V41.4415C39.0938 41.4318 39.0845 41.4249 39.0752 41.4276C39.0665 41.4302 39.0575 41.424 39.0564 41.415C38.9689 40.7396 37.6775 40.4562 36.942 40.2963L35.75 40.0976L35.6998 40.0963V37.9395Z" fill="#C74042"/>
<path d="M18.9688 42.3402C18.9688 42.1209 19.1681 41.9556 19.3837 41.9963L23.0237 42.6833C23.189 42.7145 23.3088 42.8589 23.3088 43.0272V61.7048C23.3088 61.9242 23.1094 62.0894 22.8938 62.0488L19.2538 61.3618C19.0885 61.3306 18.9688 61.1861 18.9688 61.0178V42.3402Z" fill="#D35456"/>
<path d="M24.6016 43.1889C24.6016 42.9956 24.7583 42.8389 24.9516 42.8389H32.9666C33.1599 42.8389 33.3166 42.9956 33.3166 43.1889V61.8789C33.3166 62.0722 33.1599 62.2289 32.9666 62.2289H24.9516C24.7583 62.2289 24.6016 62.0722 24.6016 61.8789V43.1889Z" fill="#D35456"/>
<path d="M21.2683 40.6355C21.2994 40.6343 21.331 40.6375 21.3613 40.6446C24.2449 41.3252 27.328 41.4887 32.4248 41.0729C32.564 41.0615 32.6983 41.1335 32.7642 41.2565L32.919 41.5454C33.0405 41.7721 32.8838 42.048 32.6269 42.0598C27.8213 42.28 23.8311 42.3112 19.5358 41.3661C19.478 41.3534 19.4612 41.2791 19.5085 41.2436C20.0334 40.8491 20.4204 40.6696 21.2683 40.6355Z" fill="#D35456"/>
</g>
<path d="M21.875 41.9287C23.205 42.2087 26.1093 42.3781 27.825 42.3137C26.355 42.9437 24.22 42.0687 24.22 43.1887C24.22 45.5687 24.185 49.2087 23.94 49.2087C23.695 49.2087 23.695 45.3937 23.695 43.0487C23.695 42.2437 22.015 42.3137 21.875 41.9287Z" fill="#E9AAAB"/>
<path d="M18.0601 41.6138C18.1651 41.1238 18.6551 40.6338 19.1451 40.4238C18.5501 41.1938 18.7637 41.5108 19.8451 41.6138C19.3901 41.7538 18.8683 41.6138 18.6201 41.8238C18.1651 42.2088 18.2001 45.1138 18.3051 46.8988C18.3257 47.2488 18.0995 47.2138 18.0601 46.8988C17.9202 45.7788 17.9252 42.2438 18.0601 41.6138Z" fill="#E9AAAB"/>
<path d="M23.6606 61.844C23.6606 60.409 23.7306 57.959 23.9756 57.959C24.1506 57.959 24.1506 60.479 24.1506 61.844C24.1506 62.579 24.5706 62.754 26.2506 62.894C24.3686 63.0889 23.4498 62.9695 22.0156 62.404C23.2756 62.544 23.6606 62.474 23.6606 61.844Z" fill="#E9AAAB"/>
<path d="M18.216 57.8535C18.391 57.8535 18.4449 60.0585 18.496 60.6885C18.5404 61.2362 18.7243 61.5635 19.6526 61.8785C18.9876 61.9135 18.1095 62.0185 18.0593 60.8635C18.0482 60.609 17.971 57.8535 18.216 57.8535Z" fill="#E9AAAB"/>
<path d="M19.4689 42.7123C19.4719 42.5409 19.5994 42.3963 19.7698 42.3784C20.5619 42.2952 21.069 42.3815 21.7789 42.6995C21.91 42.7582 21.9879 42.8943 21.9777 43.0375C21.8157 45.3095 21.7079 47.6013 21.1723 49.8672C21.1411 49.9995 21.0348 50.1038 20.8996 50.1167C20.5423 50.1507 20.3213 50.0599 20.0371 49.8506C19.9672 49.7991 19.9217 49.7213 19.9076 49.6356C19.544 47.4281 19.4274 45.1199 19.4689 42.7123Z" fill="#DE6264"/>
<path d="M25.4884 43.5494C25.4914 43.3781 25.6183 43.2338 25.7885 43.2147C26.8373 43.097 28.6012 43.035 29.5301 43.3424C29.6664 43.3875 29.7436 43.5245 29.7331 43.6677C29.5661 45.9434 29.4564 47.2901 28.8755 49.6252C28.4205 50.9552 26.1517 50.7102 25.9494 49.5168C25.5685 47.2707 25.4463 45.9243 25.4884 43.5494Z" fill="#DE6264"/>
</g>
<mask id="mask2_2363_138423" style="mask-type:alpha" maskUnits="userSpaceOnUse" x="18" y="35" width="21" height="4">
<path d="M18.4805 35.8594C20.983 34.8776 37.3805 34.9646 38.5005 35.8594V37.9635C36.3065 38.6999 20.3659 38.8402 18.4805 37.9635V35.8594Z" fill="#EEBA00"/>
</mask>
<g mask="url(#mask2_2363_138423)">
<path d="M18.4805 35.8594C20.983 34.8776 37.3805 34.9646 38.5005 35.8594V37.9635C36.3065 38.6999 20.3659 38.8402 18.4805 37.9635V35.8594Z" fill="#EEBA00"/>
<rect x="17.9219" y="35.7695" width="2.94" height="3.36" fill="#FFE352"/>
<rect x="21.2109" y="35.7695" width="1.12" height="3.36" fill="#FFE352"/>
<rect x="23.0312" y="35.4199" width="10.22" height="3.36" fill="#FFE352"/>
<path d="M38.5005 35.8398C38.5005 36.2071 34.0188 36.5048 28.4905 36.5048C22.9621 36.5048 18.4805 36.2071 18.4805 35.8398C18.4805 35.4725 22.9621 35.1748 28.4905 35.1748C34.0188 35.1748 38.5005 35.4725 38.5005 35.8398Z" fill="#FFE352"/>
</g>
<mask id="mask3_2363_138423" style="mask-type:alpha" maskUnits="userSpaceOnUse" x="20" y="34" width="17" height="3">
<path d="M20.6523 35.1595C22.6473 34.5254 35.8471 34.4349 36.6123 35.1595V35.7281C34.8633 36.2036 22.1554 36.2942 20.6523 35.7281V35.1595Z" fill="#EEBA00"/>
</mask>
<g mask="url(#mask3_2363_138423)">
<path d="M20.6523 35.1592C22.7173 34.5792 35.7023 34.6492 36.6123 35.1592V35.7278C34.8633 36.2033 22.1554 36.2939 20.6523 35.7278V35.1592Z" fill="#EEBA00"/>
<rect x="19.8828" y="34.9297" width="1.33" height="1.33" fill="#FFE352"/>
<rect x="21.5625" y="34.7891" width="1.12" height="1.33" fill="#FFE352"/>
<rect x="23.4531" y="34.999" width="11.48" height="1.33" fill="#FFE352"/>
<path d="M36.6123 35.1739C36.6123 35.4059 33.0396 35.5939 28.6323 35.5939C24.2251 35.5939 20.6523 35.4059 20.6523 35.1739C20.6523 34.9419 24.2251 34.7539 28.6323 34.7539C33.0396 34.7539 36.6123 34.9419 36.6123 35.1739Z" fill="#FFE352"/>
<path d="M35.9122 35.1397C35.9122 35.2557 32.6842 35.3497 28.7022 35.3497C24.7202 35.3497 21.4922 35.2557 21.4922 35.1397C21.4922 35.0237 24.7202 34.9297 28.7022 34.9297C32.6842 34.9297 35.9122 35.0237 35.9122 35.1397Z" fill="#EEBA00"/>
</g>
<ellipse cx="32.1309" cy="49.1748" rx="0.42" ry="0.875" fill="#C74042"/>
<ellipse cx="27.8958" cy="57.8895" rx="0.595" ry="1.12" fill="#C74042"/>
<ellipse cx="31.5014" cy="54.2501" rx="0.56" ry="0.63" fill="#C74042"/>
<ellipse cx="26.0764" cy="52.85" rx="0.385" ry="0.56" fill="#C74042"/>
<ellipse cx="31.3264" cy="60.5502" rx="0.385" ry="0.56" fill="#C74042"/>
<ellipse cx="22.4711" cy="55.16" rx="0.35" ry="0.7" fill="#C74042"/>
<ellipse cx="20.6502" cy="59.2898" rx="0.49" ry="0.7" fill="#C74042"/>
<ellipse cx="20.0212" cy="51.8347" rx="0.49" ry="1.155" fill="#C74042"/>
<path d="M27.358 25.8965C27.3229 25.7699 27.3616 25.6344 27.4583 25.5454L28.1057 24.9498C28.1516 24.9076 28.2079 24.8784 28.2689 24.8652L45.5687 21.1386C45.7476 21.1001 45.926 21.2058 45.978 21.3812L57.4708 60.1303L57.0378 60.877C56.9903 60.959 56.9115 61.0182 56.8195 61.0411L38.709 65.5431C38.525 65.5889 38.338 65.4797 38.2873 65.297L27.358 25.8965Z" fill="#8F6857"/>
<path d="M27.9555 25.3366C27.9028 25.1468 28.0171 24.9509 28.2083 24.9034L46.1137 20.4523C46.2978 20.4066 46.4848 20.5157 46.5354 20.6984L57.4544 60.0615C57.4755 60.1375 57.4298 60.2158 57.3533 60.2348L39.2385 64.7379C39.0545 64.7837 38.8675 64.6745 38.8168 64.4918L27.9555 25.3366Z" fill="#835A48"/>
<mask id="mask4_2363_138423" style="mask-type:alpha" maskUnits="userSpaceOnUse" x="28" y="24" width="8" height="8">
<path d="M28.9102 25.4992L34.2144 24.1807L35.7386 29.7457L30.4344 31.0642L28.9102 25.4992Z" fill="#8D695A"/>
</mask>
<g mask="url(#mask4_2363_138423)">
<path d="M30.4531 25.4062L34.0869 24.5029L35.2276 28.6679L31.5939 29.5712L30.4531 25.4062Z" fill="#835A48"/>
<path d="M30.4547 25.407L34.0885 24.5037L34.2142 24.1738L28.8242 25.5038L30.4547 25.407Z" fill="#8F6857"/>
<path d="M34.2156 24.1738L34.0898 24.5037L35.2306 28.6687L35.7556 29.7738L34.2156 24.1738Z" fill="#684333"/>
<path d="M30.3984 31.1041L35.7884 29.8441L35.2284 28.6689L31.5947 29.5722L30.3984 31.1041Z" fill="#684333"/>
<path d="M30.4547 25.4072L28.8242 25.5041L30.4342 31.0691L31.5955 29.5722L30.4547 25.4072Z" fill="#8F6857"/>
</g>
<mask id="mask5_2363_138423" style="mask-type:alpha" maskUnits="userSpaceOnUse" x="34" y="22" width="8" height="8">
<path d="M34.9297 23.9982L40.2339 22.6797L41.7582 28.2447L36.454 29.5632L34.9297 23.9982Z" fill="#8D695A"/>
</mask>
<g mask="url(#mask5_2363_138423)">
<path d="M36.4727 23.9052L40.1064 23.002L41.2471 27.167L37.6134 28.0702L36.4727 23.9052Z" fill="#835A48"/>
<path d="M36.4743 23.906L40.108 23.0027L40.2337 22.6729L34.8438 24.0029L36.4743 23.906Z" fill="#8F6857"/>
<path d="M40.2352 22.6729L40.1094 23.0027L41.2501 27.1677L41.7752 28.2729L40.2352 22.6729Z" fill="#684333"/>
<path d="M36.418 29.6031L41.808 28.3431L41.248 27.168L37.6142 28.0713L36.418 29.6031Z" fill="#684333"/>
<path d="M36.4743 23.9062L34.8438 24.0031L36.4538 29.5681L37.615 28.0712L36.4743 23.9062Z" fill="#8F6857"/>
</g>
<mask id="mask6_2363_138423" style="mask-type:alpha" maskUnits="userSpaceOnUse" x="40" y="21" width="8" height="8">
<path d="M40.8789 22.5285L46.1831 21.21L47.7074 26.775L42.4032 28.0935L40.8789 22.5285Z" fill="#8D695A"/>
</mask>
<g mask="url(#mask6_2363_138423)">
<path d="M42.4219 22.4355L46.0556 21.5322L47.1964 25.6972L43.5626 26.6005L42.4219 22.4355Z" fill="#835A48"/>
<path d="M42.4235 22.4363L46.0572 21.533L46.183 21.2031L40.793 22.5331L42.4235 22.4363Z" fill="#8F6857"/>
<path d="M46.1844 21.2031L46.0586 21.533L47.1994 25.698L47.7244 26.8031L46.1844 21.2031Z" fill="#684333"/>
<path d="M42.3672 28.1334L47.7572 26.8734L47.1972 25.6982L43.5634 26.6015L42.3672 28.1334Z" fill="#684333"/>
<path d="M42.4235 22.4365L40.793 22.5334L42.403 28.0984L43.5642 26.6015L42.4235 22.4365Z" fill="#8F6857"/>
</g>
<mask id="mask7_2363_138423" style="mask-type:alpha" maskUnits="userSpaceOnUse" x="30" y="30" width="8" height="8">
<path d="M30.6602 31.8693L35.9644 30.5508L37.4886 36.1158L32.1844 37.4343L30.6602 31.8693Z" fill="#8D695A"/>
</mask>
<g mask="url(#mask7_2363_138423)">
<path d="M32.2031 31.7763L35.8369 30.8731L36.9776 35.038L33.3439 35.9413L32.2031 31.7763Z" fill="#835A48"/>
<path d="M32.2047 31.7771L35.8385 30.8738L35.9642 30.5439L30.5742 31.8739L32.2047 31.7771Z" fill="#8F6857"/>
<path d="M35.9656 30.5439L35.8398 30.8738L36.9806 35.0388L37.5056 36.1439L35.9656 30.5439Z" fill="#684333"/>
<path d="M32.1484 37.4742L37.5384 36.2142L36.9784 35.0391L33.3447 35.9424L32.1484 37.4742Z" fill="#684333"/>
<path d="M32.2047 31.7773L30.5742 31.8742L32.1842 37.4392L33.3455 35.9423L32.2047 31.7773Z" fill="#8F6857"/>
</g>
<mask id="mask8_2363_138423" style="mask-type:alpha" maskUnits="userSpaceOnUse" x="36" y="29" width="8" height="7">
<path d="M36.6797 30.3684L41.9839 29.0498L43.5082 34.6148L38.204 35.9334L36.6797 30.3684Z" fill="#8D695A"/>
</mask>
<g mask="url(#mask8_2363_138423)">
<path d="M38.2227 30.2754L41.8564 29.3721L42.9971 33.5371L39.3634 34.4404L38.2227 30.2754Z" fill="#835A48"/>
<path d="M38.2243 30.2761L41.858 29.3728L41.9837 29.043L36.5938 30.373L38.2243 30.2761Z" fill="#8F6857"/>
<path d="M41.9852 29.043L41.8594 29.3728L43.0001 33.5378L43.5252 34.643L41.9852 29.043Z" fill="#684333"/>
<path d="M38.168 35.9732L43.558 34.7132L42.998 33.5381L39.3642 34.4414L38.168 35.9732Z" fill="#684333"/>
<path d="M38.2243 30.2764L36.5938 30.3732L38.2038 35.9382L39.365 34.4414L38.2243 30.2764Z" fill="#8F6857"/>
</g>
<mask id="mask9_2363_138423" style="mask-type:alpha" maskUnits="userSpaceOnUse" x="42" y="27" width="8" height="8">
<path d="M42.6289 28.8986L47.9331 27.5801L49.4574 33.1451L44.1532 34.4636L42.6289 28.8986Z" fill="#8D695A"/>
</mask>
<g mask="url(#mask9_2363_138423)">
<path d="M44.1719 28.8056L47.8056 27.9023L48.9464 32.0673L45.3126 32.9706L44.1719 28.8056Z" fill="#835A48"/>
<path d="M44.1735 28.8064L47.8072 27.9031L47.933 27.5732L42.543 28.9032L44.1735 28.8064Z" fill="#8F6857"/>
<path d="M47.9344 27.5732L47.8086 27.9031L48.9494 32.0681L49.4744 33.1732L47.9344 27.5732Z" fill="#684333"/>
<path d="M44.1172 34.5035L49.5072 33.2435L48.9472 32.0684L45.3134 32.9717L44.1172 34.5035Z" fill="#684333"/>
<path d="M44.1735 28.8066L42.543 28.9035L44.153 34.4685L45.3142 32.9716L44.1735 28.8066Z" fill="#8F6857"/>
</g>
<mask id="mask10_2363_138423" style="mask-type:alpha" maskUnits="userSpaceOnUse" x="32" y="36" width="8" height="8">
<path d="M32.4102 38.3088L37.7144 36.9902L39.2386 42.5552L33.9344 43.8738L32.4102 38.3088Z" fill="#8D695A"/>
</mask>
<g mask="url(#mask10_2363_138423)">
<path d="M33.9531 38.2158L37.5869 37.3125L38.7276 41.4775L35.0939 42.3808L33.9531 38.2158Z" fill="#835A48"/>
<path d="M33.9547 38.2165L37.5885 37.3133L37.7142 36.9834L32.3242 38.3134L33.9547 38.2165Z" fill="#8F6857"/>
<path d="M37.7156 36.9834L37.5898 37.3132L38.7306 41.4782L39.2556 42.5834L37.7156 36.9834Z" fill="#684333"/>
<path d="M33.8984 43.9137L39.2884 42.6537L38.7284 41.4785L35.0947 42.3818L33.8984 43.9137Z" fill="#684333"/>
<path d="M33.9547 38.2168L32.3242 38.3137L33.9342 43.8787L35.0955 42.3818L33.9547 38.2168Z" fill="#8F6857"/>
</g>
<mask id="mask11_2363_138423" style="mask-type:alpha" maskUnits="userSpaceOnUse" x="38" y="35" width="8" height="8">
<path d="M38.4297 36.8088L43.7339 35.4902L45.2582 41.0552L39.954 42.3738L38.4297 36.8088Z" fill="#8D695A"/>
</mask>
<g mask="url(#mask11_2363_138423)">
<path d="M39.9727 36.7158L43.6064 35.8125L44.7471 39.9775L41.1134 40.8808L39.9727 36.7158Z" fill="#835A48"/>
<path d="M39.9743 36.7165L43.608 35.8133L43.7337 35.4834L38.3438 36.8134L39.9743 36.7165Z" fill="#8F6857"/>
<path d="M43.7352 35.4834L43.6094 35.8132L44.7501 39.9782L45.2752 41.0834L43.7352 35.4834Z" fill="#684333"/>
<path d="M39.918 42.4137L45.308 41.1537L44.748 39.9785L41.1142 40.8818L39.918 42.4137Z" fill="#684333"/>
<path d="M39.9743 36.7168L38.3438 36.8137L39.9538 42.3787L41.115 40.8818L39.9743 36.7168Z" fill="#8F6857"/>
</g>
<mask id="mask12_2363_138423" style="mask-type:alpha" maskUnits="userSpaceOnUse" x="44" y="34" width="8" height="7">
<path d="M44.3789 35.3381L49.6831 34.0195L51.2074 39.5845L45.9032 40.9031L44.3789 35.3381Z" fill="#8D695A"/>
</mask>
<g mask="url(#mask12_2363_138423)">
<path d="M45.9219 35.2451L49.5556 34.3418L50.6964 38.5068L47.0626 39.4101L45.9219 35.2451Z" fill="#835A48"/>
<path d="M45.9235 35.2458L49.5572 34.3425L49.683 34.0127L44.293 35.3427L45.9235 35.2458Z" fill="#8F6857"/>
<path d="M49.6844 34.0127L49.5586 34.3425L50.6994 38.5075L51.2244 39.6127L49.6844 34.0127Z" fill="#684333"/>
<path d="M45.8672 40.943L51.2572 39.683L50.6972 38.5078L47.0634 39.4111L45.8672 40.943Z" fill="#684333"/>
<path d="M45.9235 35.2461L44.293 35.343L45.903 40.908L47.0642 39.4111L45.9235 35.2461Z" fill="#8F6857"/>
</g>
<mask id="mask13_2363_138423" style="mask-type:alpha" maskUnits="userSpaceOnUse" x="34" y="43" width="8" height="8">
<path d="M34.2305 44.9602L39.5347 43.6416L41.0589 49.2066L35.7547 50.5252L34.2305 44.9602Z" fill="#8D695A"/>
</mask>
<g mask="url(#mask13_2363_138423)">
<path d="M35.7734 44.8672L39.4072 43.9639L40.5479 48.1289L36.9142 49.0322L35.7734 44.8672Z" fill="#835A48"/>
<path d="M35.7751 44.8679L39.4088 43.9646L39.5345 43.6348L34.1445 44.9648L35.7751 44.8679Z" fill="#8F6857"/>
<path d="M39.5359 43.6348L39.4102 43.9646L40.5509 48.1296L41.0759 49.2348L39.5359 43.6348Z" fill="#684333"/>
<path d="M35.7188 50.565L41.1087 49.305L40.5487 48.1299L36.915 49.0332L35.7188 50.565Z" fill="#684333"/>
<path d="M35.775 44.8682L34.1445 44.965L35.7545 50.53L36.9158 49.0332L35.775 44.8682Z" fill="#8F6857"/>
</g>
<mask id="mask14_2363_138423" style="mask-type:alpha" maskUnits="userSpaceOnUse" x="40" y="42" width="8" height="8">
<path d="M40.25 43.4592L45.5542 42.1406L47.0785 47.7056L41.7743 49.0242L40.25 43.4592Z" fill="#8D695A"/>
</mask>
<g mask="url(#mask14_2363_138423)">
<path d="M41.793 43.3662L45.4267 42.4629L46.5675 46.6279L42.9337 47.5312L41.793 43.3662Z" fill="#835A48"/>
<path d="M41.7946 43.3669L45.4283 42.4636L45.5541 42.1338L40.1641 43.4638L41.7946 43.3669Z" fill="#8F6857"/>
<path d="M45.5555 42.1338L45.4297 42.4636L46.5704 46.6286L47.0955 47.7338L45.5555 42.1338Z" fill="#684333"/>
<path d="M41.7383 49.0641L47.1283 47.8041L46.5683 46.6289L42.9345 47.5322L41.7383 49.0641Z" fill="#684333"/>
<path d="M41.7946 43.3672L40.1641 43.464L41.7741 49.029L42.9353 47.5322L41.7946 43.3672Z" fill="#8F6857"/>
</g>
<mask id="mask15_2363_138423" style="mask-type:alpha" maskUnits="userSpaceOnUse" x="46" y="40" width="8" height="8">
<path d="M46.1992 41.9895L51.5034 40.6709L53.0277 46.2359L47.7235 47.5545L46.1992 41.9895Z" fill="#8D695A"/>
</mask>
<g mask="url(#mask15_2363_138423)">
<path d="M47.7422 41.8965L51.3759 40.9932L52.5167 45.1582L48.8829 46.0615L47.7422 41.8965Z" fill="#835A48"/>
<path d="M47.7438 41.8972L51.3775 40.9939L51.5033 40.6641L46.1133 41.9941L47.7438 41.8972Z" fill="#8F6857"/>
<path d="M51.5047 40.6641L51.3789 40.9939L52.5197 45.1589L53.0447 46.2641L51.5047 40.6641Z" fill="#684333"/>
<path d="M47.6875 47.5943L53.0775 46.3343L52.5175 45.1592L48.8838 46.0625L47.6875 47.5943Z" fill="#684333"/>
<path d="M47.7438 41.8975L46.1133 41.9943L47.7233 47.5593L48.8845 46.0625L47.7438 41.8975Z" fill="#8F6857"/>
</g>
<mask id="mask16_2363_138423" style="mask-type:alpha" maskUnits="userSpaceOnUse" x="36" y="50" width="7" height="8">
<path d="M36.0508 51.6096L41.355 50.291L42.8793 55.856L37.575 57.1746L36.0508 51.6096Z" fill="#8D695A"/>
</mask>
<g mask="url(#mask16_2363_138423)">
<path d="M37.5938 51.5166L41.2275 50.6133L42.3682 54.7783L38.7345 55.6816L37.5938 51.5166Z" fill="#835A48"/>
<path d="M37.5954 51.5173L41.2291 50.614L41.3548 50.2842L35.9648 51.6142L37.5954 51.5173Z" fill="#8F6857"/>
<path d="M41.3563 50.2842L41.2305 50.614L42.3712 54.779L42.8963 55.8842L41.3563 50.2842Z" fill="#684333"/>
<path d="M37.5391 57.2144L42.9291 55.9544L42.3691 54.7793L38.7353 55.6826L37.5391 57.2144Z" fill="#684333"/>
<path d="M37.5954 51.5176L35.9648 51.6144L37.5748 57.1794L38.7361 55.6826L37.5954 51.5176Z" fill="#8F6857"/>
</g>
<mask id="mask17_2363_138423" style="mask-type:alpha" maskUnits="userSpaceOnUse" x="42" y="48" width="7" height="8">
<path d="M42.0703 50.1096L47.3745 48.791L48.8988 54.356L43.5946 55.6746L42.0703 50.1096Z" fill="#8D695A"/>
</mask>
<g mask="url(#mask17_2363_138423)">
<path d="M43.6133 50.0166L47.247 49.1133L48.3878 53.2783L44.754 54.1816L43.6133 50.0166Z" fill="#835A48"/>
<path d="M43.6149 50.0173L47.2486 49.114L47.3744 48.7842L41.9844 50.1142L43.6149 50.0173Z" fill="#8F6857"/>
<path d="M47.3758 48.7842L47.25 49.114L48.3908 53.279L48.9158 54.3842L47.3758 48.7842Z" fill="#684333"/>
<path d="M43.5586 55.7144L48.9486 54.4544L48.3886 53.2793L44.7549 54.1826L43.5586 55.7144Z" fill="#684333"/>
<path d="M43.6149 50.0176L41.9844 50.1144L43.5944 55.6794L44.7556 54.1826L43.6149 50.0176Z" fill="#8F6857"/>
</g>
<mask id="mask18_2363_138423" style="mask-type:alpha" maskUnits="userSpaceOnUse" x="48" y="47" width="7" height="8">
<path d="M48.0195 48.6389L53.3237 47.3203L54.848 52.8853L49.5438 54.2039L48.0195 48.6389Z" fill="#8D695A"/>
</mask>
<g mask="url(#mask18_2363_138423)">
<path d="M49.5625 48.5459L53.1962 47.6426L54.337 51.8076L50.7033 52.7109L49.5625 48.5459Z" fill="#835A48"/>
<path d="M49.5641 48.5466L53.1978 47.6433L53.3236 47.3135L47.9336 48.6435L49.5641 48.5466Z" fill="#8F6857"/>
<path d="M53.325 47.3135L53.1992 47.6433L54.34 51.8083L54.865 52.9135L53.325 47.3135Z" fill="#684333"/>
<path d="M49.5078 54.2437L54.8978 52.9837L54.3378 51.8086L50.7041 52.7119L49.5078 54.2437Z" fill="#684333"/>
<path d="M49.5641 48.5469L47.9336 48.6437L49.5436 54.2087L50.7049 52.7119L49.5641 48.5469Z" fill="#8F6857"/>
</g>
<mask id="mask19_2363_138423" style="mask-type:alpha" maskUnits="userSpaceOnUse" x="37" y="57" width="8" height="7">
<path d="M37.9375 58.3303L43.2417 57.0117L44.766 62.5767L39.4618 63.8953L37.9375 58.3303Z" fill="#8D695A"/>
</mask>
<g mask="url(#mask19_2363_138423)">
<path d="M39.4805 58.2373L43.1142 57.334L44.255 61.499L40.6212 62.4023L39.4805 58.2373Z" fill="#835A48"/>
<path d="M39.4821 58.238L43.1158 57.3347L43.2416 57.0049L37.8516 58.3349L39.4821 58.238Z" fill="#8F6857"/>
<path d="M43.243 57.0049L43.1172 57.3347L44.2579 61.4997L44.783 62.6049L43.243 57.0049Z" fill="#684333"/>
<path d="M39.4258 63.9351L44.8158 62.6751L44.2558 61.5L40.622 62.4033L39.4258 63.9351Z" fill="#684333"/>
<path d="M39.4821 58.2383L37.8516 58.3351L39.4616 63.9001L40.6228 62.4033L39.4821 58.2383Z" fill="#8F6857"/>
</g>
<mask id="mask20_2363_138423" style="mask-type:alpha" maskUnits="userSpaceOnUse" x="43" y="55" width="8" height="8">
<path d="M43.957 56.8293L49.2612 55.5107L50.7855 61.0757L45.4813 62.3943L43.957 56.8293Z" fill="#8D695A"/>
</mask>
<g mask="url(#mask20_2363_138423)">
<path d="M45.5 56.7363L49.1337 55.833L50.2745 59.998L46.6408 60.9013L45.5 56.7363Z" fill="#835A48"/>
<path d="M45.5016 56.7371L49.1353 55.8338L49.2611 55.5039L43.8711 56.8339L45.5016 56.7371Z" fill="#8F6857"/>
<path d="M49.2625 55.5039L49.1367 55.8338L50.2775 59.9988L50.8025 61.1039L49.2625 55.5039Z" fill="#684333"/>
<path d="M45.4453 62.4342L50.8353 61.1742L50.2753 59.999L46.6416 60.9023L45.4453 62.4342Z" fill="#684333"/>
<path d="M45.5016 56.7373L43.8711 56.8342L45.4811 62.3992L46.6424 60.9023L45.5016 56.7373Z" fill="#8F6857"/>
</g>
<mask id="mask21_2363_138423" style="mask-type:alpha" maskUnits="userSpaceOnUse" x="49" y="54" width="8" height="7">
<path d="M49.9062 55.3596L55.2105 54.041L56.7347 59.606L51.4305 60.9246L49.9062 55.3596Z" fill="#8D695A"/>
</mask>
<g mask="url(#mask21_2363_138423)">
<path d="M51.4492 55.2666L55.083 54.3633L56.2237 58.5283L52.59 59.4316L51.4492 55.2666Z" fill="#835A48"/>
<path d="M51.4508 55.2673L55.0846 54.364L55.2103 54.0342L49.8203 55.3642L51.4508 55.2673Z" fill="#8F6857"/>
<path d="M55.2117 54.0342L55.0859 54.364L56.2267 58.529L56.7517 59.6342L55.2117 54.0342Z" fill="#684333"/>
<path d="M51.3945 60.9644L56.7845 59.7044L56.2245 58.5293L52.5908 59.4326L51.3945 60.9644Z" fill="#684333"/>
<path d="M51.4508 55.2676L49.8203 55.3644L51.4303 60.9294L52.5916 59.4326L51.4508 55.2676Z" fill="#8F6857"/>
</g>
</svg>
