<svg width="70" height="70" viewBox="0 0 70 70" fill="none" xmlns="http://www.w3.org/2000/svg">
<rect width="70" height="70" fill="white"/>
<path d="M11.2012 8.16669C10.7346 5.36669 14.0015 3.96667 16.3347 5.83335C17.1162 6.45858 18.2012 8.42565 18.2012 9.56668C18.2012 12.1334 16.1014 13.0667 14.0012 11.6667C12.7392 10.8254 11.4136 9.44134 11.2012 8.16669Z" fill="#FFBD80" fill-opacity="0.2"/>
<path d="M64.6125 22.1952C66.0125 20.7952 68.5791 21.4952 68.3458 23.5952C68.1468 25.3863 66.9458 26.6285 65.3125 27.7952C63.9123 28.7953 64.146 28.2618 64.1458 26.1618C64.1457 25.3835 63.4456 23.3618 64.6125 22.1952Z" fill="#FFBD80" fill-opacity="0.2"/>
<path d="M9.96794 16.5762C13.2346 16.1095 22.8013 17.9762 26.5346 16.1095C29.3346 14.7095 39.3679 6.51951 48.2346 6.07619C52.9013 5.84287 59.4929 9.80954 60.1346 14.9429C60.6013 18.6762 58.7346 22.5962 60.1346 28.4762C60.9679 31.9762 67.6013 38.2762 66.4346 46.6762C65.4631 53.671 57.1013 60.9095 48.9346 62.7762H15.8011C13.4678 62.7762 9.62604 62.4875 8.33446 59.7429C6.46779 55.7762 12.7678 49.7095 11.3679 44.8095C10.5091 41.8032 5.53477 35.4762 4.36794 28.9429C3.68025 25.0924 5.06794 17.2762 9.96794 16.5762Z" fill="#FFBD80" fill-opacity="0.2"/>
<ellipse cx="33.1346" cy="63.4664" rx="21.4667" ry="1.4" fill="#FFA552"/>
<mask id="mask0_2361_138022" style="mask-type:alpha" maskUnits="userSpaceOnUse" x="18" y="44" width="15" height="21">
<path d="M19.3826 46.5383C19.5555 45.7603 19.9013 44.6797 20.7225 44.6797H30.4048C31.2261 44.6797 31.7016 45.4145 31.9177 46.5383C32.8487 51.3795 33.128 62.7968 31.9177 63.1365C26.9901 64.5197 23.6186 64.4765 19.3826 63.1365C18.2587 62.781 18.2779 51.5092 19.3826 46.5383Z" fill="white"/>
</mask>
<g mask="url(#mask0_2361_138022)">
<path d="M19.3826 46.5383C19.5555 45.7603 19.9013 44.6797 20.7225 44.6797H30.4048C31.2261 44.6797 31.7016 45.4145 31.9177 46.5383C32.8487 51.3795 33.128 62.7968 31.9177 63.1365C26.9901 64.5197 23.6186 64.4765 19.3826 63.1365C18.2587 62.781 18.2779 51.5092 19.3826 46.5383Z" fill="#EBFFFA" fill-opacity="0.8"/>
<path d="M18.7357 61.5801C18.995 63.5252 31.1411 64.1303 32.3514 61.8826L32.0056 64.3032L18.5195 64.6922L18.7357 61.5801Z" fill="#D9D9D9"/>
<path d="M29.3242 45.5012L31.5287 44.8096L35.0731 54.6215L32.3499 63.8716H30.2319C31.5287 61.2349 31.7629 45.5012 29.3242 45.5012Z" fill="#C3C3C3"/>
<path d="M20.2478 44.7666C19.4698 45.9769 22.7548 46.193 25.8238 46.2795C20.5072 47.1439 20.0749 45.5879 19.2969 46.5388L19.4698 45.2421L20.2478 44.7666Z" fill="white"/>
<path d="M26.0391 43.8584L30.2318 44.1177L31.226 44.8526C31.6582 45.4577 28.1832 45.8907 26.0391 45.7603V43.8584Z" fill="#C3C3C3"/>
<path d="M32.0195 55.356C32.0195 54.967 30.2906 54.5779 29.2532 53.5405C28.4751 52.7625 26.5732 52.9786 24.8875 51.7683C24.2391 51.3028 24.3688 50.4716 23.2882 50.2555C22.5966 50.1172 21.6024 50.9039 20.9973 51.0767C20.5218 51.2126 19.4844 51.4225 19.4844 51.9412L19.7438 52.9354L23.9366 55.4856L31.9331 55.9611L32.0195 55.356Z" fill="#5E534F"/>
<mask id="mask1_2361_138022" style="mask-type:alpha" maskUnits="userSpaceOnUse" x="19" y="51" width="14" height="13">
<path d="M32.0224 55.3561C30.8553 55.7452 30.207 54.9143 29.5154 54.8374C28.7373 54.751 27.6135 55.1311 26.4897 55.0536C25.2362 54.9671 24.3284 54.2647 23.6801 54.1026C23.1614 53.973 21.346 54.362 19.4873 51.9414C18.9671 56.1052 19.0983 59.4625 19.617 62.5314C24.1556 63.9578 28.1322 63.612 31.6766 62.5314C32.1953 59.9812 32.2818 57.7335 32.0224 55.3561Z" fill="white"/>
</mask>
<g mask="url(#mask1_2361_138022)">
<path d="M32.0224 55.3561C30.8553 55.7452 30.207 54.9143 29.5154 54.8374C28.7373 54.751 27.6135 55.1311 26.4897 55.0536C25.2362 54.9671 24.3284 54.2647 23.6801 54.1026C23.1614 53.973 21.346 54.362 19.4873 51.9414C18.9671 56.1052 19.0983 59.4625 19.617 62.5314C24.1556 63.9578 28.1322 63.612 31.6766 62.5314C32.1953 59.9812 32.2818 57.7335 32.0224 55.3561Z" fill="#403734"/>
<path d="M30.6219 51.8981L32.2212 51.293L32.6102 57.4308L32.1347 63.1365H30.4922C31.3076 58.9998 31.3135 56.8257 30.6219 51.8981Z" fill="#E5E5E5"/>
<path d="M18.7357 61.5801C18.995 63.5252 31.1411 64.1303 32.3514 61.8826L32.0056 64.3032L18.5195 64.6922L18.7357 61.5801Z" fill="#E5E5E5"/>
</g>
<path d="M19.6427 48.1813C20.0931 46.7549 22.0791 46.9563 21.5446 48.4838C20.9395 50.2128 20.8097 50.9909 20.5936 52.5037C20.4268 53.6708 19.2969 53.6708 19.2969 52.5037C19.2976 50.6949 19.124 49.8238 19.6427 48.1813Z" fill="white"/>
</g>
<mask id="mask2_2361_138022" style="mask-type:alpha" maskUnits="userSpaceOnUse" x="20" y="39" width="11" height="7">
<path d="M20.6797 40.1673C20.6797 39.9533 20.835 39.7714 21.0471 39.743C23.564 39.406 27.4448 39.27 30.2689 39.7331C30.474 39.7667 30.6213 39.9456 30.6213 40.1535V41.4001C30.6213 41.4534 30.6114 41.5063 30.5922 41.5561L30.4224 41.9948C30.3835 42.0951 30.3835 42.2064 30.4224 42.3068L30.5609 42.6647C30.5998 42.7651 30.5998 42.8764 30.5609 42.9768L30.4224 43.3347C30.3835 43.4351 30.3835 43.5464 30.4224 43.6468L30.5922 44.0854C30.6114 44.1352 30.6213 44.1881 30.6213 44.2415V44.8114C30.6213 45.0125 30.483 45.1875 30.2863 45.229C27.4589 45.8254 23.8736 45.8606 21.0105 45.2314C20.8158 45.1886 20.6797 45.0145 20.6797 44.815V44.2415C20.6797 44.1881 20.6896 44.1352 20.7088 44.0854L20.8786 43.6468C20.9175 43.5464 20.9175 43.4351 20.8786 43.3347L20.7401 42.9768C20.7012 42.8764 20.7012 42.7651 20.7401 42.6647L20.8786 42.3068C20.9175 42.2064 20.9175 42.0951 20.8786 41.9947L20.7088 41.5561C20.6896 41.5063 20.6797 41.4534 20.6797 41.4001V40.1673Z" fill="#D9D9D9"/>
</mask>
<g mask="url(#mask2_2361_138022)">
<path d="M20.6797 40.1673C20.6797 39.9533 20.8351 39.7714 21.0471 39.7429C23.5616 39.4058 27.4098 39.2699 30.2678 39.7336C30.4734 39.767 30.6213 39.9461 30.6213 40.1544V41.4001C30.6213 41.4534 30.6114 41.5063 30.5922 41.5561L30.4224 41.9948C30.3835 42.0951 30.3835 42.2064 30.4224 42.3068L30.5609 42.6647C30.5998 42.7651 30.5998 42.8764 30.5609 42.9768L30.4224 43.3347C30.3835 43.4351 30.3835 43.5464 30.4224 43.6468L30.5922 44.0854C30.6114 44.1352 30.6213 44.1881 30.6213 44.2415V44.8114C30.6213 45.0125 30.483 45.1875 30.2863 45.229C27.4589 45.8254 23.8736 45.8606 21.0105 45.2314C20.8158 45.1886 20.6797 45.0145 20.6797 44.815V44.2415C20.6797 44.1881 20.6896 44.1352 20.7088 44.0854L20.8786 43.6468C20.9175 43.5464 20.9175 43.4351 20.8786 43.3347L20.7401 42.9768C20.7012 42.8764 20.7012 42.7651 20.7401 42.6647L20.8786 42.3068C20.9175 42.2064 20.9175 42.0951 20.8786 41.9947L20.7088 41.5561C20.6896 41.5063 20.6797 41.4534 20.6797 41.4001V40.1673Z" fill="#D8D8D8"/>
<rect x="20.2461" y="39.709" width="1.64253" height="5.96498" fill="white"/>
<rect x="22.4062" y="40.0547" width="0.518694" height="5.96498" fill="white"/>
<rect x="23.3594" y="40.0547" width="2.76637" height="5.96498" fill="white"/>
<path d="M20.6797 41.8701C24.5122 42.1765 26.6014 42.3024 30.4916 41.8701V42.3888C26.6014 42.8211 24.4402 42.7778 20.6797 42.3888V41.8701Z" fill="#A7A7A7"/>
<path d="M20.6797 43.2529C24.5122 43.5593 26.6014 43.6852 30.4916 43.2529V43.7716C26.6014 44.2039 24.4402 44.1606 20.6797 43.7716V43.2529Z" fill="#A7A7A7"/>
<ellipse cx="25.6505" cy="39.8382" rx="4.97081" ry="0.38902" fill="white"/>
<ellipse cx="28.9359" cy="39.7954" rx="0.38902" ry="0.086449" fill="#505050"/>
<ellipse cx="22.5375" cy="39.8814" rx="0.38902" ry="0.086449" fill="#505050"/>
<ellipse cx="25.6507" cy="39.6226" rx="0.38902" ry="0.086449" fill="#505050"/>
<ellipse cx="25.7367" cy="39.9683" rx="0.38902" ry="0.086449" fill="#505050"/>
<ellipse cx="27.2914" cy="39.8814" rx="0.38902" ry="0.086449" fill="#505050"/>
<ellipse cx="24.0961" cy="39.8814" rx="0.38902" ry="0.086449" fill="#505050"/>
</g>
<mask id="mask3_2361_138022" style="mask-type:alpha" maskUnits="userSpaceOnUse" x="46" y="10" width="6" height="54">
<path d="M51.5872 23.1461C51.5872 18.7172 48.7776 20.792 48.7776 11.4122L46.4002 10.8936L46.0977 17.3772L47.6537 22.91V63.8868L51.2695 62.8934C51.4571 62.8419 51.5872 62.6713 51.5872 62.4766V23.1461Z" fill="#356349"/>
</mask>
<g mask="url(#mask3_2361_138022)">
<path d="M51.5872 23.1461C51.5872 18.7172 48.7776 20.792 48.7776 11.4122L46.4002 10.8936L46.0977 17.3772L47.6537 22.91V63.8868L51.2695 62.8934C51.4571 62.8419 51.5872 62.6713 51.5872 62.4766V23.1461Z" fill="#356349"/>
<path d="M47.5234 21.8294C49.1743 21.8294 49.4986 21.6636 51.1757 21.9409C51.2413 21.9518 51.2963 21.9997 51.3104 22.0646C51.3704 22.3414 51.3704 22.652 51.3704 22.9965V62.4112C51.3704 62.4908 51.3159 62.5602 51.2385 62.5791L47.6531 63.4546L47.5234 21.8294Z" fill="#EEBA00" fill-opacity="0.2"/>
<path d="M36.4581 60.6876C36.8903 61.336 37.0352 61.7334 37.9277 61.8115C39.3541 61.8115 40.6508 61.1199 41.9476 60.947C42.9849 60.8087 45.1894 60.6876 46.4861 60.947C47.1777 61.0853 47.9125 61.6818 48.8203 61.6818C49.9441 61.6818 51.1976 61.0334 51.5434 60.1689L52.1053 60.947L52.4943 63.1947L47.1777 64.5778L36.2852 63.7566L36.4581 60.6876Z" fill="#41522C"/>
</g>
<mask id="mask4_2361_138022" style="mask-type:alpha" maskUnits="userSpaceOnUse" x="36" y="10" width="12" height="54">
<path d="M36.6328 23.0396C36.6328 19.2358 40.6959 19.1061 40.6959 11.2825L43.5487 10.2451L46.4015 10.8935C46.4015 22.2183 47.6551 17.1178 47.6551 22.9099V63.8867L36.6328 63.5409V23.0396Z" fill="#316447"/>
</mask>
<g mask="url(#mask4_2361_138022)">
<path d="M36.6328 23.0396C36.6328 19.2358 40.6959 19.1061 40.6959 11.2825L43.5487 10.2451L46.4015 10.8935C46.4015 22.2183 47.6551 17.7662 47.6551 23.5583V63.8867L37.0515 63.554C36.8182 63.5467 36.6328 63.3554 36.6328 63.122V23.0396Z" fill="#617C3D"/>
<path d="M41.2582 12.7951C41.3778 12.0171 42.7278 12.19 42.7278 12.7951C42.7278 14.6105 41.993 15.9505 41.2582 16.9447C40.9387 17.3769 40.3505 17.2472 40.5233 16.7718C40.8691 15.8208 41.0853 13.919 41.2582 12.7951Z" fill="#839D63"/>
<path d="M37.4961 19.581L38.3606 18.9326C38.2734 19.5093 38.1877 20.0997 38.5335 20.4022C38.7928 20.6292 43.4178 16.9011 46.7461 20.8345C42.5966 17.3765 39.0954 21.2235 38.0148 21.2235C37.4961 21.2235 37.5527 20.3552 37.4961 19.581Z" fill="#839D63"/>
<path d="M36.8906 22.8418C36.8906 22.7712 36.9341 22.7074 36.9999 22.6818C40.1581 21.4557 43.1246 22.1282 47.6542 21.8291V63.4543L37.058 63.1139C36.9647 63.1109 36.8906 63.0344 36.8906 62.941V22.8418Z" fill="#EEBA00" fill-opacity="0.2"/>
<path d="M48.2615 35.7041V62.071L41.043 61.4659C44.9764 59.8666 47.4117 45.6501 48.2615 35.7041Z" fill="#707B28"/>
<path d="M39.0997 23.646C40.5499 23.1927 41.3912 23.0629 43.0763 23.646C43.595 25.8072 41.9216 38.9474 41.3041 40.2442C40.8719 41.1519 40.1803 40.979 39.8345 40.2442C39.0997 39.2068 38.7539 26.2394 39.0997 23.646Z" fill="#889435"/>
<path d="M36.4581 60.6876C36.8903 61.336 37.0352 61.7334 37.9277 61.8115C39.3541 61.8115 40.6508 61.1199 41.9476 60.947C42.9849 60.8087 45.1894 60.6876 46.4861 60.947C47.1777 61.0853 47.9125 61.6818 48.8203 61.6818C49.9441 61.6818 51.1976 61.0334 51.5434 60.1689L52.1053 60.947L52.4943 63.1947L47.1777 64.5778L36.2852 63.7566L36.4581 60.6876Z" fill="#646D26"/>
<path d="M37.2362 23.2555C37.2418 23.0418 37.1508 22.9562 36.9336 22.8232C37.3658 22.6503 38.5284 22.5476 39.6567 22.6503C38.7338 22.7978 38.0142 22.9529 38.0142 23.2555L37.8845 56.668C37.9184 57.9805 37.8853 58.8103 37.7113 59.689C37.6779 59.8576 37.4578 59.8655 37.4144 59.6992C37.1655 58.7464 37.1543 57.9301 37.1065 56.668L37.2362 23.2555Z" fill="#839D63"/>
<path d="M42.8555 22.5645C45.1031 22.8239 46.7889 23.0832 47.4805 22.2188C47.5336 22.4776 47.6396 22.9013 47.394 22.9968C45.838 23.6019 44.2819 23.1697 42.8555 22.5645Z" fill="#889435"/>
</g>
<mask id="mask5_2361_138022" style="mask-type:alpha" maskUnits="userSpaceOnUse" x="40" y="4" width="10" height="8">
<path d="M40.0938 5.34303C40.0938 5.12628 40.244 4.93848 40.4579 4.90334C42.5493 4.55977 46.7123 4.57041 48.9135 5.05939C49.1186 5.10496 49.2574 5.28987 49.2574 5.50003V5.52272C49.2574 5.64015 49.2107 5.75276 49.1277 5.83579L49.111 5.85245C49.0386 5.92481 48.998 6.02296 48.998 6.12529C48.998 6.2174 49.0309 6.30648 49.0909 6.37641L49.145 6.43953C49.2175 6.52411 49.2574 6.63184 49.2574 6.74325V7.06832C49.2574 7.13711 49.23 7.20307 49.1814 7.25171C49.0801 7.35299 49.0801 7.5172 49.1814 7.61848C49.23 7.66712 49.2574 7.73309 49.2574 7.80187V8.19216C49.2574 8.26094 49.23 8.32691 49.1814 8.37555C49.0801 8.47682 49.0801 8.64104 49.1814 8.74232C49.23 8.79096 49.2574 8.85692 49.2574 8.92571V9.36551C49.2574 9.42959 49.2289 9.49037 49.1797 9.53139C49.0821 9.61268 49.0754 9.76019 49.1652 9.84997L49.1862 9.87094C49.2318 9.91651 49.2574 9.97832 49.2574 10.0428V10.5473V11.2044C49.2574 11.4622 49.049 11.6711 48.7913 11.6711C46.1279 11.6706 42.7287 11.6631 40.5252 11.5276C40.2816 11.5126 40.0938 11.3095 40.0938 11.0654V10.8498V9.52408C40.0938 9.45963 40.1194 9.39782 40.1649 9.35224L40.1859 9.33127C40.2757 9.24149 40.269 9.09399 40.1714 9.0127C40.1222 8.97167 40.0938 8.9109 40.0938 8.84681V8.45023C40.0938 8.38145 40.1211 8.31549 40.1697 8.26685C40.271 8.16557 40.271 8.00136 40.1697 7.90008C40.1211 7.85144 40.0938 7.78547 40.0938 7.71669V7.3226C40.0938 7.25533 40.1156 7.18989 40.1559 7.13607L40.2289 7.03872C40.2964 6.94882 40.2744 6.82073 40.1809 6.75839C40.1265 6.72209 40.0938 6.66097 40.0938 6.59552V6.20889C40.0938 6.13549 40.12 6.0645 40.1678 6.00877L40.1882 5.98498C40.2812 5.8764 40.275 5.71449 40.1739 5.61337C40.1226 5.56205 40.0938 5.49244 40.0938 5.41987V5.34303Z" fill="#EEBA00"/>
</mask>
<g mask="url(#mask5_2361_138022)">
<path d="M40.0938 4.9713C42.1253 4.53906 47.0529 4.53905 49.2574 5.1442V5.70612L48.998 5.96546V6.26804L49.2574 6.57061V7.17575L48.998 7.4351L49.2574 7.69444V8.29959L48.998 8.55893L49.2574 8.81828V9.46665L48.998 9.68277L49.2574 9.94212V10.5473V11.6711C46.3613 11.6711 42.3846 11.6711 40.0938 11.4982V10.8498V9.42342L40.3531 9.16407L40.0938 8.94795V8.34281L40.3531 8.08346L40.0938 7.82412V7.21897L40.3531 6.87318L40.0938 6.70028V6.09514L40.3531 5.79257L40.0938 5.53322V4.9713Z" fill="#EEBA00"/>
<rect x="39.9219" y="4.23633" width="1.12384" height="7.60751" fill="#FFE352"/>
<rect x="41.9102" y="4.40918" width="2.33412" height="7.60751" fill="#FFE352"/>
<rect x="47.1367" y="4.66602" width="2.8" height="7.46667" fill="#D3A605"/>
<path d="M40.0078 5.6123C43.4021 5.83282 45.5021 5.83282 49.085 6.06634V6.41214C45.5021 6.06634 43.4021 6.06616 40.0078 5.9581V5.6123Z" fill="#CC8D2E"/>
<path d="M40.1367 6.82617C43.531 7.04668 45.631 7.04668 49.2139 7.2802V7.626C45.631 7.2802 43.531 7.28002 40.1367 7.17196V6.82617Z" fill="#CC8D2E"/>
<path d="M40.1367 7.93261C43.531 8.15313 45.631 8.15313 49.2139 8.38665V8.73244C45.631 8.38665 43.531 8.38646 40.1367 8.27841V7.93261Z" fill="#CC8D2E"/>
<path d="M40.1367 9.03906C43.531 9.25958 45.631 9.25958 49.2139 9.4931V9.83889C45.631 9.4931 43.531 9.49291 40.1367 9.38486V9.03906Z" fill="#CC8D2E"/>
<path d="M40.1331 4.66595L44.7998 4.43262L49.4664 4.80263V5.076C49.4664 5.36595 39.8996 5.36595 40.1331 4.93932V4.66595Z" fill="#FFE352"/>
</g>
<mask id="mask6_2361_138022" style="mask-type:alpha" maskUnits="userSpaceOnUse" x="26" y="45" width="16" height="20">
<path d="M27.7849 47.3128C27.9578 46.5347 28.3036 45.4541 29.1249 45.4541H38.8072C39.6284 45.4541 40.1039 46.1889 40.32 47.3128C41.251 52.1539 41.5303 63.5712 40.32 63.911C35.3924 65.2941 32.0209 65.2509 27.7849 63.911C26.6611 63.5555 26.6803 52.2836 27.7849 47.3128Z" fill="white"/>
</mask>
<g mask="url(#mask6_2361_138022)">
<path d="M27.7849 47.3128C27.9578 46.5347 28.3036 45.4541 29.1249 45.4541H38.8072C39.6284 45.4541 40.1039 46.1889 40.32 47.3128C41.251 52.1539 41.5303 63.5712 40.32 63.911C35.3924 65.2941 32.0209 65.2509 27.7849 63.911C26.6611 63.5555 26.6803 52.2836 27.7849 47.3128Z" fill="#EBFFFA" fill-opacity="0.8"/>
<path d="M27.138 62.3545C27.3973 64.2996 39.5434 64.9047 40.7537 62.6571L40.4079 65.0776L26.9219 65.4667L27.138 62.3545Z" fill="#D9D9D9"/>
<path d="M37.7266 46.2756L39.931 45.584L43.4754 55.3959L40.7523 64.646H38.6343C39.931 62.0093 40.1652 46.2756 37.7266 46.2756Z" fill="#C3C3C3"/>
<path d="M28.6502 45.541C27.8721 46.7513 31.1572 46.9674 34.2261 47.0539C28.9095 47.9184 28.4773 46.3623 27.6992 47.3132L27.8721 46.0165L28.6502 45.541Z" fill="white"/>
<path d="M34.4414 44.6328L38.6342 44.8922L39.6283 45.627C40.0606 46.2321 36.5856 46.6651 34.4414 46.5347V44.6328Z" fill="#C3C3C3"/>
<path d="M27.6992 56.1294C27.6992 55.7404 29.4282 55.3514 30.4656 54.314C31.2436 53.5359 33.1455 53.7521 34.8313 52.5418C35.4796 52.0763 35.35 51.245 36.4306 51.0289C37.1222 50.8906 38.1163 51.6773 38.7215 51.8502C39.1969 51.986 40.2343 52.196 40.2343 52.7147L39.975 53.7088L35.7822 56.2591L27.7857 56.7346L27.6992 56.1294Z" fill="white"/>
<mask id="mask7_2361_138022" style="mask-type:alpha" maskUnits="userSpaceOnUse" x="27" y="52" width="14" height="13">
<path d="M27.7002 56.1306C28.8673 56.5196 29.5157 55.6887 30.2073 55.6119C30.9853 55.5254 32.1092 55.9055 33.233 55.828C34.4865 55.7415 35.3942 55.0391 36.0426 54.877C36.5613 54.7474 38.3767 55.1364 40.2353 52.7158C40.7556 56.8796 40.6243 60.2369 40.1056 63.3058C35.5671 64.7322 31.5904 64.3864 28.046 63.3058C27.5273 60.7556 27.4409 58.5079 27.7002 56.1306Z" fill="white"/>
</mask>
<g mask="url(#mask7_2361_138022)">
<path d="M27.7002 56.1306C28.8673 56.5196 29.5157 55.6887 30.2073 55.6119C30.9853 55.5254 32.1092 55.9055 33.233 55.828C34.4865 55.7415 35.3942 55.0391 36.0426 54.877C36.5613 54.7474 38.3767 55.1364 40.2353 52.7158C40.7556 56.8796 40.6243 60.2369 40.1056 63.3058C35.5671 64.7322 31.5904 64.3864 28.046 63.3058C27.5273 60.7556 27.4409 58.5079 27.7002 56.1306Z" fill="#F6F6F6"/>
<path d="M39.0242 52.6725L40.6235 52.0674L41.0125 58.2053L40.5371 63.9109H38.8945C39.71 59.7742 39.7158 57.6001 39.0242 52.6725Z" fill="#E5E5E5"/>
<path d="M27.138 62.3545C27.3973 64.2996 39.5434 64.9047 40.7537 62.6571L40.4079 65.0776L26.9219 65.4667L27.138 62.3545Z" fill="#E5E5E5"/>
</g>
<path d="M28.045 48.9547C28.4955 47.5283 30.4815 47.7298 29.9469 49.2573C29.3418 50.9863 29.2121 51.7643 28.9959 53.2772C28.8292 54.4442 27.6992 54.4442 27.6992 53.2772C27.7 51.4683 27.5263 50.5972 28.045 48.9547Z" fill="white"/>
</g>
<mask id="mask8_2361_138022" style="mask-type:alpha" maskUnits="userSpaceOnUse" x="29" y="40" width="11" height="7">
<path d="M29.082 40.9417C29.082 40.7277 29.2374 40.5458 29.4494 40.5174C31.9663 40.1804 35.8472 40.0444 38.6713 40.5075C38.8764 40.5411 39.0237 40.72 39.0237 40.9279V42.1745C39.0237 42.2279 39.0138 42.2808 38.9945 42.3305L38.8247 42.7692C38.7859 42.8696 38.7859 42.9808 38.8247 43.0812L38.9633 43.4391C39.0021 43.5395 39.0021 43.6508 38.9633 43.7512L38.8247 44.1091C38.7859 44.2095 38.7859 44.3208 38.8247 44.4212L38.9945 44.8598C39.0138 44.9096 39.0237 44.9625 39.0237 45.0159V45.5858C39.0237 45.7869 38.8854 45.9619 38.6886 46.0034C35.8612 46.5998 32.2759 46.635 29.4129 46.0058C29.2181 45.963 29.082 45.7889 29.082 45.5895V45.0159C29.082 44.9625 29.0919 44.9096 29.1112 44.8598L29.281 44.4212C29.3198 44.3208 29.3198 44.2095 29.281 44.1091L29.1424 43.7512C29.1036 43.6508 29.1036 43.5395 29.1424 43.4391L29.281 43.0812C29.3198 42.9808 29.3198 42.8696 29.281 42.7692L29.1112 42.3305C29.0919 42.2807 29.082 42.2278 29.082 42.1745V40.9417Z" fill="#D9D9D9"/>
</mask>
<g mask="url(#mask8_2361_138022)">
<path d="M29.082 40.9417C29.082 40.7277 29.2374 40.5458 29.4495 40.5173C31.964 40.1802 35.8122 40.0443 38.6701 40.508C38.8757 40.5414 39.0237 40.7205 39.0237 40.9288V42.1745C39.0237 42.2279 39.0138 42.2808 38.9945 42.3305L38.8247 42.7692C38.7859 42.8696 38.7859 42.9808 38.8247 43.0812L38.9633 43.4391C39.0021 43.5395 39.0021 43.6508 38.9633 43.7512L38.8247 44.1091C38.7859 44.2095 38.7859 44.3208 38.8247 44.4212L38.9945 44.8598C39.0138 44.9096 39.0237 44.9625 39.0237 45.0159V45.5858C39.0237 45.7869 38.8854 45.9619 38.6886 46.0034C35.8612 46.5998 32.2759 46.635 29.4129 46.0058C29.2181 45.963 29.082 45.7889 29.082 45.5895V45.0159C29.082 44.9625 29.0919 44.9096 29.1112 44.8598L29.281 44.4212C29.3198 44.3208 29.3198 44.2095 29.281 44.1091L29.1424 43.7512C29.1036 43.6508 29.1036 43.5395 29.1424 43.4391L29.281 43.0812C29.3198 42.9808 29.3198 42.8696 29.281 42.7692L29.1112 42.3305C29.0919 42.2807 29.082 42.2278 29.082 42.1745V40.9417Z" fill="#D8D8D8"/>
<rect x="28.6484" y="40.4834" width="1.64253" height="5.96498" fill="white"/>
<rect x="30.8086" y="40.8291" width="0.518694" height="5.96498" fill="white"/>
<rect x="31.7617" y="40.8291" width="2.76637" height="5.96498" fill="white"/>
<path d="M29.082 42.6445C32.9145 42.9509 35.0038 43.0768 38.894 42.6445V43.1632C35.0038 43.5955 32.8426 43.5522 29.082 43.1632V42.6445Z" fill="#A7A7A7"/>
<path d="M29.082 44.0273C32.9145 44.3337 35.0038 44.4596 38.894 44.0273V44.546C35.0038 44.9783 32.8426 44.9351 29.082 44.546V44.0273Z" fill="#A7A7A7"/>
<ellipse cx="34.0528" cy="40.6127" rx="4.97081" ry="0.38902" fill="white"/>
<ellipse cx="37.3382" cy="40.5698" rx="0.38902" ry="0.086449" fill="#505050"/>
<ellipse cx="30.9398" cy="40.6558" rx="0.38902" ry="0.086449" fill="#505050"/>
<ellipse cx="34.0531" cy="40.397" rx="0.38902" ry="0.086449" fill="#505050"/>
<ellipse cx="34.139" cy="40.7427" rx="0.38902" ry="0.086449" fill="#505050"/>
<ellipse cx="35.6937" cy="40.6558" rx="0.38902" ry="0.086449" fill="#505050"/>
<ellipse cx="32.4984" cy="40.6558" rx="0.38902" ry="0.086449" fill="#505050"/>
</g>
</svg>
