<svg width="22" height="21" viewBox="0 0 22 21" fill="none" xmlns="http://www.w3.org/2000/svg">
<path d="M10.6418 19.3259C10.7421 19.4795 10.8298 19.6315 10.9036 19.7818C10.9427 19.8615 11.0623 19.8651 11.1032 19.7864C12.8073 16.5134 21.001 12.6595 21.001 6.72289C21.001 3.56223 18.5137 1 15.4455 1C13.6765 1 12.1006 1.85172 11.0831 3.17879C11.0419 3.23258 10.9601 3.23258 10.9189 3.17879C9.90148 1.85172 8.32559 1 6.55658 1C3.60506 1 1.19112 3.37097 1.01172 6.36486" stroke="#505050" stroke-linecap="round"/>
<path d="M1.5 10.9157C1.5 8.99036 2.93024 7.5 4.61111 7.5C5.56983 7.5 6.43784 7.9774 7.01542 8.74852C7.25728 9.0714 7.74272 9.0714 7.98457 8.74852C8.56216 7.9774 9.43017 7.5 10.3889 7.5C12.0698 7.5 13.5 8.99036 13.5 10.9157C13.5 12.5165 12.5691 13.9157 11.328 15.2238C10.7661 15.816 10.1597 16.3704 9.57219 16.9076C9.51541 16.9595 9.45881 17.0112 9.40244 17.0628C8.77296 17.6392 8.16297 18.2061 7.70723 18.7559C7.70552 18.7574 7.69389 18.767 7.66459 18.7778C7.62615 18.792 7.57289 18.8019 7.51244 18.8013C7.452 18.8007 7.39863 18.7897 7.35997 18.7746C7.32938 18.7627 7.31768 18.7523 7.31628 18.7511C6.86782 18.1927 6.26017 17.6136 5.62945 17.0254C5.54754 16.949 5.4651 16.8723 5.38229 16.7953C4.81722 16.2698 4.23545 15.7288 3.69303 15.1562C2.43704 13.8304 1.5 12.4427 1.5 10.9157Z" fill="white" stroke="#4EA04C"/>
</svg>
