<svg width="70" height="70" viewBox="0 0 70 70" fill="none" xmlns="http://www.w3.org/2000/svg">
<rect width="70" height="70" fill="white"/>
<path d="M11.2012 8.16669C10.7346 5.36669 14.0015 3.96667 16.3347 5.83335C17.1162 6.45858 18.2012 8.42565 18.2012 9.56668C18.2012 12.1334 16.1014 13.0667 14.0012 11.6667C12.7392 10.8254 11.4136 9.44134 11.2012 8.16669Z" fill="#A4DF75" fill-opacity="0.2"/>
<path d="M64.6086 22.1952C66.0086 20.7952 68.5752 21.4952 68.3419 23.5952C68.1429 25.3863 66.9419 26.6285 65.3086 27.7952C63.9083 28.7953 64.1421 28.2618 64.1419 26.1618C64.1418 25.3835 63.4417 23.3618 64.6086 22.1952Z" fill="#A4DF75" fill-opacity="0.2"/>
<path d="M10.0343 16.7998C13.301 16.3332 22.8677 18.1998 26.601 16.3332C29.401 14.9332 39.4343 6.74314 48.301 6.29983C52.9677 6.0665 59.5593 10.0332 60.201 15.1665C60.6677 18.8998 58.801 22.8198 60.201 28.6998C61.0343 32.1998 67.6677 38.4998 66.501 46.8998C65.5295 53.8946 57.1677 61.1332 49.001 62.9998H15.8675C13.5342 62.9998 9.69245 62.7111 8.40087 59.9665C6.5342 55.9998 12.8342 49.9332 11.4343 45.0332C10.5755 42.0268 5.60117 35.6998 4.43434 29.1665C3.74666 25.316 5.13434 17.4998 10.0343 16.7998Z" fill="#A4DF75" fill-opacity="0.2"/>
<ellipse cx="33.8357" cy="63.4669" rx="25.4333" ry="1.13881" fill="#4EA04C"/>
<path d="M37.5692 9.33346C38.2692 9.10013 38.6614 9.28703 38.9692 9.80013C38.7359 9.10013 38.7359 7.4668 39.9025 7.4668C40.6025 7.4668 41.0692 7.93346 41.3025 8.40013C41.5359 9.10013 41.6187 9.74897 41.5359 10.9668C41.7181 10.7846 41.8633 10.2216 42.0025 10.5001C42.2359 10.9668 41.0692 13.0668 41.3025 13.3001C41.5359 13.5335 42.4692 12.5224 42.9359 13.3001C43.6359 14.4668 40.6392 16.1368 40.8359 16.3335C41.0692 16.5668 41.8398 15.4942 42.4692 16.3335C43.1692 17.2668 40.373 18.6897 38.5025 19.6001H38.2692C37.3359 19.1335 35.4692 17.0335 36.1692 16.3335C36.4025 16.1001 36.8692 16.1001 37.3359 16.1001C36.8692 15.4001 35.9359 13.3001 36.4025 12.8335C36.6359 12.6001 37.2098 12.6462 37.5692 13.0668C37.387 12.4289 36.8692 11.6668 37.1025 11.4335C37.3359 11.2001 37.5692 11.6668 37.5692 11.6668C37.3359 10.9668 36.8692 9.5668 37.5692 9.33346Z" fill="#6CC04F"/>
<path d="M44.3378 21.933C45.8868 20.8395 47.3711 19.133 48.3044 19.133C48.7711 19.133 48.7711 19.833 49.2378 19.833C50.1711 19.3663 52.1313 17.1846 52.7378 17.033C53.6711 16.7997 53.9044 17.4997 54.1378 17.9663C54.1378 17.4997 54.6044 16.333 55.3044 16.333C56.0044 16.333 56.0044 17.2663 56.0044 17.733C56.3689 17.3685 56.4711 16.7997 56.9378 16.7997C57.6378 16.7997 57.1711 17.733 57.1711 17.9663C57.7421 17.8208 58.5711 17.733 58.5711 17.9663C58.5711 18.1997 58.1445 18.2508 57.8711 18.433C58.3378 18.1997 59.0119 18.0443 59.2711 18.433C59.7378 19.133 59.2711 20.2997 58.5711 20.9997C57.4044 21.933 56.6269 21.7206 55.5378 21.4663C56.0044 21.933 56.5978 23.4943 55.0711 23.7997C53.5444 24.105 53.6711 23.0997 52.9711 22.3997C53.0622 22.9464 53.6711 23.5663 53.2044 23.7997C52.2711 24.033 48.6586 21.7372 48.0711 21.933C47.3711 22.1663 47.1378 22.8663 46.2044 22.8663C45.2711 22.8663 45.0378 22.3997 43.8711 22.3997L44.3378 21.933Z" fill="#5EA246"/>
<path d="M42.3515 16.4435C42.6014 15.9161 42.1654 14.0369 42.6014 13.8068C43.1012 13.5431 43.3511 16.1798 44.3507 15.6525C45.3503 14.8615 44.1008 13.0158 44.6006 12.4885C44.8505 12.2248 44.8505 13.2795 45.1004 13.2795C44.8505 11.9611 45.1004 9.58812 46.0999 9.58814C46.5997 9.58812 46.7188 11.1135 46.8496 12.2248C47.1424 10.6803 46.8496 9.32445 47.5993 8.2698C48.5989 6.95147 50.3481 7.47878 50.8479 8.2698C51.2701 8.85212 51.4572 9.2347 51.5976 10.1155C51.8475 10.1155 51.8475 8.79713 52.5972 8.79713C53.097 8.79713 52.993 10.0151 52.8471 10.9065C53.3469 10.6428 53.8466 10.3791 54.0965 10.9065C54.3464 11.4338 53.335 11.5493 52.8471 11.9611C53.0422 12.0641 53.3469 11.9611 53.3469 12.2248C53.3469 12.4885 52.9179 12.5279 52.8471 12.7521C52.5972 13.5431 53.3469 13.2795 53.3469 13.5431C53.3469 14.0705 52.4306 14.3342 52.3473 14.5978C52.0974 15.3888 53.3469 15.0459 53.3469 16.1798C53.3469 16.7072 51.8912 17.0481 50.8479 17.2345C51.3477 17.4982 51.8475 17.4481 51.8475 17.7618C51.8475 18.2892 48.5989 18.8165 46.3498 18.8165C46.4439 19.1265 46.683 19.3438 46.5997 19.6075C46.3498 20.3985 44.0717 20.6057 42.0024 20.5335L41.0028 20.5335C41.5026 19.7425 40.6023 18.2892 41.1021 17.4982C41.352 16.9708 42.1773 16.8111 42.3515 16.4435Z" fill="#6CC04F"/>
<path d="M39.4362 15.8672C38.2695 20.7672 39.206 22.2749 35.7029 26.3672L34.7695 25.9005C38.1273 21.7611 37.3362 21.4672 39.4362 15.8672Z" fill="#4FA04F"/>
<path d="M48.0677 21.2334C43.1677 22.8667 39.3414 23.3334 36.1677 27.0667L35.2344 26.6001C38.5922 22.4607 43.1677 21.9334 48.0677 21.2334Z" fill="#4B874B"/>
<path d="M46.201 16.7998C41.8326 20.5281 39.6708 22.7408 36.1677 26.8331L35.2344 26.3665C38.5922 22.2271 40.8419 20.0419 46.201 16.7998Z" fill="#4FA04F"/>
<mask id="mask0_2359_137149" style="mask-type:alpha" maskUnits="userSpaceOnUse" x="12" y="25" width="27" height="39">
<path d="M28.4701 27.0138C32.9034 22.5805 40.2732 27.0138 38.0371 32.3805C33.7593 42.6472 21.4699 51.7472 15.6367 59.2138C14.543 60.6138 14.0034 60.8472 13.3034 61.5472C12.6034 62.2472 12.8368 62.7138 12.1367 63.8805C12.1368 62.7138 12.1742 61.4722 12.6034 60.6138C13.0701 59.6805 13.5369 59.0515 13.7702 58.5138C19.137 46.1472 21.2215 34.2624 28.4701 27.0138Z" fill="#FFAA5C"/>
</mask>
<g mask="url(#mask0_2359_137149)">
<path d="M28.4701 27.0138C32.9034 22.5805 40.2732 27.0138 38.0371 32.3805C33.7593 42.6472 21.4699 51.7472 15.6367 59.2138C14.543 60.6138 14.0034 60.8472 13.3034 61.5472C12.6034 62.2472 12.8368 62.7138 12.1367 63.8805C12.1368 62.7138 12.1742 61.4722 12.6034 60.6138C13.0701 59.6805 13.5369 59.0515 13.7702 58.5138C19.137 46.1472 21.2215 34.2624 28.4701 27.0138Z" fill="#FFA048"/>
<path d="M38.9685 28L39.4352 33.8334L40.1352 41.0667L16.1018 61.3667H13.5352C16.536 57.7649 18.3624 55.8186 21.0018 52.0334C21.0018 51.3334 19.6717 51.1936 19.8352 50.8667C20.0685 50.4 21.3423 50.2696 22.1685 50.4C24.4182 48.2149 25.9199 46.7662 28.0018 44.3334C28.0018 43.6334 25.9018 43.1667 26.1352 42.7C26.3685 42.2334 28.1797 42.1577 29.6352 42.4667C31.1956 41.2037 31.7955 40.3066 32.9018 38.7334C32.6685 38.0334 30.5266 36.4419 30.8018 36.1667C31.0352 35.9334 32.0817 35.9334 32.9018 35.9334C32.8107 35.5689 32.4756 35.1929 32.6685 35C32.9018 34.7667 34.3357 35.091 35.2352 35.4667C35.9641 34.0442 36.6591 32.595 37.1018 31.2667C37.5685 29.8667 35.0018 28.7 35.4685 27.7667C35.6161 27.4716 38.0352 28.4667 38.9685 28Z" fill="#FF8A1E"/>
<path d="M30.1092 23.3979C30.2414 23.2241 30.4765 23.1653 30.675 23.2562L33.413 24.5112C33.8915 24.7305 33.6895 25.5596 33.1688 25.6364C33.0991 25.6466 33.0285 25.6581 32.9567 25.6707C32.5641 25.7398 32.4563 26.2794 32.7206 26.5778C33.1747 27.0903 33.5214 27.6953 33.3687 28.0006C33.146 28.446 31.4467 27.8936 30.0639 27.9832C29.9387 27.9914 29.8254 28.0564 29.7483 28.1554L28.4419 29.8351C28.3186 29.9936 28.3112 30.2128 28.4178 30.3831C29.2846 31.7678 30.0716 33.6311 29.6354 34.0673C29.2059 34.4968 27.76 33.5333 26.4668 33.0219C26.2725 32.9451 26.0537 33.0204 25.9374 33.194C24.7516 34.9642 24.1875 36.0619 23.6196 37.8703C23.5865 37.9757 23.5927 38.0896 23.636 38.1912C24.3265 39.8133 25.1873 42.0154 24.7354 42.4673C24.3368 42.8659 23.4313 42.334 22.5908 41.8019C22.3623 41.6573 22.0598 41.7363 21.9323 41.9748C20.732 44.219 20.0367 45.6442 19.178 48.1746C19.1503 48.2564 19.1455 48.3451 19.1659 48.429C19.4456 49.5764 19.9231 50.7796 19.6021 51.1006C19.3098 51.3929 18.654 50.9922 18.005 50.8899C17.8396 50.8639 17.6837 50.9569 17.6026 51.1034C16.7685 52.6096 16.2228 54.0469 15.4626 55.8568C15.4234 55.95 15.4155 56.0533 15.4389 56.1517C15.6587 57.0781 15.8565 58.3462 15.6354 58.5673C15.52 58.6827 15.3031 58.4508 15.0627 58.2032C14.8761 58.011 14.5793 58.0559 14.449 58.29C14.0009 59.0949 13.4181 60.357 12.8354 61.1339C12.2564 61.906 12.239 62.5948 12.2139 63.3672C12.2008 63.7693 11.7291 63.9131 11.4716 63.604L11.1198 63.1819C11.0248 63.0679 10.9897 62.9155 11.0252 62.7715L14.9206 46.9608C14.9304 46.9208 14.9455 46.8824 14.9654 46.8464L22.1524 33.8635C22.1633 33.8438 22.1756 33.8249 22.1892 33.807L30.1092 23.3979Z" fill="#FFB35A"/>
<path d="M29.8711 29.4191C31.2404 29.3158 32.4378 29.6525 33.3711 30.1191C34.3044 30.5858 34.7357 31.4275 35.4711 32.6858C33.7837 30.6928 32.5153 30.0313 29.8711 29.4191Z" fill="#E58022"/>
<path d="M35.9364 28.329C36.8696 28.329 37.803 29.029 38.0363 29.729C38.2696 30.429 38.5029 31.129 38.5029 32.7624C38.0361 30.1957 37.5696 29.029 35.9364 28.329Z" fill="#E58022"/>
<path d="M26.8203 27.3017C28.0004 26.7783 27.9597 25.7676 28.9745 26.0532C29.9892 26.3389 31.4527 26.3725 32.2308 27.4388C29.8196 26.2439 28.5421 26.8623 26.8203 27.3017Z" fill="#E58022"/>
<path d="M33.3233 35.6313C34.4522 35.8271 35.3294 36.4085 35.9607 37.0579C36.5921 37.7073 36.7228 38.6087 36.9912 39.9757C36.1454 37.6979 35.2944 36.7891 33.3233 35.6313Z" fill="#E58022"/>
<path d="M23.5426 30.8337C24.6429 30.5142 25.6863 30.6516 26.5386 30.958C27.3909 31.2643 27.904 32.0169 28.7452 33.1274C26.9854 31.4519 25.8219 31.0089 23.5426 30.8337Z" fill="#E58022"/>
<path d="M31.4339 36.4187C32.5733 36.5391 33.4872 37.061 34.1603 37.667C34.8333 38.273 35.0236 39.1637 35.3822 40.5099C34.387 38.2933 33.4776 37.443 31.4339 36.4187Z" fill="#E58022"/>
<path d="M26.7252 42.7891C27.8708 42.7683 28.842 43.1736 29.5846 43.6921C30.3271 44.2106 30.6257 45.0711 31.1474 46.3629C29.8867 44.2857 28.8795 43.554 26.7252 42.7891Z" fill="#E58022"/>
<path d="M20.3047 44.8006C21.4458 44.6978 22.0547 44.8006 22.4047 45.0339C22.7547 45.2672 23.338 45.7339 23.8047 47.1339C22.8714 45.9672 21.7047 45.0339 20.3047 44.8006Z" fill="#E58022"/>
<path d="M16.3359 53.6902C17.0359 53.4334 17.5493 53.5526 17.7359 53.6902C17.9226 53.8279 18.2026 54.3667 18.2026 55.0667C17.7359 53.9001 17.0359 53.6902 16.3359 53.6902Z" fill="#E58022"/>
<path d="M13.5352 56.618C14.2352 56.3612 14.7485 56.4803 14.9352 56.618C15.1218 56.7556 15.4018 57.2945 15.4018 57.9945C14.9352 56.8278 14.2352 56.618 13.5352 56.618Z" fill="#E58022"/>
<path d="M20.0703 50.907C21.2114 50.8042 21.8203 50.907 22.1703 51.1403C22.5203 51.3737 23.1036 51.8403 23.5703 53.2403C22.637 52.0737 21.4703 51.1403 20.0703 50.907Z" fill="#E58022"/>
<path d="M15.4023 48.1062C16.5435 48.0034 17.1523 48.1062 17.5023 48.3396C17.8524 48.5729 18.4357 49.0396 18.9023 50.4396C17.969 49.2729 16.8023 48.3396 15.4023 48.1062Z" fill="#E58022"/>
<path d="M18.9978 38.5117C20.1243 38.3022 21.1491 38.5419 21.967 38.9308C22.7849 39.3197 23.2213 40.1192 23.9489 41.3072C22.3629 39.4664 21.2488 38.9108 18.9978 38.5117Z" fill="#E58022"/>
<path d="M24.1229 36.1875C25.2485 35.9737 26.2742 36.2095 27.0936 36.5953C27.913 36.9811 28.3524 37.7789 29.0845 38.9642C27.4915 37.1294 26.3753 36.578 24.1229 36.1875Z" fill="#E58022"/>
</g>
<path d="M37.5664 28.001L41.9997 28.9343L41.7664 29.1676L37.5664 28.4676C37.6125 28.3287 37.6136 28.2276 37.5664 28.001Z" fill="#6CC04F"/>
<mask id="mask1_2359_137149" style="mask-type:alpha" maskUnits="userSpaceOnUse" x="35" y="26" width="3" height="11">
<path d="M35.5354 27.4586C35.7417 26.455 37.987 26.6647 37.6132 28.1846C37.5392 29.5093 37.5287 30.5225 37.4237 31.5767C37.3505 32.311 37.6811 32.7146 37.7326 32.9422C37.7841 33.1698 37.693 33.9772 37.5863 34.4107C37.4617 34.9173 37.636 35.2743 37.6679 35.8276L36.6329 36.5402C36.2208 34.7196 36.294 33.9854 36.0365 32.8475C35.8136 31.8618 35.6761 31.2544 35.8008 30.7477C35.9254 30.2411 35.9903 29.8862 35.9987 29.5068C36.0201 28.545 35.4105 27.9653 35.5354 27.4586Z" fill="#CB7F6E"/>
</mask>
<g mask="url(#mask1_2359_137149)">
<path d="M35.5354 27.4586C35.7417 26.455 37.987 26.6647 37.6132 28.1846C37.5392 29.5093 37.5287 30.5225 37.4237 31.5767C37.3505 32.311 37.6811 32.7146 37.7326 32.9422C37.7841 33.1698 37.693 33.9772 37.5863 34.4107C37.4617 34.9173 37.636 35.2743 37.6679 35.8276L36.6329 36.5402C36.2208 34.7196 36.294 33.9854 36.0365 32.8475C35.8136 31.8618 35.6761 31.2544 35.8008 30.7477C35.9254 30.2411 35.9903 29.8862 35.9987 29.5068C36.0201 28.545 35.4105 27.9653 35.5354 27.4586Z" fill="#CB7F6E"/>
<path d="M36.8633 27.0684H38.7299V35.1566L37.3299 36.635C37.2388 35.8149 37.0188 35.0017 37.0966 34.535C37.1877 33.9883 37.3299 33.835 37.3299 33.135C37.3299 32.696 36.8633 32.2017 36.8633 31.2684C36.8633 30.2851 37.3299 28.935 36.8633 27.0684Z" fill="#A16558"/>
<path d="M35.9297 26.1348H36.8631L38.0298 26.8348L37.5631 27.3014C38.0298 29.1681 35.2297 28.7014 35.4631 27.0681L35.9297 26.1348Z" fill="#DE9A8B"/>
<path d="M35.6984 27.5346C35.9317 26.6012 37.3316 26.8345 37.5651 27.5346C37.7127 27.9772 37.3496 28.067 37.0983 28.2345C36.3982 28.7012 35.6087 27.8929 35.6984 27.5346Z" fill="#CB7F6E"/>
<path d="M35.9699 27.5347C36.1412 26.8499 37.1684 27.0211 37.3397 27.5347C37.4481 27.8596 37.1816 27.9255 36.9972 28.0484C36.4835 28.3908 35.9041 27.7977 35.9699 27.5347Z" fill="#DE9A8B"/>
<path d="M36.1832 27.5346C36.2974 27.078 36.9822 27.1921 37.0964 27.5346C37.1686 27.7511 36.991 27.7951 36.8681 27.877C36.5256 28.1053 36.1393 27.7099 36.1832 27.5346Z" fill="#CB7F6E"/>
</g>
<mask id="mask2_2359_137149" style="mask-type:alpha" maskUnits="userSpaceOnUse" x="23" y="32" width="31" height="32">
<path d="M25.9022 37.1005C29.6357 33.1338 34.7689 36.1205 36.8689 35.7005C39.2022 35.2338 41.0689 30.8005 47.1356 32.4338C54.6022 34.4441 56.7022 54.8338 49.2356 60.6672C47.2701 62.2027 42.7021 61.6472 41.7689 61.8338C40.6021 62.0672 37.3355 63.9338 34.5356 63.2338C27.0687 61.3672 19.3687 44.0417 25.9022 37.1005Z" fill="#F25C5C"/>
</mask>
<g mask="url(#mask2_2359_137149)">
<path d="M25.9022 37.1005C29.6357 33.1338 34.7689 36.1205 36.8689 35.7005C39.2022 35.2338 41.0689 30.8005 47.1356 32.4338C54.6022 34.4441 56.7022 54.8338 49.2356 60.6672C47.2701 62.2027 42.7021 61.6472 41.7689 61.8338C40.6021 62.0672 37.3355 63.9338 34.5356 63.2338C27.0687 61.3672 19.3687 44.0417 25.9022 37.1005Z" fill="#FE6D6D"/>
<path d="M32.4349 35.0003L47.6016 28.9336L58.1016 41.3003L52.0349 62.7669L32.6682 63.9336L26.6016 56.4669C31.5016 59.9669 34.0682 59.2222 37.3349 55.5336C39.4013 53.2003 49.8882 41.3003 45.9682 36.4003C43.1682 32.9003 41.0682 35.9336 39.4349 35.9336C36.7626 35.9336 35.7984 36.1748 32.4349 35.0003Z" fill="#F35454"/>
<path d="M43.8672 31.7337L56.9339 29.4004V60.9004L45.7339 61.8337C51.8005 57.4004 54.6005 37.3337 43.8672 31.7337Z" fill="#DB3C3C"/>
<path d="M28.0008 36.8669C33.1341 34.3003 32.6675 39.3752 35.0009 39.6669C36.4007 39.8419 38.9674 36.8669 42.0009 38.7336C45.5557 40.921 40.9895 44.3886 38.5007 46.6669C34.4225 50.4003 26.3674 53.2003 24.9675 45.5003C24.4325 42.5581 25.2007 38.2669 28.0008 36.8669Z" fill="#FF8686"/>
<path d="M29.1671 37.1001C30.8003 36.1815 32.267 37.6028 30.8003 38.5001C27.2791 40.6544 26.8449 42.4102 26.8337 46.6668C26.8312 47.6001 26.1337 47.8334 25.9003 47.1334C24.9888 42.7677 25.4337 39.2001 29.1671 37.1001Z" fill="#FF9696"/>
<path d="M34.2748 36.2221C35.4414 36.4554 36.1414 36.6888 37.308 36.4554C38.4747 35.9887 39.1747 35.0554 40.108 34.5887C40.526 34.3798 40.6914 34.8221 40.3414 35.0554C39.6414 35.5221 38.3931 36.9058 37.5414 37.1554C36.984 37.3187 35.4415 37.1554 34.0415 36.9221C33.3413 36.8054 33.5193 36.071 34.2748 36.2221Z" fill="#FF9696"/>
<circle cx="48.0682" cy="41.0673" r="0.466667" fill="#FF8686"/>
<circle cx="41.7703" cy="52.034" r="0.7" fill="#FF8686"/>
<circle cx="35.9354" cy="56.4667" r="0.466667" fill="#FF8686"/>
<circle cx="32.201" cy="59.7342" r="0.466667" fill="#FF8686"/>
<circle cx="48.537" cy="52.2674" r="0.466667" fill="#FF8686"/>
<circle cx="46.9031" cy="46.4334" r="0.7" fill="#FF8686"/>
<circle cx="44.1023" cy="38.034" r="0.7" fill="#FF8686"/>
<circle cx="41.7703" cy="58.1004" r="0.7" fill="#FF8686"/>
<circle cx="30.5672" cy="52.9676" r="0.7" fill="#FF8686"/>
</g>
<mask id="mask3_2359_137149" style="mask-type:alpha" maskUnits="userSpaceOnUse" x="41" y="26" width="17" height="16">
<path fill-rule="evenodd" clip-rule="evenodd" d="M47.0867 27.4614C47.5053 27.3028 47.9089 27.196 48.4838 27.0721L49.3555 26.8542C49.5322 26.81 49.7034 26.9437 49.7034 27.1258V27.2339L50.2888 27.0875C50.4655 27.0434 50.6367 27.177 50.6367 27.3592V27.4672L51.2221 27.3209C51.3989 27.2767 51.5701 27.4103 51.5701 27.5925V27.7661H52.2234C52.378 27.7661 52.5034 27.8914 52.5034 28.0461V28.2327H53.1567C53.3114 28.2327 53.4367 28.3581 53.4367 28.5127V28.7506L54.1369 28.9256C54.3107 28.969 54.3995 29.1622 54.3194 29.3225L54.2164 29.5284L54.8832 29.8617C55.053 29.9467 55.0906 30.172 54.9586 30.3075L55.6337 30.8138C55.77 30.916 55.7841 31.1153 55.6637 31.2358L55.6334 31.2661L56.1354 31.7681C56.2444 31.8771 56.2447 32.0537 56.1363 32.1631L56.5521 32.4404C56.6991 32.5384 56.7197 32.7464 56.5948 32.8713L56.3696 33.0965L56.7855 33.3737C56.9325 33.4717 56.9531 33.6797 56.8281 33.8046L56.5667 34.0661L57.0559 34.5553C57.1911 34.6904 57.1541 34.9183 56.9832 35.0037L56.8245 35.0831L57.3324 35.7604C57.416 35.8718 57.405 36.0278 57.3064 36.1263L56.9873 36.4455L57.3579 37.1866C57.427 37.325 57.371 37.4932 57.2327 37.5623L56.9887 37.6843L57.1453 38.1539C57.1893 38.2861 57.1295 38.4306 57.0049 38.4929L56.7554 38.6176L56.9119 39.0872C56.956 39.2194 56.8962 39.3639 56.7715 39.4262L56.5221 39.5509L56.6709 39.9975C56.7314 40.1788 56.5964 40.3661 56.4053 40.3661H56.2367V41.1538C56.2367 41.4262 55.8872 41.5382 55.7289 41.3165L55.5436 41.0572C55.5412 41.06 55.5388 41.0629 55.5363 41.0657C55.4275 40.9035 55.3191 40.7455 55.211 40.5916L54.9709 40.2553C51.8631 35.9825 48.9623 35.0588 43.0987 35.633C42.6867 35.6734 42.2479 35.6367 41.9304 35.3709C41.0653 34.6466 41.2887 33.4747 41.5295 32.2124C41.6475 31.5934 41.7697 30.9527 41.7697 30.3324C41.7697 29.6323 41.7697 29.399 41.5363 28.9324C42.5328 28.9323 43.0186 28.7621 43.5753 28.5671C43.6704 28.5338 43.7675 28.4997 43.8697 28.4657C44.9296 27.9839 46.0293 27.6406 47.0867 27.4614ZM56.8465 35.9263L56.862 35.9108L56.8433 35.886C56.8444 35.8994 56.8455 35.9129 56.8465 35.9263ZM56.1 32.7062L56.1038 32.7023L56.0965 32.6975C56.0977 32.7004 56.0988 32.7033 56.1 32.7062Z" fill="#6CC04F"/>
</mask>
<g mask="url(#mask3_2359_137149)">
<path fill-rule="evenodd" clip-rule="evenodd" d="M47.0867 27.4614C47.5053 27.3028 47.9089 27.196 48.4838 27.0721L49.3555 26.8542C49.5322 26.81 49.7034 26.9437 49.7034 27.1258V27.2339L50.2888 27.0875C50.4655 27.0434 50.6367 27.177 50.6367 27.3592V27.4672L51.2221 27.3209C51.3989 27.2767 51.5701 27.4103 51.5701 27.5925V27.7661H52.2234C52.378 27.7661 52.5034 27.8914 52.5034 28.0461V28.2327H53.1567C53.3114 28.2327 53.4367 28.3581 53.4367 28.5127V28.7506L54.1369 28.9256C54.3107 28.969 54.3995 29.1622 54.3194 29.3225L54.2164 29.5284L54.8832 29.8617C55.053 29.9467 55.0906 30.172 54.9586 30.3075L55.6337 30.8138C55.77 30.916 55.7841 31.1153 55.6637 31.2358L55.6334 31.2661L56.1354 31.7681C56.2444 31.8771 56.2447 32.0537 56.1363 32.1631L56.5521 32.4404C56.6991 32.5384 56.7197 32.7464 56.5948 32.8713L56.3696 33.0965L56.7855 33.3737C56.9325 33.4717 56.9531 33.6797 56.8281 33.8046L56.5667 34.0661L57.0559 34.5553C57.1911 34.6904 57.1541 34.9183 56.9832 35.0037L56.8245 35.0831L57.3324 35.7604C57.416 35.8718 57.405 36.0278 57.3064 36.1263L56.9873 36.4455L57.3579 37.1866C57.427 37.325 57.371 37.4932 57.2327 37.5623L56.9887 37.6843L57.1453 38.1539C57.1893 38.2861 57.1295 38.4306 57.0049 38.4929L56.7554 38.6176L56.9119 39.0872C56.956 39.2194 56.8962 39.3639 56.7715 39.4262L56.5221 39.5509L56.6709 39.9975C56.7314 40.1788 56.5964 40.3661 56.4053 40.3661H56.2367V41.1538C56.2367 41.4262 55.8872 41.5382 55.7289 41.3165L55.5436 41.0572C55.5412 41.06 55.5388 41.0629 55.5363 41.0657C55.4275 40.9035 55.3191 40.7455 55.211 40.5916L54.9709 40.2553C51.8631 35.9825 48.9623 35.0588 43.0987 35.633C42.6867 35.6734 42.2479 35.6367 41.9304 35.3709C41.0653 34.6466 41.2887 33.4747 41.5295 32.2124C41.6475 31.5934 41.7697 30.9527 41.7697 30.3324C41.7697 29.6323 41.7697 29.399 41.5363 28.9324C42.5328 28.9323 43.0186 28.7621 43.5753 28.5671C43.6704 28.5338 43.7675 28.4997 43.8697 28.4657C44.9296 27.9839 46.0293 27.6406 47.0867 27.4614ZM56.8465 35.9263L56.862 35.9108L56.8433 35.886C56.8444 35.8994 56.8455 35.9129 56.8465 35.9263ZM56.1 32.7062L56.1038 32.7023L56.0965 32.6975C56.0977 32.7004 56.0988 32.7033 56.1 32.7062Z" fill="#77C85B"/>
<path d="M44.3359 30.1C46.9026 29.4 48.7693 29.1667 51.1026 29.4" stroke="#86D06D" stroke-width="0.466667" stroke-linecap="round"/>
<path d="M47.6016 31.5871C49.9349 31.2662 52.7349 31.2662 54.8349 32.4329" stroke="#86D06D" stroke-width="0.466667" stroke-linecap="round"/>
<path d="M50.4023 34.7164C52.969 33.8336 55.3023 35.0003 56.469 36.8669" stroke="#86D06D" stroke-width="0.466667" stroke-linecap="round"/>
<mask id="mask4_2359_137149" style="mask-type:alpha" maskUnits="userSpaceOnUse" x="39" y="28" width="18" height="16">
<path d="M41.3063 28.9326C50.4063 31.266 56.7063 35.2326 56.0063 43.6326L41.5396 37.7993L39.9062 35.2326L41.3063 28.9326Z" fill="#6CC04F"/>
</mask>
<g mask="url(#mask4_2359_137149)">
<path d="M41.3063 28.9326C50.4063 31.266 56.7063 35.2326 56.0063 43.6326L41.5396 37.7993L39.9062 35.2326L41.3063 28.9326Z" fill="#6CC04F"/>
<path d="M44.5741 29.6328C45.2741 31.4995 43.1741 35.2328 46.2074 35.2328" stroke="#77C85B" stroke-width="0.466667" stroke-linecap="round"/>
<path d="M48.0742 31.0322C49.7076 32.4322 46.9076 34.9989 52.0409 36.6322" stroke="#77C85B" stroke-width="0.466667" stroke-linecap="round"/>
<path d="M52.5078 33.833C53.4411 34.7663 52.0411 36.633 54.3745 38.733" stroke="#77C85B" stroke-width="0.466667" stroke-linecap="round"/>
</g>
</g>
<path fill-rule="evenodd" clip-rule="evenodd" d="M55.89 42.2336C55.8712 42.6106 55.828 42.9982 55.7706 43.4C55.0706 38.5 51.5706 35.7 45.2706 35.4667C45.1539 35.4667 44.9206 35.4959 44.6289 35.5323C43.7539 35.6417 42.3539 35.8167 42.0039 35.4667C44.011 35.0653 45.692 34.8557 47.1404 34.8544L47.712 34.5686C47.7908 34.5292 47.8836 34.5292 47.9625 34.5686L48.3311 34.7529L49.1443 34.5496C49.2716 34.5178 49.404 34.5786 49.4627 34.696L49.6148 35.0002H50.3751C50.4811 35.0002 50.5781 35.0601 50.6255 35.155L50.7728 35.4496C50.7877 35.4553 50.8026 35.4611 50.8174 35.4669H51.5239C51.6785 35.4669 51.8039 35.5922 51.8039 35.7469V35.9336H52.4572C52.6119 35.9336 52.7372 36.0589 52.7372 36.2136V36.4514L53.4585 36.6317C53.5831 36.6628 53.6706 36.7748 53.6706 36.9033V37.1654L54.1791 37.3349C54.2935 37.373 54.3706 37.48 54.3706 37.6005V37.8654L54.8791 38.0349C54.9935 38.073 55.0706 38.18 55.0706 38.3005V38.5893L55.3825 38.7453C55.4773 38.7927 55.5372 38.8897 55.5372 38.9957V39.3369L55.9026 39.7022C56.0119 39.8116 56.0119 39.9889 55.9026 40.0982L55.8672 40.1336L56.1359 40.4022C56.2452 40.5116 56.2452 40.6889 56.1359 40.7982L56.0545 40.8796L56.1976 41.1658C56.2515 41.2736 56.2303 41.4038 56.1451 41.489L56.0545 41.5796L56.1788 41.8283C56.2719 42.0145 56.1365 42.2336 55.9284 42.2336H55.89Z" fill="#ACCC51"/>
</svg>
