<svg width="70" height="70" viewBox="0 0 70 70" fill="none" xmlns="http://www.w3.org/2000/svg">
<rect width="70" height="70" fill="white"/>
<path d="M11.2012 8.16669C10.7346 5.36669 14.0015 3.96667 16.3347 5.83335C17.1162 6.45858 18.2012 8.42565 18.2012 9.56668C18.2012 12.1334 16.1014 13.0667 14.0012 11.6667C12.7392 10.8254 11.4136 9.44134 11.2012 8.16669Z" fill="#EEBA00" fill-opacity="0.2"/>
<path d="M64.6125 22.1952C66.0125 20.7952 68.5791 21.4952 68.3458 23.5952C68.1468 25.3863 66.9458 26.6285 65.3125 27.7952C63.9123 28.7953 64.146 28.2618 64.1458 26.1618C64.1457 25.3835 63.4456 23.3618 64.6125 22.1952Z" fill="#EEBA00" fill-opacity="0.2"/>
<path d="M9.96794 16.5762C13.2346 16.1095 22.8013 17.9762 26.5346 16.1095C29.3346 14.7095 39.3679 6.51951 48.2346 6.07619C52.9013 5.84287 59.4929 9.80954 60.1346 14.9429C60.6013 18.6762 58.7346 22.5962 60.1346 28.4762C60.9679 31.9762 67.6013 38.2762 66.4346 46.6762C65.4631 53.671 57.1013 60.9095 48.9346 62.7762H15.8011C13.4678 62.7762 9.62604 62.4875 8.33446 59.7429C6.46779 55.7762 12.7678 49.7095 11.3679 44.8095C10.5091 41.8032 5.53477 35.4762 4.36794 28.9429C3.68025 25.0924 5.06794 17.2762 9.96794 16.5762Z" fill="#EEBA00" fill-opacity="0.2"/>
<ellipse cx="34.769" cy="63.4664" rx="26.3667" ry="1.4" fill="#EEBA00"/>
<mask id="mask0_2370_134814" style="mask-type:alpha" maskUnits="userSpaceOnUse" x="26" y="20" width="31" height="43">
<path fill-rule="evenodd" clip-rule="evenodd" d="M33.7396 33.8609C33.7389 33.8668 33.7381 33.8726 33.7373 33.8784C33.7373 35.5346 32.3005 37.8605 30.7096 40.4355C28.7369 43.6288 26.5273 47.2052 26.5273 50.3634C26.5273 55.5434 28.8723 60.2334 30.6573 62.3334H30.6581C30.6581 62.3335 30.6581 62.3336 30.6581 62.3336C30.6581 62.7009 35.4374 62.9986 41.3331 62.9986C47.2287 62.9986 52.0081 62.7009 52.0081 62.3336C52.0081 62.3333 52.0081 62.3329 52.008 62.3326C53.4783 60.5819 56.5923 55.6126 56.5923 50.3634C56.5923 46.7501 54.0918 42.9462 51.9591 39.7018C50.4354 37.3839 49.0994 35.3516 48.9973 33.8784C48.9968 33.8707 48.9963 33.863 48.9958 33.8552C48.9966 33.8512 48.997 33.8473 48.997 33.8433C48.997 33.8367 48.9959 33.8302 48.9938 33.8237C48.84 31.3458 49.8509 28.1161 51.6923 25.0934C51.9909 24.6034 50.525 24.519 48.9973 24.4984C48.2905 24.4889 47.626 24.6078 46.8773 24.7417C45.9576 24.9062 44.9108 25.0934 43.5023 25.0934C42.5446 25.0934 41.3766 24.5154 39.8887 23.779C37.7337 22.7125 34.9077 21.3139 31.0773 20.8584C29.4323 20.6628 26.6323 22.0484 26.5623 23.2384C27.5423 22.7484 28.3123 22.8184 29.1523 23.2384C31.0688 24.1967 34.3727 28.7625 33.746 33.8106C33.74 33.8214 33.737 33.8323 33.737 33.8433C33.737 33.8492 33.7379 33.8551 33.7396 33.8609Z" fill="#D9D9D9"/>
</mask>
<g mask="url(#mask0_2370_134814)">
<path fill-rule="evenodd" clip-rule="evenodd" d="M33.7396 33.8609C33.7389 33.8668 33.7381 33.8726 33.7373 33.8784C33.7373 35.5346 32.3005 37.8605 30.7096 40.4355C28.7369 43.6288 26.5273 47.2052 26.5273 50.3634C26.5273 55.5434 28.8723 60.2334 30.6573 62.3334H30.6581C30.6581 62.3335 30.6581 62.3336 30.6581 62.3336C30.6581 62.7009 35.4374 62.9986 41.3331 62.9986C47.2287 62.9986 52.0081 62.7009 52.0081 62.3336C52.0081 62.3333 52.0081 62.3329 52.008 62.3326C53.4783 60.5819 56.5923 55.6126 56.5923 50.3634C56.5923 46.7501 54.0918 42.9462 51.9591 39.7018C50.4354 37.3839 49.0994 35.3516 48.9973 33.8784C48.9968 33.8707 48.9963 33.863 48.9958 33.8552C48.9966 33.8512 48.997 33.8473 48.997 33.8433C48.997 33.8367 48.9959 33.8302 48.9938 33.8237C48.84 31.3458 49.8509 28.1161 51.6923 25.0934C51.9909 24.6034 50.525 24.519 48.9973 24.4984C48.2905 24.4889 47.626 24.6078 46.8773 24.7417C45.9576 24.9062 44.9108 25.0934 43.5023 25.0934C42.5446 25.0934 41.3766 24.5154 39.8887 23.779C37.7337 22.7125 34.9077 21.3139 31.0773 20.8584C29.4323 20.6628 26.6323 22.0484 26.5623 23.2384C27.5423 22.7484 28.3123 22.8184 29.1523 23.2384C31.0688 24.1967 34.3727 28.7625 33.746 33.8106C33.74 33.8214 33.737 33.8323 33.737 33.8433C33.737 33.8492 33.7379 33.8551 33.7396 33.8609Z" fill="#EBFFFA" fill-opacity="0.8"/>
<path d="M45.0753 23.7285H51.7953V33.4935L57.9949 50.6435L54.7353 64.4335L46.1953 63.9785L49.0349 50.6435C46.998 44.2443 45.0213 41.1638 45.0753 33.4935C45.096 30.5535 46.6853 27.8585 45.0753 23.7285Z" fill="#CFE5D6"/>
<path d="M51.3618 24.92L51.3644 24.9283L51.3674 24.9364C51.3777 24.9637 51.389 24.9991 51.3159 25.0853C51.23 25.1866 51.0608 25.3085 50.7897 25.4385C50.2541 25.6953 49.4488 25.9248 48.5307 26.1158C46.7006 26.4966 44.5283 26.7035 43.4352 26.7035C42.6226 26.7035 41.7397 26.4074 40.7651 25.9298C39.979 25.5446 39.1616 25.0562 38.2954 24.5387C38.0877 24.4146 37.8771 24.2888 37.6635 24.1623C35.481 22.8703 33.0073 21.5235 30.2752 21.5235C28.6299 21.5235 27.7089 21.877 27.1311 22.2655C26.9644 22.3776 26.8299 22.4905 26.7212 22.5896L26.6491 21.743L28.7812 19.9245L50.3479 21.7476L51.3618 24.92Z" fill="#EFFEF4" stroke="white" stroke-width="0.7"/>
<path d="M28.9102 59.9541C30.3802 62.8941 52.4302 62.4041 53.7602 59.9541L53.1302 62.6491L41.5802 63.4191L30.0302 62.6491L28.9102 59.9541Z" fill="#CFE5D6"/>
<path d="M34.2816 28.4265C34.1747 28.0627 34.887 27.4195 35.2556 27.5086C35.699 27.6157 36.1603 27.6858 36.544 27.7096C36.7048 27.7196 36.8462 27.8273 36.8731 27.9863C37.2071 29.9581 36.5192 33.9217 36.1183 34.8237C35.6983 35.7687 34.4589 35.1737 34.6483 34.3687C34.9968 32.8875 35.0079 30.9001 34.2816 28.4265Z" fill="white"/>
</g>
<mask id="mask1_2370_134814" style="mask-type:alpha" maskUnits="userSpaceOnUse" x="48" y="27" width="13" height="21">
<path d="M49.8381 32.969C51.2131 31.044 54.8431 28.788 56.3131 29.539C59.5331 31.184 57.8881 38.954 55.2281 42.909C54.9996 43.2487 54.6566 42.8799 54.0501 42.8846C53.8966 42.8858 53.7794 43.0131 53.7683 43.1662C53.6536 44.735 54.2301 46.1973 55.6263 47.1672C55.7595 47.2597 55.9437 47.2369 56.0056 47.087C56.1746 46.6783 56.1668 45.998 56.7681 45.079C60.4781 39.409 62.6131 28.209 56.5581 27.159C54.0031 26.7159 51.6931 27.964 50.1881 29.819C50.0443 29.9963 49.9497 29.8814 49.8144 29.679C49.6997 29.5073 49.4638 29.4879 49.337 29.6507C48.4623 30.7738 48.1938 32.7445 48.7695 34.0045C48.8474 34.1749 49.0707 34.2379 49.1911 34.0945C49.359 33.8945 49.3574 33.642 49.8381 32.969Z" fill="#D9D9D9"/>
</mask>
<g mask="url(#mask1_2370_134814)">
<path d="M49.8381 32.969C51.2131 31.044 54.8431 28.788 56.3131 29.539C59.5331 31.184 57.8881 38.954 55.2281 42.909C54.9996 43.2487 54.6566 42.8799 54.0501 42.8846C53.8966 42.8858 53.7794 43.0131 53.7683 43.1662C53.6536 44.735 54.2301 46.1973 55.6263 47.1672C55.7595 47.2597 55.9437 47.2369 56.0056 47.087C56.1746 46.6783 56.1668 45.998 56.7681 45.079C60.4781 39.409 62.6131 28.209 56.5581 27.159C54.0031 26.7159 51.6931 27.964 50.1881 29.819C50.0443 29.9963 49.9497 29.8814 49.8144 29.679C49.6997 29.5073 49.4638 29.4879 49.337 29.6507C48.4623 30.7738 48.1938 32.7445 48.7695 34.0045C48.8474 34.1749 49.0707 34.2379 49.1911 34.0945C49.359 33.8945 49.3574 33.642 49.8381 32.969Z" fill="#CFE5D6"/>
<path d="M52.3945 27.8246L57.5045 25.9346L62.1595 29.7146L58.8345 41.2296C59.1495 39.8296 57.1895 38.9896 56.5945 40.1446L55.9995 29.8896L53.0595 30.3446C54.4595 29.6096 53.7595 27.5446 52.3945 27.8246Z" fill="#EFFEF4"/>
<path d="M57.9241 28.5588C59.8998 30.5344 59.7091 31.7438 59.4825 35.3488C59.4298 36.1866 58.6958 35.9088 58.7825 34.968C59.0441 32.1288 58.7897 30.3219 57.4691 29.0838C56.9091 28.5588 57.469 28.1038 57.9241 28.5588Z" fill="white"/>
</g>
<mask id="mask2_2370_134814" style="mask-type:alpha" maskUnits="userSpaceOnUse" x="27" y="37" width="29" height="26">
<path d="M33.4595 38.1492C34.4123 36.0492 41.3345 38.7092 43.8895 38.7092C46.1645 38.7092 48.4395 36.9942 49.4895 38.2192C51.6595 41.4042 55.2645 46.3392 55.4395 50.9942C55.4395 54.9492 52.4995 60.3392 51.3795 61.1092C47.9145 62.2292 34.4745 62.3692 31.2545 61.2142C29.0495 57.9942 27.7545 54.4942 27.5795 51.0292C27.3427 46.3392 31.7445 41.9292 33.4595 38.1492Z" fill="white"/>
</mask>
<g mask="url(#mask2_2370_134814)">
<path d="M33.4595 38.1492C34.4123 36.0492 41.3345 38.7092 43.8895 38.7092C46.1645 38.7092 48.4395 36.9942 49.4895 38.2192C51.6595 41.4042 55.2645 46.3392 55.4395 50.9942C55.4395 54.9492 52.4995 60.3392 51.3795 61.1092C47.9145 62.2292 34.4745 62.3692 31.2545 61.2142C29.0495 57.9942 27.7545 54.4942 27.5795 51.0292C27.3427 46.3392 31.7445 41.9292 33.4595 38.1492Z" fill="#FFF9F1"/>
<path d="M33.8052 40.8255C33.9001 40.7117 34.059 40.669 34.198 40.7202C35.5116 41.204 36.4324 41.4511 37.8111 41.6049C38.1215 41.6396 38.2466 42.0333 38.0111 42.2383C33.2238 46.4065 31.3898 49.276 32.094 56.4188C32.2182 57.6788 30.7396 57.2588 30.229 55.7188C28.4386 50.318 28.9671 46.6295 33.8052 40.8255Z" fill="white"/>
<path d="M43.818 38.9896L49.278 36.8896L55.158 38.9896L56.908 50.9246L54.073 63.7346L43.293 62.6146C45.253 59.5346 45.9392 55.3532 46.163 50.9246C46.163 47.2846 44.238 45.0096 43.818 38.9896Z" fill="#F9E9D4"/>
<path d="M35.4198 36.5039L49.3498 37.5189L49.1398 37.8689C50.1548 38.7789 45.4998 40.1789 44.0648 40.1789C42.1048 40.1789 32.8648 38.9189 33.8098 37.7289L35.4198 36.5039Z" fill="white"/>
<path d="M28.9102 59.9541C30.3802 62.8941 52.4302 62.4041 53.7602 59.9541L53.1302 62.6491L41.5802 63.4191L30.0302 62.6491L28.9102 59.9541Z" fill="#E5E5E5"/>
</g>
<mask id="mask3_2370_134814" style="mask-type:alpha" maskUnits="userSpaceOnUse" x="11" y="46" width="30" height="18">
<path fill-rule="evenodd" clip-rule="evenodd" d="M12.6667 47.6723C12.665 47.5357 13.0533 47.3999 13.8147 47.2741C14.833 47.1058 16.4774 46.9619 18.5597 46.859C20.6419 46.756 23.0777 46.6981 25.5879 46.692C28.0982 46.6858 30.5815 46.7316 32.7533 46.824C34.925 46.9165 36.6974 47.052 37.8675 47.2149C38.8803 47.3559 39.4063 47.5126 39.4067 47.6712H39.407C41.402 52.8512 41.612 57.5762 39.407 63.0712H39.4067C39.4067 63.0958 39.3941 63.1205 39.3688 63.1452C39.1797 63.3287 38.289 63.5047 36.7987 63.6529C35.3083 63.8011 33.2786 63.9155 30.9421 63.9831L26.0367 63.0714L12.8021 63.2106C12.7109 63.1639 12.666 63.1171 12.6667 63.0703C10.6371 57.8911 10.6372 53.8313 12.6667 47.6723Z" fill="#D9D9D9"/>
</mask>
<g mask="url(#mask3_2370_134814)">
<path fill-rule="evenodd" clip-rule="evenodd" d="M12.6667 47.6723C12.665 47.5357 13.0533 47.3999 13.8147 47.2741C14.833 47.1058 16.4774 46.9619 18.5597 46.859C20.6419 46.756 23.0777 46.6981 25.5879 46.692C28.0982 46.6858 30.5815 46.7316 32.7533 46.824C34.925 46.9165 36.6974 47.052 37.8675 47.2149C38.8803 47.3559 39.4063 47.5126 39.4067 47.6712H39.407C41.402 52.8512 41.612 57.5762 39.407 63.0712H39.4067C39.4067 63.0958 39.3941 63.1205 39.3688 63.1452C39.1797 63.3287 38.289 63.5047 36.7987 63.6529C35.3083 63.8011 33.2786 63.9155 30.9421 63.9831L26.0367 63.0714L12.8021 63.2106C12.7109 63.1639 12.666 63.1171 12.6667 63.0703C10.6371 57.8911 10.6372 53.8313 12.6667 47.6723Z" fill="#E59112"/>
<path d="M39.2698 53.4811L39.5498 52.0811L40.3898 53.4811L40.8098 55.0561L40.3898 55.2661L40.5648 56.2111L39.7948 56.1061L39.2698 57.2261L39.1648 55.8611H38.4648L39.0248 54.7761L39.6198 54.1461L39.2698 53.4811Z" fill="#DFA143"/>
<path d="M32.0586 48.4408L35.6986 48.0908L36.9236 49.3508L35.6986 50.5408L36.5386 52.3608V53.8658L34.9986 52.3608L34.7536 51.2058L33.4236 50.5408L33.1086 49.5258L32.0586 48.4408Z" fill="#DFA143"/>
<path d="M39.2497 47.6187C39.2498 47.6187 39.2493 47.6193 39.2479 47.6206C39.249 47.6193 39.2497 47.6187 39.2497 47.6187ZM39.0773 47.6387C39.1096 47.6502 39.1369 47.6612 39.1598 47.6714C39.1369 47.6816 39.1096 47.6926 39.0773 47.7042C38.9136 47.7628 38.6628 47.8223 38.3274 47.8804C37.6593 47.9962 36.687 48.1013 35.4792 48.1898C33.0652 48.3668 29.7271 48.4764 26.038 48.4764C22.3488 48.4764 19.0108 48.3668 16.5967 48.1898C15.3889 48.1013 14.4166 47.9962 13.7485 47.8804C13.4132 47.8223 13.1623 47.7628 12.9986 47.7042C12.9663 47.6926 12.939 47.6816 12.9162 47.6714C12.939 47.6612 12.9663 47.6502 12.9986 47.6387C13.1623 47.58 13.4132 47.5205 13.7485 47.4624C14.4166 47.3466 15.3889 47.2415 16.5967 47.153C19.0108 46.976 22.3488 46.8664 26.038 46.8664C29.7271 46.8664 33.0652 46.976 35.4792 47.153C36.687 47.2415 37.6593 47.3466 38.3274 47.4624C38.6628 47.5205 38.9136 47.58 39.0773 47.6387ZM12.8262 47.6187C12.8263 47.6187 12.827 47.6193 12.828 47.6206C12.8266 47.6193 12.8261 47.6187 12.8262 47.6187ZM12.8262 47.7241C12.8261 47.7241 12.8266 47.7235 12.828 47.7222C12.827 47.7235 12.8263 47.7242 12.8262 47.7241ZM39.2479 47.7222C39.2493 47.7235 39.2498 47.7241 39.2497 47.7241C39.2497 47.7242 39.249 47.7235 39.2479 47.7222Z" fill="#F9AC38" stroke="#FDC673" stroke-width="0.35"/>
<path d="M33.7727 62.8603L33.8777 61.3203L35.1727 60.2353L36.6777 62.0903L38.2877 58.6953V62.5803L38.7427 60.7953L39.6877 60.4803L40.1077 59.0453L40.2827 59.8503H40.8427L39.5827 63.4553L36.8877 64.4703H31.8477L33.7727 62.8603Z" fill="#DFA143"/>
</g>
<path d="M26.043 47.5293L30.943 48.4393C32.098 53.0243 32.168 58.5893 30.943 63.9793L26.043 63.0693V47.5293Z" fill="#E59E33"/>
<mask id="mask4_2370_134814" style="mask-type:alpha" maskUnits="userSpaceOnUse" x="26" y="48" width="6" height="16">
<path d="M26.043 48.124L30.2958 48.9879C30.4335 49.0158 30.5413 49.1238 30.5686 49.2617C31.4536 53.7293 31.6177 57.8631 30.5932 63.0042C30.5553 63.1942 30.369 63.3165 30.1795 63.2766L26.043 62.404V48.124Z" fill="#FFDA92"/>
</mask>
<g mask="url(#mask4_2370_134814)">
<path d="M26.043 48.124L30.2958 48.9879C30.4335 49.0158 30.5413 49.1238 30.5686 49.2617C31.4536 53.7293 31.6177 57.8631 30.5932 63.0042C30.5553 63.1942 30.369 63.3165 30.1795 63.2766L26.043 62.404V48.124Z" fill="#FFDA92"/>
<ellipse cx="25.1915" cy="53.3895" rx="4.70482" ry="5.60029" transform="rotate(19.9164 25.1915 53.3895)" fill="#FFDFA1"/>
</g>
<ellipse cx="0.37198" cy="0.735" rx="0.37198" ry="0.735" transform="matrix(-0.999455 -0.0330012 -0.0330012 0.999455 30.0547 55.2432)" fill="#FFE3AE"/>
<mask id="mask5_2370_134814" style="mask-type:alpha" maskUnits="userSpaceOnUse" x="29" y="55" width="1" height="2">
<ellipse cx="0.37198" cy="0.735" rx="0.37198" ry="0.735" transform="matrix(-0.999455 -0.0330012 -0.0330012 0.999455 29.957 55.2402)" fill="#EDCA51"/>
</mask>
<g mask="url(#mask5_2370_134814)">
<ellipse cx="0.37198" cy="0.735" rx="0.37198" ry="0.735" transform="matrix(-0.999455 -0.0330012 -0.0330012 0.999455 29.957 55.2402)" fill="#F3CB7E"/>
<ellipse cx="0.299984" cy="0.735" rx="0.299984" ry="0.735" transform="matrix(-0.999455 -0.0330012 -0.0330012 0.999455 29.7891 55.2344)" fill="#F2B75F"/>
</g>
<ellipse cx="0.532877" cy="0.92565" rx="0.532877" ry="0.92565" transform="matrix(-0.999455 -0.0330012 -0.0330012 0.999455 27.9219 50.0898)" fill="#FFE3AE"/>
<mask id="mask6_2370_134814" style="mask-type:alpha" maskUnits="userSpaceOnUse" x="26" y="50" width="2" height="2">
<ellipse cx="0.532877" cy="0.92565" rx="0.532877" ry="0.92565" transform="matrix(-0.999455 -0.0330012 -0.0330012 0.999455 27.7852 50.085)" fill="#EDCA51"/>
</mask>
<g mask="url(#mask6_2370_134814)">
<ellipse cx="0.532877" cy="0.92565" rx="0.532877" ry="0.92565" transform="matrix(-0.999455 -0.0330012 -0.0330012 0.999455 27.7852 50.085)" fill="#F3CB7E"/>
<ellipse cx="0.429739" cy="0.92565" rx="0.429739" ry="0.92565" transform="matrix(-0.999455 -0.0330012 -0.0330012 0.999455 27.543 50.0771)" fill="#F2B75F"/>
</g>
<ellipse cx="0.262037" cy="0.585227" rx="0.262037" ry="0.585227" transform="matrix(-0.999455 -0.0330012 -0.0330012 0.999455 29.1914 52.8506)" fill="#FFE3AE"/>
<mask id="mask7_2370_134814" style="mask-type:alpha" maskUnits="userSpaceOnUse" x="28" y="52" width="2" height="3">
<ellipse cx="0.262037" cy="0.585227" rx="0.262037" ry="0.585227" transform="matrix(-0.999455 -0.0330012 -0.0330012 0.999455 29.125 52.8486)" fill="#EDCA51"/>
</mask>
<g mask="url(#mask7_2370_134814)">
<ellipse cx="0.262037" cy="0.585227" rx="0.262037" ry="0.585227" transform="matrix(-0.999455 -0.0330012 -0.0330012 0.999455 29.125 52.8486)" fill="#F3CB7E"/>
<ellipse cx="0.21132" cy="0.585227" rx="0.21132" ry="0.585227" transform="matrix(-0.999455 -0.0330012 -0.0330012 0.999455 29.0078 52.8447)" fill="#F2B75F"/>
</g>
<ellipse cx="0.290689" cy="0.666101" rx="0.290689" ry="0.666101" transform="matrix(-0.999455 -0.0330012 -0.0330012 0.999455 27.3711 59.8506)" fill="#FFE3AE"/>
<mask id="mask8_2370_134814" style="mask-type:alpha" maskUnits="userSpaceOnUse" x="26" y="59" width="2" height="3">
<ellipse cx="0.290689" cy="0.666101" rx="0.290689" ry="0.666101" transform="matrix(-0.999455 -0.0330012 -0.0330012 0.999455 27.2969 59.8486)" fill="#EDCA51"/>
</mask>
<g mask="url(#mask8_2370_134814)">
<ellipse cx="0.290689" cy="0.666101" rx="0.290689" ry="0.666101" transform="matrix(-0.999455 -0.0330012 -0.0330012 0.999455 27.2969 59.8486)" fill="#F3CB7E"/>
<ellipse cx="0.234426" cy="0.666101" rx="0.234426" ry="0.666101" transform="matrix(-0.999455 -0.0330012 -0.0330012 0.999455 27.1641 59.8438)" fill="#F2B75F"/>
</g>
<ellipse cx="0.170746" cy="0.39759" rx="0.170746" ry="0.39759" transform="matrix(-0.999455 -0.0330012 -0.0330012 0.999455 28.3242 58.543)" fill="#FFE3AE"/>
<mask id="mask9_2370_134814" style="mask-type:alpha" maskUnits="userSpaceOnUse" x="27" y="58" width="2" height="2">
<ellipse cx="0.170746" cy="0.39759" rx="0.170746" ry="0.39759" transform="matrix(-0.999455 -0.0330012 -0.0330012 0.999455 28.2812 58.542)" fill="#EDCA51"/>
</mask>
<g mask="url(#mask9_2370_134814)">
<ellipse cx="0.170746" cy="0.39759" rx="0.170746" ry="0.39759" transform="matrix(-0.999455 -0.0330012 -0.0330012 0.999455 28.2812 58.542)" fill="#F3CB7E"/>
<ellipse cx="0.137698" cy="0.39759" rx="0.137698" ry="0.39759" transform="matrix(-0.999455 -0.0330012 -0.0330012 0.999455 28.2031 58.5391)" fill="#F2B75F"/>
</g>
<ellipse cx="0.451364" cy="0.979462" rx="0.451364" ry="0.979462" transform="matrix(-0.999455 -0.0330012 -0.0330012 0.999455 30.1328 60.2334)" fill="#FFE3AE"/>
<mask id="mask10_2370_134814" style="mask-type:alpha" maskUnits="userSpaceOnUse" x="29" y="60" width="1" height="3">
<ellipse cx="0.451364" cy="0.979462" rx="0.451364" ry="0.979462" transform="matrix(-0.999455 -0.0330012 -0.0330012 0.999455 30.0156 60.2295)" fill="#EDCA51"/>
</mask>
<g mask="url(#mask10_2370_134814)">
<ellipse cx="0.451364" cy="0.979462" rx="0.451364" ry="0.979462" transform="matrix(-0.999455 -0.0330012 -0.0330012 0.999455 30.0156 60.2295)" fill="#F3CB7E"/>
<ellipse cx="0.364003" cy="0.979462" rx="0.364003" ry="0.979462" transform="matrix(-0.999455 -0.0330012 -0.0330012 0.999455 29.8125 60.2227)" fill="#F2B75F"/>
</g>
<ellipse cx="0.143692" cy="0.389495" rx="0.143692" ry="0.389495" transform="matrix(-0.999455 -0.0330012 -0.0330012 0.999455 27.0938 55.9307)" fill="#FFE3AE"/>
<mask id="mask11_2370_134814" style="mask-type:alpha" maskUnits="userSpaceOnUse" x="26" y="55" width="2" height="2">
<ellipse cx="0.143692" cy="0.389495" rx="0.143692" ry="0.389495" transform="matrix(-0.999455 -0.0330012 -0.0330012 0.999455 27.0547 55.9287)" fill="#EDCA51"/>
</mask>
<g mask="url(#mask11_2370_134814)">
<ellipse cx="0.143692" cy="0.389495" rx="0.143692" ry="0.389495" transform="matrix(-0.999455 -0.0330012 -0.0330012 0.999455 27.0547 55.9287)" fill="#F3CB7E"/>
<ellipse cx="0.115881" cy="0.389495" rx="0.115881" ry="0.389495" transform="matrix(-0.999455 -0.0330012 -0.0330012 0.999455 26.9883 55.9268)" fill="#F2B75F"/>
</g>
<path d="M12.6584 47.6703L26.0425 47.5303V63.0703L12.6584 63.2103C10.5884 57.4781 10.4735 54.0942 12.6584 47.6703Z" fill="#E59E33"/>
<mask id="mask12_2370_134814" style="mask-type:alpha" maskUnits="userSpaceOnUse" x="11" y="48" width="16" height="15">
<path d="M13.2495 48.5048C13.2932 48.3581 13.4286 48.254 13.5817 48.2525L26.0427 48.125L26.0427 62.3951L13.5779 62.5226C13.4266 62.5242 13.2905 62.4258 13.2424 62.2823C11.4544 56.9511 11.3923 54.7376 13.2495 48.5048Z" fill="#FFDA92"/>
</mask>
<g mask="url(#mask12_2370_134814)">
<path d="M13.2495 48.5048C13.2932 48.3581 13.4286 48.254 13.5817 48.2525L26.0427 48.125L26.0427 62.3951L13.5779 62.5226C13.4266 62.5242 13.2905 62.4258 13.2424 62.2823C11.4544 56.9511 11.3923 54.7376 13.2495 48.5048Z" fill="#FFDA92"/>
<ellipse cx="26.6736" cy="53.3053" rx="10.99" ry="5.775" fill="#FFDFA1"/>
</g>
<circle cx="21.9444" cy="52.8155" r="1.085" fill="#FFE3AE"/>
<mask id="mask13_2370_134814" style="mask-type:alpha" maskUnits="userSpaceOnUse" x="21" y="51" width="3" height="3">
<circle cx="22.2256" cy="52.8155" r="1.085" fill="#EDCA51"/>
</mask>
<g mask="url(#mask13_2370_134814)">
<circle cx="22.2256" cy="52.8155" r="1.085" fill="#F3CB7E"/>
<ellipse cx="22.5078" cy="52.8155" rx="0.875" ry="1.085" fill="#F2B75F"/>
</g>
<circle cx="24.2121" cy="50.0412" r="0.341" fill="#FFE3AE"/>
<mask id="mask14_2370_134814" style="mask-type:alpha" maskUnits="userSpaceOnUse" x="23" y="49" width="2" height="2">
<circle cx="24.3019" cy="50.0412" r="0.341" fill="#EDCA51"/>
</mask>
<g mask="url(#mask14_2370_134814)">
<circle cx="24.3019" cy="50.0412" r="0.341" fill="#F3CB7E"/>
<ellipse cx="24.3883" cy="50.0412" rx="0.275" ry="0.341" fill="#F2B75F"/>
</g>
<circle cx="24.3171" cy="53.7858" r="0.446" fill="#FFE3AE"/>
<mask id="mask15_2370_134814" style="mask-type:alpha" maskUnits="userSpaceOnUse" x="23" y="53" width="2" height="2">
<circle cx="24.4343" cy="53.7858" r="0.446" fill="#EDCA51"/>
</mask>
<g mask="url(#mask15_2370_134814)">
<circle cx="24.4343" cy="53.7858" r="0.446" fill="#F3CB7E"/>
<ellipse cx="24.5511" cy="53.7858" rx="0.359677" ry="0.446" fill="#F2B75F"/>
</g>
<circle cx="20.6848" cy="56.1741" r="0.595" fill="#FFE3AE"/>
<mask id="mask16_2370_134814" style="mask-type:alpha" maskUnits="userSpaceOnUse" x="20" y="55" width="2" height="2">
<circle cx="20.8411" cy="56.1741" r="0.595" fill="#EDCA51"/>
</mask>
<g mask="url(#mask16_2370_134814)">
<circle cx="20.8411" cy="56.1741" r="0.595" fill="#F3CB7E"/>
<ellipse cx="20.9955" cy="56.1741" rx="0.479839" ry="0.595" fill="#F2B75F"/>
</g>
<circle cx="16.8621" cy="51.5311" r="0.409" fill="#FFE3AE"/>
<mask id="mask17_2370_134814" style="mask-type:alpha" maskUnits="userSpaceOnUse" x="16" y="51" width="2" height="1">
<circle cx="16.9676" cy="51.5311" r="0.409" fill="#EDCA51"/>
</mask>
<g mask="url(#mask17_2370_134814)">
<circle cx="16.9676" cy="51.5311" r="0.409" fill="#F3CB7E"/>
<ellipse cx="17.072" cy="51.5311" rx="0.329838" ry="0.409" fill="#F2B75F"/>
</g>
<circle cx="14.6196" cy="54.519" r="0.479" fill="#FFE3AE"/>
<mask id="mask18_2370_134814" style="mask-type:alpha" maskUnits="userSpaceOnUse" x="14" y="54" width="2" height="1">
<circle cx="14.7407" cy="54.519" r="0.479" fill="#EDCA51"/>
</mask>
<g mask="url(#mask18_2370_134814)">
<circle cx="14.7407" cy="54.519" r="0.479" fill="#F3CB7E"/>
<ellipse cx="14.8668" cy="54.519" rx="0.38629" ry="0.479" fill="#F2B75F"/>
</g>
<circle cx="17.903" cy="56.6823" r="0.403" fill="#FFE3AE"/>
<mask id="mask19_2370_134814" style="mask-type:alpha" maskUnits="userSpaceOnUse" x="17" y="56" width="2" height="2">
<circle cx="18.0046" cy="56.6823" r="0.403" fill="#EDCA51"/>
</mask>
<g mask="url(#mask19_2370_134814)">
<circle cx="18.0046" cy="56.6823" r="0.403" fill="#F3CB7E"/>
<ellipse cx="18.1102" cy="56.6823" rx="0.325" ry="0.403" fill="#F2B75F"/>
</g>
<circle cx="15.6128" cy="59.5698" r="0.979989" fill="#FFE3AE"/>
<mask id="mask20_2370_134814" style="mask-type:alpha" maskUnits="userSpaceOnUse" x="14" y="58" width="3" height="3">
<circle cx="15.8667" cy="59.5698" r="0.979989" fill="#EDCA51"/>
</mask>
<g mask="url(#mask20_2370_134814)">
<circle cx="15.8667" cy="59.5698" r="0.979989" fill="#F3CB7E"/>
<ellipse cx="16.1184" cy="59.5698" rx="0.790314" ry="0.979989" fill="#F2B75F"/>
</g>
<circle cx="20.2238" cy="60.1916" r="0.340984" fill="#FFE3AE"/>
<mask id="mask21_2370_134814" style="mask-type:alpha" maskUnits="userSpaceOnUse" x="19" y="59" width="2" height="2">
<circle cx="20.3097" cy="60.1916" r="0.340984" fill="#EDCA51"/>
</mask>
<g mask="url(#mask21_2370_134814)">
<circle cx="20.3097" cy="60.1916" r="0.340984" fill="#F3CB7E"/>
<ellipse cx="20.4" cy="60.1916" rx="0.274987" ry="0.340984" fill="#F2B75F"/>
</g>
<circle cx="23.4512" cy="58.3106" r="0.419995" fill="#FFE3AE"/>
<mask id="mask22_2370_134814" style="mask-type:alpha" maskUnits="userSpaceOnUse" x="23" y="57" width="1" height="2">
<circle cx="23.5606" cy="58.3106" r="0.419995" fill="#EDCA51"/>
</mask>
<g mask="url(#mask22_2370_134814)">
<circle cx="23.5606" cy="58.3106" r="0.419995" fill="#F3CB7E"/>
<ellipse cx="23.6707" cy="58.3106" rx="0.338706" ry="0.419995" fill="#F2B75F"/>
</g>
<mask id="mask23_2370_134814" style="mask-type:alpha" maskUnits="userSpaceOnUse" x="35" y="45" width="12" height="19">
<path d="M35.5215 47.751C35.5006 47.5683 35.6247 47.4006 35.8055 47.3671L43.9284 45.8629C43.9687 45.8554 44.0101 45.8551 44.0505 45.8619L46.2644 46.2366L45.851 61.808C45.847 61.9568 45.7493 62.0869 45.6075 62.1321L40.1394 63.8766L37.6241 63.6565C37.4584 63.642 37.3258 63.5129 37.3069 63.3476L35.5215 47.751Z" fill="#FFE352"/>
</mask>
<g mask="url(#mask23_2370_134814)">
<path d="M35.5215 47.751C35.5006 47.5683 35.6247 47.4006 35.8055 47.3671L43.9284 45.8629C43.9687 45.8554 44.0101 45.8551 44.0505 45.8619L46.2644 46.2366L45.851 61.808C45.847 61.9568 45.7493 62.0869 45.6075 62.1321L40.1394 63.8766L37.6241 63.6565C37.4584 63.642 37.3258 63.5129 37.3069 63.3476L35.5215 47.751Z" fill="#FFE352"/>
<path d="M36.8516 59.6063C37.0804 60.8814 37.3093 62.3702 37.7093 63.1314C37.7602 63.2283 37.8607 63.286 37.9698 63.294L38.9324 63.3644C39.1046 63.377 39.2609 63.2626 39.2911 63.0926C39.4536 62.1764 39.4974 60.8395 39.3716 59.3613L39.9316 63.3863L40.3166 64.1213L36.9216 63.6663L36.8516 59.6063Z" fill="#E3C62B"/>
<path d="M38.1735 48.2289C38.1566 48.0511 38.2762 47.889 38.4512 47.8529L46.7888 46.1314L44.0588 45.8164L35.3769 47.3505C35.3584 47.3538 35.3458 47.3712 35.3484 47.3898L35.9038 51.4164C35.841 50.5063 35.8626 49.0054 36.0948 48.2507C36.1383 48.1093 36.2818 48.0333 36.4286 48.0511L37.1924 48.1437C37.286 48.155 37.3722 48.2026 37.4193 48.2843C37.8506 49.0322 38.3002 51.2064 38.5638 52.3264L38.1735 48.2289Z" fill="#FFED8E"/>
</g>
<mask id="mask24_2370_134814" style="mask-type:alpha" maskUnits="userSpaceOnUse" x="38" y="46" width="11" height="18">
<path d="M38.045 48.0655C38.024 47.8828 38.1481 47.715 38.329 47.6815L46.144 46.2343C46.3434 46.1974 46.5324 46.3372 46.5555 46.5387L48.3307 62.0465C48.3516 62.2293 48.2275 62.397 48.0467 62.4305L40.2316 63.8777C40.0322 63.9146 39.8432 63.7749 39.8202 63.5734L38.045 48.0655Z" fill="#E3C62B"/>
</mask>
<g mask="url(#mask24_2370_134814)">
<path d="M38.045 48.0655C38.024 47.8828 38.1481 47.715 38.329 47.6815L46.144 46.2343C46.3434 46.1974 46.5324 46.3372 46.5555 46.5387L48.3307 62.0465C48.3516 62.2293 48.2275 62.397 48.0467 62.4305L40.2316 63.8777C40.0322 63.9146 39.8432 63.7749 39.8202 63.5734L38.045 48.0655Z" fill="#E3C62B"/>
<path d="M37.7969 47.5313L45.3569 46.2363C42.7037 46.8997 39.3019 47.7413 38.7069 48.1263C38.2169 48.4434 39.1335 55.4218 39.4069 60.0963L38.8469 59.5363L37.7969 47.5313Z" fill="#FFED8E"/>
</g>
<mask id="mask25_2370_134814" style="mask-type:alpha" maskUnits="userSpaceOnUse" x="40" y="61" width="13" height="3">
<path d="M44.4438 63.5269L52.6688 61.9869L48.8188 61.6719L40.5938 63.2119L44.4438 63.5269Z" fill="#FFE352"/>
</mask>
<g mask="url(#mask25_2370_134814)">
<path d="M44.4438 63.5269L52.6688 61.9869L48.8188 61.6719L40.5938 63.2119L44.4438 63.5269Z" fill="#FFE352"/>
<path d="M45.5977 62.2324L48.9577 61.5674L53.2277 61.9874L49.9727 62.6174L45.5977 62.2324Z" fill="#E3C62B"/>
</g>
<path d="M44.4453 64.2464L52.5561 62.7278C52.6223 62.7154 52.6703 62.6576 52.6703 62.5902V61.9863L44.4453 63.5263V64.2464Z" fill="#E3C62B"/>
<path d="M44.4437 64.247L40.7223 63.9425C40.6497 63.9365 40.5938 63.8758 40.5938 63.8029L40.5938 63.2119L44.4438 63.5269L44.4437 64.247Z" fill="#FFE352"/>
<path d="M42.6953 63.3864L44.4453 63.4214L45.5653 63.3164L44.4453 63.5264V64.1214L44.3114 63.8089C44.264 63.6984 44.1633 63.62 44.0447 63.6011L42.6953 63.3864Z" fill="#FFED8E"/>
<mask id="mask26_2370_134814" style="mask-type:alpha" maskUnits="userSpaceOnUse" x="40" y="58" width="12" height="5">
<path d="M42.8742 62.966L51.0992 61.426L49.2258 58.701C49.1944 58.6554 49.1391 58.6325 49.0847 58.6427L40.9492 60.166L42.8742 62.966Z" fill="#FFE352"/>
</mask>
<g mask="url(#mask26_2370_134814)">
<path d="M42.8742 62.966L51.0992 61.426L49.2258 58.701C49.1944 58.6554 49.1391 58.6325 49.0847 58.6427L40.9492 60.166L42.8742 62.966Z" fill="#FFE352"/>
<path d="M47.6008 62.0813L51.1007 61.426L49.2273 58.701C49.1959 58.6554 49.1406 58.6325 49.0862 58.6427L45.6758 59.2813L47.6008 62.0813Z" fill="#E3C62B"/>
</g>
<path d="M42.5234 63.3509L50.7022 61.8195C50.7322 61.8139 50.7595 61.7987 50.7801 61.7761L51.0984 61.4258L42.8734 62.9658L42.5234 63.3509Z" fill="#E3C62B"/>
<path d="M42.5227 63.3511L40.6605 60.6425C40.6237 60.589 40.6285 60.5171 40.6723 60.469L40.9477 60.166L42.8727 62.966L42.5227 63.3511Z" fill="#FFE352"/>
<path d="M41.7188 61.2861L42.8392 62.5666C42.9056 62.6426 43.0016 62.6861 43.1026 62.6861H44.3787L42.8737 62.9661L42.5237 63.3511L42.6419 63.0203C42.6778 62.9197 42.6659 62.8083 42.6095 62.7177L41.7188 61.2861Z" fill="#FFED8E"/>
</svg>
