<svg width="94" height="109" viewBox="0 0 94 109" fill="none" xmlns="http://www.w3.org/2000/svg">
<path d="M93.4298 57.8203C91.6367 71.485 89.7901 76.0577 82.5376 89.7224C76.4625 101.141 66.3465 105.607 51.3596 107.799C42.6619 109.083 29.8428 108.548 22.1621 104.59C3.42852 94.8834 0.859375 70.1747 0.859375 54.7718C0.859375 45.6531 0.859375 56.2961 0.859375 42.6046C0.859375 31.9617 14.401 29.4213 20.8239 35.0102C26.1764 39.6631 30.0837 63.7568 37.1757 73.3034C40.8956 78.3307 48.3355 78.6783 52.5372 74.0254C60.5658 65.1474 66.6676 43.0057 73.4384 36.5344C84.625 25.838 95.3031 43.5138 93.403 57.8203H93.4298Z" fill="#4CA04C"/>
<path d="M10.4404 27.4157C7.57684 27.4157 5.59646 25.1159 6.61342 22.9499C12.9293 9.57938 29.1204 0.0595703 48.0681 0.0595703C67.0157 0.0595703 83.2336 9.57938 89.5227 22.9499C90.5396 25.0892 88.5593 27.4157 85.6957 27.4157C84.1167 27.4157 83.1801 26.4263 82.0025 25.5706C66.2128 13.751 62.814 9.63288 48.0681 9.63288C33.3221 9.63288 24.4906 16.4786 14.1336 25.5706C13.0631 26.5065 12.0194 27.4157 10.4404 27.4157Z" fill="#4CA04C"/>
</svg>
