<svg width="70" height="70" viewBox="0 0 70 70" fill="none" xmlns="http://www.w3.org/2000/svg">
<rect width="70" height="70" fill="white"/>
<path d="M11.2012 8.16669C10.7346 5.36669 14.0015 3.96667 16.3347 5.83335C17.1162 6.45858 18.2012 8.42565 18.2012 9.56668C18.2012 12.1334 16.1014 13.0667 14.0012 11.6667C12.7392 10.8254 11.4136 9.44134 11.2012 8.16669Z" fill="#A4DF75" fill-opacity="0.2"/>
<path d="M64.6125 22.1952C66.0125 20.7952 68.5791 21.4952 68.3458 23.5952C68.1468 25.3863 66.9458 26.6285 65.3125 27.7952C63.9123 28.7953 64.146 28.2618 64.1458 26.1618C64.1457 25.3835 63.4456 23.3618 64.6125 22.1952Z" fill="#A4DF75" fill-opacity="0.2"/>
<path d="M9.96794 16.5762C13.2346 16.1095 22.8013 17.9762 26.5346 16.1095C29.3346 14.7095 39.3679 6.51951 48.2346 6.07619C52.9013 5.84287 59.4929 9.80954 60.1346 14.9429C60.6013 18.6762 58.7346 22.5962 60.1346 28.4762C60.9679 31.9762 67.6013 38.2762 66.4346 46.6762C65.4631 53.671 57.1013 60.9095 48.9346 62.7762H15.8011C13.4678 62.7762 9.62604 62.4875 8.33446 59.7429C6.46779 55.7762 12.7678 49.7095 11.3679 44.8095C10.5091 41.8032 5.53477 35.4762 4.36794 28.9429C3.68025 25.0924 5.06794 17.2762 9.96794 16.5762Z" fill="#A4DF75" fill-opacity="0.2"/>
<ellipse cx="34.769" cy="63.4664" rx="26.3667" ry="1.4" fill="#76BF3B"/>
<mask id="mask0_2372_136018" style="mask-type:alpha" maskUnits="userSpaceOnUse" x="10" y="37" width="40" height="27">
<path d="M10.0753 39.1069C9.83678 36.9048 49.867 36.3443 49.5521 39.1069C48.3347 49.7893 44.7672 56.5807 41.3061 62.3532C41.1788 62.5655 40.9582 62.7062 40.7123 62.7345C32.2069 63.7139 26.4163 63.6763 18.286 62.7315C18.0562 62.7048 17.847 62.5788 17.7177 62.387C13.5249 56.1655 11.2573 50.0208 10.0753 39.1069Z" fill="#FFF0F0"/>
</mask>
<g mask="url(#mask0_2372_136018)">
<path d="M10.0753 39.1069C9.83678 36.9048 49.867 36.3443 49.5521 39.1069C48.3347 49.7893 44.7672 56.5807 41.3061 62.3532C41.1788 62.5655 40.9582 62.7062 40.7123 62.7345C32.2069 63.7139 26.4163 63.6763 18.286 62.7315C18.0562 62.7048 17.847 62.5788 17.7177 62.387C13.5249 56.1655 11.2573 50.0208 10.0753 39.1069Z" fill="white"/>
<path d="M42.4608 40.4265C45.7273 40.4265 49.5511 40.2822 49.5511 38.9609V49.9312L44.9869 65.4657L38.0273 63.2324C42.4608 52.9658 42.4608 49.4658 42.4608 40.4265Z" fill="#D9D6D6"/>
</g>
<mask id="mask1_2372_136018" style="mask-type:alpha" maskUnits="userSpaceOnUse" x="10" y="22" width="40" height="18">
<path fill-rule="evenodd" clip-rule="evenodd" d="M49.5511 22.2666H10.0742V38.762H10.0858C10.0781 38.7753 10.0742 38.7887 10.0742 38.8022C10.0742 39.4434 18.9114 39.9632 29.8126 39.9632C40.7139 39.9632 49.5511 39.4434 49.5511 38.8022C49.5511 38.7887 49.5472 38.7753 49.5395 38.762H49.5511V22.2666Z" fill="#D9D9D9"/>
</mask>
<g mask="url(#mask1_2372_136018)">
<path d="M15.7131 38.6187C15.9079 34.3221 19.1012 32.6508 22.889 34.885L22.3126 35.796C19.3102 34.2451 17.2837 35.115 16.7535 38.1033L16.2486 39.0683L15.7131 38.6187Z" fill="#FBEDF4"/>
<path d="M15.7847 38.852C15.9796 34.5554 19.191 32.8304 22.9787 35.0646L22.8318 35.3608C19.6718 33.5305 16.5184 34.1098 16.0707 38.9784L15.7847 38.852Z" fill="#F0B8D6"/>
<path d="M15.9136 39.0239C16.1085 34.7273 19.3199 33.0023 23.1076 35.2365L22.9607 35.5327C19.8007 33.7024 16.6473 34.2816 16.1996 39.1503L15.9136 39.0239Z" fill="#F2CFE2"/>
<path d="M15.6949 38.6723C15.8897 34.3757 19.1011 32.6507 22.8889 34.8849L22.7242 35.1452C19.5642 33.3149 16.4107 33.8942 15.9631 38.7628L15.6949 38.6723Z" fill="#EE9EC9"/>
<path d="M21.2852 36.3197C23.3671 32.5562 26.9705 32.4761 29.3727 36.1596L28.4518 36.7201C26.45 33.9975 24.2479 33.8774 22.4462 36.3197L21.5654 36.9603L21.2852 36.3197Z" fill="#FBEDF4"/>
<path d="M21.2461 36.56C23.328 32.7965 26.9714 32.6764 29.3737 36.3598L29.1106 36.56C27.0915 33.5172 24.0087 32.6363 21.4463 36.8002L21.2461 36.56Z" fill="#F0B8D6"/>
<path d="M21.2852 36.7709C23.3671 33.0074 27.0105 32.8873 29.4127 36.5708L29.1496 36.771C27.1306 33.7281 24.0477 32.8473 21.4853 37.0112L21.2852 36.7709Z" fill="#F2CFE2"/>
<path d="M21.2461 36.3598C23.328 32.5963 26.9714 32.4762 29.3737 36.1596L29.1106 36.3198C27.0915 33.2769 24.0087 32.3961 21.4463 36.56L21.2461 36.3598Z" fill="#EE9EC9"/>
<mask id="mask2_2372_136018" style="mask-type:alpha" maskUnits="userSpaceOnUse" x="17" y="35" width="6" height="4">
<path d="M19.2711 35.1685C17.6844 35.1576 17.2992 36.2975 17.6905 37.0612C18.1238 37.9068 18.7242 38.4985 19.4117 38.7035L22.1201 37.342C21.5679 36.3454 20.1455 35.1745 19.2711 35.1685Z" fill="#DBEC76"/>
</mask>
<g mask="url(#mask2_2372_136018)">
<path d="M19.2711 35.1685C17.6844 35.1576 17.2992 36.2975 17.6905 37.0612C18.1238 37.9068 18.7242 38.4985 19.4117 38.7035L22.1201 37.342C21.5679 36.3454 20.1455 35.1745 19.2711 35.1685Z" fill="#DBEC76"/>
<ellipse cx="18.4693" cy="36.0506" rx="1.24902" ry="0.732117" transform="rotate(-47.0013 18.4693 36.0506)" fill="#EBF7A4"/>
<path d="M19.3672 35.0781L21.9296 35.2383L21.9296 37.8407L20.8886 37.8407C20.9025 36.7658 20.0879 35.7588 19.3672 35.0781Z" fill="#B7C950"/>
<path d="M18.817 35.5248C18.197 35.3278 17.5715 36.3732 17.8991 36.5655C18.1038 36.6857 18.4757 36.552 18.8145 36.2364C18.9919 36.011 19.0078 35.5854 18.817 35.5248Z" fill="#505050"/>
</g>
<path d="M20.8953 37.7629L20.8897 37.7732L20.8874 37.7847L20.3669 40.307L20.3466 40.4054L20.447 40.4033L28.0141 40.2431L28.0958 40.2414L28.0924 40.1597L27.9723 37.277L27.9714 37.2567L27.9609 37.2392C27.1024 35.8083 25.689 35.2758 24.3148 35.4342C22.9433 35.5922 21.6088 36.4379 20.8953 37.7629Z" fill="#F77575" stroke="#F14A4A" stroke-width="0.160149"/>
<mask id="mask3_2372_136018" style="mask-type:alpha" maskUnits="userSpaceOnUse" x="20" y="35" width="9" height="6">
<path d="M20.4947 40.2821L21.0038 37.8147C21.6988 36.5283 22.9966 35.707 24.3285 35.5535C25.658 35.4003 27.0203 35.9123 27.8527 37.2923L27.9707 40.1239L20.4947 40.2821Z" fill="#F25C5C" stroke="black" stroke-width="0.0800747"/>
</mask>
<g mask="url(#mask3_2372_136018)">
<path d="M25.9297 35.5586L27.371 35.7187L29.1327 38.6415L25.2891 40.6433C25.8175 38.7275 26.015 37.6286 25.9297 35.5586Z" fill="#D77474"/>
<mask id="mask4_2372_136018" style="mask-type:alpha" maskUnits="userSpaceOnUse" x="24" y="36" width="4" height="6">
<path d="M24.2145 36.5362C24.2054 36.4007 24.2746 36.2702 24.4029 36.2258C25.2034 35.9492 26.8778 36.3559 27.37 37.1997C28.1579 38.5504 27.1004 40.2602 26.3872 41.056C26.3183 41.1329 26.1966 41.1204 26.1416 41.033C25.5039 40.0194 24.3197 38.0936 24.2145 36.5362Z" fill="#F14A4A"/>
</mask>
<g mask="url(#mask4_2372_136018)">
<path d="M24.2145 36.5362C24.2054 36.4007 24.2746 36.2702 24.4029 36.2258C25.2034 35.9492 26.8778 36.3559 27.37 37.1997C28.1579 38.5504 27.1004 40.2602 26.3872 41.056C26.3183 41.1329 26.1966 41.1204 26.1416 41.033C25.5039 40.0194 24.3197 38.0936 24.2145 36.5362Z" fill="#F14A4A"/>
<path d="M24.4086 36.3986C24.4887 36.2384 25.1342 36.2376 25.5697 36.2785C25.0893 36.3185 24.6988 36.4386 24.6088 36.5587C24.4887 36.7189 24.6332 37.242 24.6488 37.6798C24.4487 37.2794 24.2884 36.6388 24.4086 36.3986Z" fill="#FFC5C5"/>
<path d="M26.0488 36.2393L28.1708 36.8398L27.2099 40.0428L25.9688 40.6434C26.209 39.4022 26.289 37.8007 26.0488 36.2393Z" fill="#E23E3E"/>
<path d="M25.0343 36.8205C25.0603 36.7367 25.1194 36.6653 25.2026 36.6376C25.3793 36.5787 25.6204 36.5727 25.7802 36.7183C25.86 36.791 25.8606 36.9109 25.8228 37.012C25.6794 37.3956 25.5437 37.6521 25.2506 37.9918C25.2107 38.0382 25.1358 38.0226 25.1167 37.9645C24.9904 37.5798 24.9023 37.2452 25.0343 36.8205Z" fill="#F77575"/>
<path d="M26.3781 37.5248C26.4549 37.4824 26.5469 37.4717 26.6261 37.5093C26.7945 37.5892 26.9726 37.7517 26.9871 37.9674C26.9944 38.0751 26.9119 38.162 26.8146 38.2089C26.4456 38.3864 26.1701 38.4776 25.7234 38.5199C25.6625 38.5257 25.6192 38.4627 25.6457 38.4075C25.8208 38.0424 25.9888 37.7399 26.3781 37.5248Z" fill="#F77575"/>
<path d="M26.9656 38.9181C27.0506 38.9396 27.125 38.9948 27.1572 39.0764C27.2254 39.2497 27.2444 39.4902 27.1075 39.6575C27.0392 39.741 26.9195 39.7481 26.8165 39.7158C26.4258 39.5931 26.1624 39.4713 25.8075 39.1968C25.7591 39.1594 25.7706 39.0838 25.8276 39.0617C26.205 38.9149 26.5344 38.809 26.9656 38.9181Z" fill="#F77575"/>
<mask id="mask5_2372_136018" style="mask-type:alpha" maskUnits="userSpaceOnUse" x="24" y="36" width="4" height="4">
<path fill-rule="evenodd" clip-rule="evenodd" d="M25.0382 36.8205C25.0642 36.7367 25.1233 36.6653 25.2065 36.6376C25.3832 36.5787 25.6243 36.5727 25.7841 36.7183C25.8639 36.791 25.8645 36.9109 25.8267 37.012C25.6833 37.3956 25.5476 37.6521 25.2546 37.9918C25.2146 38.0382 25.1397 38.0226 25.1206 37.9645C24.9943 37.5798 24.9062 37.2452 25.0382 36.8205ZM26.383 37.5246C26.4598 37.4822 26.5518 37.4715 26.6311 37.5091C26.7994 37.589 26.9776 37.7515 26.9921 37.9672C26.9993 38.0749 26.9168 38.1618 26.8195 38.2087C26.4505 38.3862 26.175 38.4774 25.7284 38.5197C25.6674 38.5255 25.6242 38.4625 25.6506 38.4073C25.8257 38.0422 25.9938 37.7397 26.383 37.5246ZM27.1611 39.0764C27.129 38.9948 27.0545 38.9396 26.9695 38.9181C26.5383 38.809 26.2089 38.9149 25.8315 39.0616C25.7745 39.0838 25.763 39.1594 25.8114 39.1968C26.1663 39.4713 26.4297 39.5931 26.8204 39.7158C26.9234 39.7481 27.0431 39.741 27.1114 39.6575C27.2483 39.4902 27.2293 39.2497 27.1611 39.0764Z" fill="#F77575"/>
</mask>
<g mask="url(#mask5_2372_136018)">
<path d="M26.0527 36.2383L28.1747 36.8388L27.2138 40.0418L25.9727 40.6424C26.2129 39.4012 26.293 37.7997 26.0527 36.2383Z" fill="#D77474"/>
</g>
</g>
<path d="M23.1942 36.7794C23.1057 36.6861 22.9713 36.6562 22.8521 36.7044C21.9637 37.0629 20.9206 38.3086 21.2043 39.7626C21.4111 40.8221 23.8181 42.0121 25.3507 41.3863C25.4292 41.3543 25.4628 41.2646 25.4303 41.1863C25.0389 40.245 24.0418 37.6724 23.1942 36.7794Z" fill="#F14A4A"/>
<path d="M22.9668 36.92C23.1669 36.8799 23.8707 38.0279 24.288 38.9619C23.8075 38.2412 23.207 37.2803 22.8867 37.2403C22.6085 37.2055 22.4214 37.3181 22.0859 37.4404C22.2861 37.2403 22.7265 36.968 22.9668 36.92Z" fill="#FFC5C5"/>
<path d="M22.314 38.4271C22.234 38.3913 22.1701 38.3242 22.1525 38.2383C22.115 38.0558 22.1377 37.8157 22.3013 37.6744C22.383 37.6038 22.5021 37.6174 22.598 37.667C22.9618 37.855 23.2003 38.0203 23.5028 38.3516C23.544 38.3968 23.5197 38.4693 23.4597 38.4814C23.0627 38.5611 22.72 38.6088 22.314 38.4271Z" fill="#F77575"/>
<path d="M22.5723 39.9249C22.4879 39.9486 22.3959 39.9379 22.3273 39.8832C22.1817 39.767 22.0454 39.568 22.0806 39.3547C22.0982 39.2482 22.1984 39.1824 22.3038 39.1591C22.7037 39.0706 22.9927 39.0449 23.4372 39.1059C23.4979 39.1142 23.5256 39.1854 23.4872 39.2331C23.2332 39.5485 23.0005 39.8045 22.5723 39.9249Z" fill="#F77575"/>
<path d="M24.0006 40.7991C23.9493 40.8702 23.8706 40.9191 23.7829 40.9189C23.5966 40.9185 23.3661 40.8475 23.261 40.6587C23.2085 40.5643 23.246 40.4505 23.314 40.3667C23.572 40.0486 23.7823 39.8487 24.1682 39.6198C24.2208 39.5886 24.2868 39.6271 24.2864 39.6883C24.2839 40.0932 24.2609 40.4384 24.0006 40.7991Z" fill="#F77575"/>
<path d="M22.0055 42.711C21.9082 42.7382 21.8048 42.7099 21.7324 42.6393C21.1898 42.1102 20.8305 40.8762 21.1084 40.1085C21.1389 40.0241 21.2058 39.9577 21.292 39.9326C22.0164 39.7215 23.4969 40.148 24.2406 40.6331C24.3087 40.6775 24.3268 40.7674 24.2809 40.8346C23.8603 41.4506 22.7353 42.5068 22.0055 42.711Z" fill="#F19494"/>
</g>
<path d="M34.4676 34.0458L34.4574 34.0516L34.4494 34.0601L32.6771 35.9289L32.608 36.0017L32.6944 36.0529L39.2084 39.9069L39.2788 39.9485L39.319 39.8774L40.7369 37.3647L40.747 37.3469L40.7473 37.3265C40.7723 35.658 39.8522 34.4603 38.601 33.8702C37.3524 33.2814 35.7725 33.2962 34.4676 34.0458Z" fill="#F77575" stroke="#F14A4A" stroke-width="0.160149"/>
<mask id="mask6_2372_136018" style="mask-type:alpha" maskUnits="userSpaceOnUse" x="32" y="33" width="9" height="7">
<path d="M32.7988 35.9751L34.5325 34.147C35.8012 33.4205 37.3371 33.407 38.5497 33.9789C39.7601 34.5497 40.6477 35.7031 40.6273 37.3145L39.2344 39.7827L32.7988 35.9751Z" fill="#F25C5C" stroke="black" stroke-width="0.0800747"/>
</mask>
<g mask="url(#mask6_2372_136018)">
<path d="M39.9076 34.828L41.0478 35.7241L41.0035 39.1364L36.6821 38.8106C38.1414 37.4615 38.8886 36.6319 39.9076 34.828Z" fill="#D77474"/>
<mask id="mask7_2372_136018" style="mask-type:alpha" maskUnits="userSpaceOnUse" x="37" y="34" width="4" height="6">
<path d="M37.934 34.7559C37.9977 34.636 38.1253 34.5616 38.2577 34.5915C39.0838 34.7786 40.2919 36.0071 40.2652 36.9836C40.2225 38.5467 38.4224 39.4419 37.3968 39.742C37.2977 39.771 37.2008 39.6962 37.2002 39.5929C37.1928 38.3954 37.2021 36.1347 37.934 34.7559Z" fill="#F14A4A"/>
</mask>
<g mask="url(#mask7_2372_136018)">
<path d="M37.934 34.7559C37.9977 34.636 38.1253 34.5616 38.2577 34.5915C39.0838 34.7786 40.2919 36.0071 40.2652 36.9836C40.2225 38.5467 38.4224 39.4419 37.3968 39.742C37.2977 39.771 37.2008 39.6962 37.2002 39.5929C37.1928 38.3954 37.2021 36.1347 37.934 34.7559Z" fill="#F14A4A"/>
<path d="M39.6501 35.47L41.1364 37.0992L38.631 39.314L37.2597 39.1698C38.1183 38.2419 39.0308 36.9234 39.6501 35.47Z" fill="#E23E3E"/>
<path d="M38.4817 35.4301C38.5479 35.3727 38.6358 35.3431 38.7211 35.3634C38.9023 35.4066 39.1104 35.5286 39.1693 35.7366C39.1988 35.8404 39.1361 35.9426 39.0507 36.0086C38.7266 36.2589 38.476 36.4053 38.0479 36.5394C37.9895 36.5577 37.934 36.5051 37.9485 36.4456C38.044 36.0521 38.1455 35.7214 38.4817 35.4301Z" fill="#F77575"/>
<path d="M39.2506 36.7367C39.3382 36.7411 39.422 36.7806 39.4695 36.8543C39.5704 37.011 39.6361 37.243 39.5347 37.4339C39.484 37.5292 39.3681 37.5596 39.2607 37.5481C38.8536 37.5044 38.5714 37.4366 38.1696 37.237C38.1148 37.2098 38.1112 37.1334 38.1628 37.1005C38.5041 36.8826 38.8064 36.7142 39.2506 36.7367Z" fill="#F77575"/>
<path d="M39.0162 38.23C39.0771 38.2931 39.1113 38.3792 39.0955 38.4655C39.0621 38.6488 38.9514 38.8631 38.7469 38.9331C38.6448 38.968 38.5394 38.9109 38.4689 38.8292C38.2016 38.5189 38.0421 38.2765 37.8852 37.8562C37.8638 37.7988 37.9134 37.7407 37.9736 37.7519C38.3716 37.8262 38.7073 37.9099 39.0162 38.23Z" fill="#F77575"/>
<mask id="mask8_2372_136018" style="mask-type:alpha" maskUnits="userSpaceOnUse" x="37" y="35" width="3" height="4">
<path fill-rule="evenodd" clip-rule="evenodd" d="M38.4778 35.4301C38.544 35.3727 38.6319 35.3431 38.7172 35.3634C38.8984 35.4066 39.1065 35.5286 39.1654 35.7366C39.1949 35.8404 39.1322 35.9426 39.0468 36.0086C38.7227 36.2589 38.4721 36.4053 38.044 36.5394C37.9856 36.5577 37.9301 36.5051 37.9446 36.4456C38.0401 36.0521 38.1416 35.7214 38.4778 35.4301ZM39.2484 36.7369C39.336 36.7414 39.4198 36.7808 39.4673 36.8546C39.5682 37.0112 39.6339 37.2432 39.5325 37.4341C39.4818 37.5295 39.3659 37.5598 39.2585 37.5483C38.8514 37.5046 38.5692 37.4368 38.1674 37.2372C38.1126 37.21 38.109 37.1337 38.1606 37.1007C38.5019 36.8828 38.8042 36.7145 39.2484 36.7369ZM39.0925 38.4658C39.1083 38.3795 39.0741 38.2934 39.0132 38.2302C38.7044 37.9102 38.3686 37.8264 37.9706 37.7521C37.9104 37.7409 37.8608 37.7991 37.8822 37.8564C38.0391 38.2768 38.1986 38.5192 38.4659 38.8294C38.5364 38.9112 38.6418 38.9683 38.7439 38.9333C38.9484 38.8633 39.0591 38.649 39.0925 38.4658Z" fill="#F77575"/>
</mask>
<g mask="url(#mask8_2372_136018)">
<path d="M39.6501 35.4709L41.1364 37.1001L38.631 39.315L37.2597 39.1708C38.1183 38.2429 39.0308 36.9243 39.6501 35.4709Z" fill="#D77474"/>
</g>
</g>
<path d="M36.9419 34.4237C36.9159 34.2978 36.8175 34.2016 36.6908 34.1796C35.7468 34.0158 34.2037 34.5242 33.6781 35.9092C33.2951 36.9185 34.7128 39.1988 36.3451 39.4753C36.4287 39.4894 36.5045 39.4309 36.5181 39.3473C36.6819 38.3411 37.1912 35.6295 36.9419 34.4237Z" fill="#F14A4A"/>
<path d="M35.3236 35.3589C35.2744 35.2862 35.2555 35.1955 35.2859 35.1132C35.3503 34.9384 35.4962 34.7464 35.7097 34.7126C35.8163 34.6957 35.9103 34.77 35.9657 34.8627C36.1757 35.2143 36.2911 35.4805 36.3734 35.9216C36.3847 35.9817 36.3258 36.0305 36.2684 36.0091C35.8891 35.8675 35.5728 35.7273 35.3236 35.3589Z" fill="#F77575"/>
<path d="M34.7517 36.7679C34.6675 36.7436 34.5949 36.686 34.5655 36.6033C34.5031 36.4278 34.4922 36.1869 34.6346 36.0242C34.7057 35.943 34.8255 35.9399 34.9274 35.9757C35.3138 36.1113 35.5729 36.2419 35.9185 36.5281C35.9656 36.5671 35.9516 36.6423 35.8939 36.6625C35.5118 36.7966 35.179 36.8914 34.7517 36.7679Z" fill="#F77575"/>
<path d="M35.5041 38.2631C35.423 38.2965 35.3303 38.2965 35.2559 38.2501C35.0978 38.1515 34.9394 37.9697 34.9497 37.7538C34.9548 37.6459 35.0467 37.569 35.1487 37.5336C35.5356 37.3994 35.8197 37.3404 36.2683 37.3494C36.3295 37.3506 36.3653 37.4182 36.3327 37.47C36.1169 37.8127 35.9154 38.0939 35.5041 38.2631Z" fill="#F77575"/>
<path d="M32.801 38.8347C32.7039 38.8065 32.631 38.7279 32.6067 38.6298C32.4247 37.8941 32.7701 36.6561 33.411 36.1503C33.4815 36.0947 33.5733 36.0736 33.6598 36.0977C34.3866 36.3003 35.4197 37.4433 35.7958 38.2477C35.8302 38.3214 35.7982 38.4073 35.7238 38.4402C35.0416 38.7418 33.5288 39.046 32.801 38.8347Z" fill="#F19494"/>
</g>
<mask id="mask9_2372_136018" style="mask-type:alpha" maskUnits="userSpaceOnUse" x="26" y="35" width="6" height="6">
<path d="M29.1337 35.9589C31.0955 35.2383 32.0809 36.4794 31.9363 37.6005C31.7761 38.8416 31.2957 39.8426 30.535 40.4031L26.5312 40.0027C26.7715 38.5213 28.0527 36.356 29.1337 35.9589Z" fill="#DBEC76"/>
</mask>
<g mask="url(#mask9_2372_136018)">
<path d="M29.1337 35.9589C31.0955 35.2383 32.0809 36.4794 31.9363 37.6005C31.7761 38.8416 31.2957 39.8426 30.535 40.4031L26.5312 40.0027C26.7715 38.5213 28.0527 36.356 29.1337 35.9589Z" fill="#DBEC76"/>
<ellipse cx="28.6913" cy="37.4159" rx="1.12105" ry="0.800747" transform="rotate(-52.1418 28.6913 37.4159)" fill="#EBF7A4"/>
<path d="M29.7363 35.6787L32.8192 35.5186L31.6581 40.8035L29.0156 40.243C30.0566 39.0418 31.6581 36.5195 29.7363 35.6787Z" fill="#B7C950"/>
<path d="M29.8537 36.1989C30.5343 35.6784 31.7755 36.6954 31.4552 37.0797C31.255 37.3199 30.7345 37.32 30.174 37.0797C29.8537 36.8795 29.6443 36.3591 29.8537 36.1989Z" fill="#505050"/>
</g>
<mask id="mask10_2372_136018" style="mask-type:alpha" maskUnits="userSpaceOnUse" x="10" y="32" width="12" height="9">
<path d="M11.6039 36.5399C12.0843 36.2997 11.8041 34.1377 12.765 33.2569C15.2276 30.9995 16.4084 33.5772 15.5275 34.538C15.0871 35.0185 14.7668 35.3788 14.6467 35.9394C15.3674 34.498 16.6886 33.9375 16.8488 34.4179C17.049 35.0185 15.5676 37.1405 16.1681 37.741C16.3964 37.9693 17.129 36.7001 18.13 36.7401C18.61 36.7593 18.6905 37.5008 18.6905 38.0213C19.211 36.3798 20.4922 35.1786 20.7324 35.7392C21.0927 36.58 20.292 37.3473 20.4922 37.5809C20.7324 37.8611 21.9335 37.2606 21.8935 37.9012C21.8059 39.3025 20.8525 39.0623 21.333 40.3835L10.4828 40.3435C10.268 38.4444 9.68207 35.6591 10.4828 35.3788C11.2836 35.0986 11.2836 36.7001 11.6039 36.5399Z" fill="#4EA04C"/>
</mask>
<g mask="url(#mask10_2372_136018)">
<path d="M11.6039 36.5399C12.0843 36.2997 11.8041 34.1377 12.765 33.2569C15.2276 30.9995 16.4084 33.5772 15.5275 34.538C15.0871 35.0185 14.7668 35.3788 14.6467 35.9394C15.3674 34.498 16.6886 33.9375 16.8488 34.4179C17.049 35.0185 15.5676 37.1405 16.1681 37.741C16.3964 37.9693 17.129 36.7001 18.13 36.7401C18.61 36.7593 18.6905 37.5008 18.6905 38.0213C19.211 36.3798 20.4922 35.1786 20.7324 35.7392C21.0927 36.58 20.292 37.3473 20.4922 37.5809C20.7324 37.8611 21.9335 37.2606 21.8935 37.9012C21.8059 39.3025 20.8525 39.0623 21.333 40.3835L10.4828 40.3435C10.268 38.4444 9.68207 35.6591 10.4828 35.3788C11.2836 35.0986 11.2836 36.7001 11.6039 36.5399Z" fill="#53BB51"/>
<path d="M18.5216 36.9599L18.882 37.08L20.2432 35.4785C19.2022 36.8798 19.2823 37.7206 18.962 38.2411C18.882 38.3712 18.8018 38.5214 18.6818 38.5214C18.5216 38.5214 18.4927 38.2011 18.5216 37.9608C18.5646 37.6042 18.5583 37.3813 18.5216 36.9599Z" fill="#4EA04C"/>
<path d="M14.6381 35.0781C14.8303 34.7578 15.3214 34.6145 15.7592 34.3174L16.1595 34.2373C15.5989 34.9179 15.3587 35.5185 15.1185 35.8788C14.9138 36.186 14.558 36.5595 14.2778 36.4394C14.0776 36.3192 14.3978 35.4785 14.6381 35.0781Z" fill="#4EA04C"/>
<path d="M12.2363 32.916L13.8378 32.0752C12.2363 33.8368 13.2089 35.078 12.5966 35.8787C12.0761 36.5594 12.0361 37.6404 11.4755 37.6404C11.0351 37.6404 11.0351 36.3192 10.5547 35.2782L12.2363 32.916Z" fill="#4EA04C"/>
<path d="M16.3594 39.6425C16.8971 39.5114 17.1601 38.8017 17.5205 38.8017C17.8808 38.8017 18.0009 39.3622 18.4814 39.5224C18.8817 39.5224 19.4423 37.6406 19.9227 37.6406C20.0829 37.6406 19.9227 37.8408 20.1229 38.041C20.4031 38.2011 21.2039 37.9136 21.7244 37.9609C22.1648 38.001 21.9672 38.3914 22.405 38.6416L21.0838 40.9237L16.5596 40.4432L16.3594 39.6425Z" fill="#4EA04C"/>
<path d="M10.9531 39.5217C12.4345 39.762 12.7548 36.559 13.1151 36.6791C13.4354 36.6791 13.1952 38.5288 13.5556 38.6009C13.9559 38.6809 14.3563 37.8081 14.6366 37.9202C15.0369 38.0804 14.7072 39.3865 15.2371 40.0422L13.3554 40.4426H11.3535L10.9531 39.5217Z" fill="#4EA04C"/>
</g>
<mask id="mask11_2372_136018" style="mask-type:alpha" maskUnits="userSpaceOnUse" x="30" y="33" width="18" height="8">
<path d="M30.4425 38.1738C30.6127 37.4932 31.4835 37.8535 32.1241 37.373C32.5245 37.0728 31.8438 36.0118 32.004 35.0909C32.2477 33.6896 34.0859 33.009 35.207 33.4494C35.8476 33.701 35.5673 35.0909 35.8476 35.7315C36.1454 36.4121 35.5273 38.0136 35.8476 38.0136C36.3681 38.0136 36.0478 36.4922 36.8885 36.0518C37.5291 35.8516 38.0096 36.1719 38.49 36.4922C38.478 36.0218 38.5385 35.7972 39.0621 35.6386C39.6945 35.7755 39.8908 36.2652 40.2633 37.0799L46.2173 34.6505L47.4985 39.3349L40.9323 40.1356H31.1632C31.1632 39.3749 30.2423 38.9745 30.4425 38.1738Z" fill="#4EA04C"/>
</mask>
<g mask="url(#mask11_2372_136018)">
<path d="M30.4425 38.1738C30.6127 37.4932 31.4835 37.8535 32.1241 37.373C32.5245 37.0728 31.8438 36.0118 32.004 35.0909C32.2477 33.6896 34.0859 33.009 35.207 33.4494C35.8476 33.701 35.5673 35.0909 35.8476 35.7315C36.1454 36.4121 35.5273 38.0136 35.8476 38.0136C36.3681 38.0136 36.0478 36.4922 36.8885 36.0518C37.5291 35.8516 38.0096 36.1719 38.49 36.4922C38.478 36.0218 38.5385 35.7972 39.0621 35.6386C39.6945 35.7755 39.8908 36.2652 40.2633 37.0799L46.2173 34.6505L47.4985 39.3349L40.9323 40.1356H31.1632C31.1632 39.3749 30.2423 38.9745 30.4425 38.1738Z" fill="#53BB51"/>
<path d="M35.739 35.1982L36.7799 35.9189C36.6026 36.6087 36.5098 36.9952 36.4596 37.6806C36.4596 38.0409 36.0593 38.5213 35.739 38.5213C35.4187 38.5213 35.4186 37.5204 35.5388 37.04C35.689 36.4394 35.8191 36.039 35.739 35.1982Z" fill="#4EA04C"/>
<path d="M36.8203 35.8389L39.1425 35.5586C38.9494 35.8969 38.8239 36.0775 38.8222 36.5195C38.8622 36.7197 38.9823 37.1601 38.7821 37.2402C38.4218 37.3843 38.1415 36.3994 36.8203 35.8389Z" fill="#4EA04C"/>
<path d="M37.9397 38.4008C38.6604 38.1606 39.2209 38.8012 39.8215 39.0414C39.7394 38.5695 39.5185 38.377 39.8215 38.1606C40.1017 37.9604 41.446 39.6826 41.9435 40.6829L37.3792 41.0833C37.3264 40.0249 37.3792 38.7611 37.9397 38.4008Z" fill="#4EA04C"/>
<path d="M32.0703 39.0358C31.9975 38.9322 32.0607 38.781 32.1813 38.7425C33.3928 38.3563 33.262 36.4605 33.8964 36.2793C34.4569 36.1191 34.6171 37.8007 34.6171 38.3212C34.8802 39.506 35.2467 39.9807 36.2986 40.4832L32.8955 40.9236C32.6861 40.1561 32.4464 39.5709 32.0703 39.0358Z" fill="#4EA04C"/>
</g>
</g>
<mask id="mask12_2372_136018" style="mask-type:alpha" maskUnits="userSpaceOnUse" x="41" y="15" width="19" height="49">
<path d="M41.789 18.0214C41.5088 17.1005 41.4962 16.5085 41.3086 15.5391C41.8558 16.3929 42.3896 16.9404 42.7099 17.7254L59.8859 63.0477C60.0461 63.3837 59.0852 63.704 58.9651 63.3437L41.789 18.0214Z" fill="#8F6857"/>
</mask>
<g mask="url(#mask12_2372_136018)">
<path d="M41.789 18.0214C41.5088 17.1005 41.4962 16.5085 41.3086 15.5391C41.8558 16.3929 42.3896 16.9404 42.7099 17.7254L59.8859 63.0477C60.0461 63.3837 59.0852 63.704 58.9651 63.3437L41.789 18.0214Z" fill="#8F6857"/>
<path d="M42.1875 17.7411C41.9072 16.8203 41.5469 16.1396 41.2266 15.459C42.1875 15.6992 42.788 16.6601 43.1083 17.4451L60.4845 63.1435C60.6447 63.4795 59.6838 63.7998 59.5637 63.4395L42.1875 17.7411Z" fill="#684333"/>
</g>
<mask id="mask13_2372_136018" style="mask-type:alpha" maskUnits="userSpaceOnUse" x="52" y="49" width="6" height="8">
<path d="M53.3199 50.2519L55.3217 49.291C57.6839 50.0517 58.7249 53.1746 57.2435 55.6169C57.0622 55.9158 56.5629 56.0974 56.1225 56.0974C54.0405 56.0974 51.8385 52.8944 53.3199 50.2519Z" fill="#F25C5C"/>
</mask>
<g mask="url(#mask13_2372_136018)">
<path d="M53.3199 50.2519L55.3217 49.291C57.6839 50.0517 58.7249 53.1746 57.2435 55.6169C57.0622 55.9158 56.5629 56.0974 56.1225 56.0974C54.0405 56.0974 51.8385 52.8944 53.3199 50.2519Z" fill="#F14A4A"/>
<path d="M54.0397 51.0927C54.6002 51.0927 55.1532 50.792 55.4009 50.4121C56.6421 50.6523 57.2833 53.5394 56.2818 54.4158C55.9615 54.6961 55.0806 54.536 54.6403 54.1356C54.1999 53.7352 53.9699 52.6234 54.0397 51.0927Z" fill="#F25C5C"/>
<ellipse cx="54.8838" cy="52.0937" rx="0.520486" ry="0.600561" fill="#F17B7B"/>
</g>
<mask id="mask14_2372_136018" style="mask-type:alpha" maskUnits="userSpaceOnUse" x="49" y="41" width="9" height="10">
<path d="M50.6775 41.964L52.1589 41.3635C53.1198 41.2834 53.8805 41.6437 54.3209 42.4445C54.6732 43.0851 54.6812 44.5264 55.5621 45.2471C55.9535 45.5674 56.4829 45.127 57.0434 45.8076C57.538 46.4082 57.0434 48.0497 56.1226 48.8905C55.3619 49.585 54.2408 50.4519 53.0797 50.6922C51.7985 50.6922 50.2895 50.3318 49.9568 49.6112C49.4763 48.5702 50.1571 47.3691 50.157 46.4082C50.157 45.6074 49.6766 44.4864 49.9568 43.4454C50.1077 42.8849 50.3961 42.5425 50.6775 41.964Z" fill="#8F6857"/>
</mask>
<g mask="url(#mask14_2372_136018)">
<path d="M50.6775 41.964L52.1589 41.3635C53.1198 41.2834 53.8805 41.6437 54.3209 42.4445C54.6732 43.0851 54.6812 44.5264 55.5621 45.2471C55.9535 45.5674 56.4829 45.127 57.0434 45.8076C57.538 46.4082 57.0434 48.0497 56.1226 48.8905C55.3619 49.585 54.2408 50.4519 53.0797 50.6922C51.7985 50.6922 50.2895 50.3318 49.9568 49.6112C49.4763 48.5702 50.1571 47.3691 50.157 46.4082C50.157 45.6074 49.6766 44.4864 49.9568 43.4454C50.1077 42.8849 50.3961 42.5425 50.6775 41.964Z" fill="#8F6857"/>
<path d="M51.7578 42.8847C52.1982 42.7246 52.5185 42.5644 52.7988 42.2842C53.2327 42.9312 53.5995 43.4052 53.6796 44.0859C53.7456 44.6464 53.4794 45.2069 53.6796 45.6073C53.8398 45.9276 55.201 45.8075 55.3612 46.0877C55.4984 46.328 55.0008 46.6082 55.121 46.7684C55.2411 46.9285 56.0418 46.4881 56.202 46.6883C56.5223 47.0887 55.0809 48.4499 54.1601 48.8103C53.2392 49.1706 52.1181 48.7302 51.958 48.4099C51.7378 47.9695 52.5586 47.2889 52.6386 46.9686C52.7087 46.6883 52.0381 46.2078 51.958 45.7274C51.8846 45.287 52.3183 44.8466 52.3584 44.286C52.3584 43.7255 51.9923 43.4789 51.7578 42.8847Z" fill="#BF856C"/>
<path d="M52.6016 43.085C52.8373 43.4543 53.1589 43.8251 53.2053 44.0307C53.2703 44.3185 52.8338 45.5932 52.9267 45.8399C52.9886 46.0044 54.0877 46.2922 54.1342 46.6623C54.1755 46.9912 53.5769 47.4435 53.6698 47.6902C53.7558 47.9188 54.3664 47.8958 54.9237 47.8547C54.3058 48.0094 53.4375 48.0192 53.3911 47.8136C53.3307 47.5461 53.8091 47.0734 53.7626 46.7856C53.7228 46.5389 52.7873 46.0866 52.6944 45.8399C52.6016 45.5521 52.9267 44.3596 52.9267 44.0718C52.9267 43.8251 52.7285 43.4703 52.6016 43.085Z" fill="#D6A691"/>
</g>
<mask id="mask15_2372_136018" style="mask-type:alpha" maskUnits="userSpaceOnUse" x="47" y="34" width="6" height="9">
<path d="M47.9538 35.2382L50.0357 34.4775C52.518 34.958 53.7992 39.2019 52.2778 41.6442C51.9037 42.2448 51.1968 42.4049 50.5962 42.3249C48.1539 41.9992 46.3923 38.4412 47.9538 35.2382Z" fill="#F25C5C"/>
</mask>
<g mask="url(#mask15_2372_136018)">
<path d="M47.9538 35.2382L50.0357 34.4775C52.518 34.958 53.7992 39.2019 52.2778 41.6442C51.9037 42.2448 51.1968 42.4049 50.5962 42.3249C48.1539 41.9992 46.3923 38.4412 47.9538 35.2382Z" fill="#F25C5C"/>
<path d="M47.3906 35.5185L50.7938 34.3574V35.3984C49.4569 36.1042 48.7109 36.3894 47.3906 36.5595V35.5185Z" fill="#F14A4A"/>
<ellipse cx="48.834" cy="37.6406" rx="0.720673" ry="1.20112" fill="#F17B7B"/>
<path d="M49.8369 34.5576H52.7196L53.6805 40.8435L51.3183 42.9254L49.1562 41.7643C51.3583 42.485 53.9607 38.6014 49.8369 34.5576Z" fill="#F14A4A"/>
<path d="M47.0742 37.8008L48.3554 37.4404L48.9159 38.4013C48.4339 38.9343 48.3557 39.4969 47.5146 40.203L48.7958 40.4432L49.4765 42.0848L48.3554 41.9246L47.0742 41.0038V37.8008Z" fill="#F14A4A"/>
</g>
<mask id="mask16_2372_136018" style="mask-type:alpha" maskUnits="userSpaceOnUse" x="42" y="24" width="10" height="12">
<path d="M42.8709 27.91C42.9456 27.0692 43.7116 26.3485 43.9118 25.3476L46.234 24.3467C46.9547 24.5469 48.356 25.3476 48.7564 26.0282C49.4158 27.1493 49.0299 28.2703 49.1968 28.6707C49.3636 29.0711 50.5981 29.1512 51.3187 29.9919C51.7592 30.5058 51.9193 32.154 51.7592 32.4342C51.1414 33.5152 50.7182 34.6363 49.1968 35.3169C47.4752 36.0871 44.2722 35.9175 44.0319 34.6763C43.4314 33.0348 44.1921 32.2741 43.9118 30.9929C43.5915 29.9919 42.7106 29.7117 42.8709 27.91Z" fill="#8F6857"/>
</mask>
<g mask="url(#mask16_2372_136018)">
<path d="M42.8709 27.91C42.9456 27.0692 43.7116 26.3485 43.9118 25.3476L46.234 24.3467C46.9547 24.5469 48.356 25.3476 48.7564 26.0282C49.4158 27.1493 49.0299 28.2703 49.1968 28.6707C49.3636 29.0711 50.5981 29.1512 51.3187 29.9919C51.7592 30.5058 51.9193 32.154 51.7592 32.4342C51.1414 33.5152 50.7182 34.6363 49.1968 35.3169C47.4752 36.0871 44.2722 35.9175 44.0319 34.6763C43.4314 33.0348 44.1921 32.2741 43.9118 30.9929C43.5915 29.9919 42.7106 29.7117 42.8709 27.91Z" fill="#8F6857"/>
<path d="M45.2159 25.8281L45.9584 25.5479C46.7292 25.8004 47.3259 26.0683 47.7167 26.8291C48.0684 27.5898 47.365 28.7509 47.7167 29.4315C47.9902 29.9609 48.928 29.912 49.3969 30.3524C49.7095 30.646 48.928 31.1932 49.1234 31.5535C49.2536 31.7938 50.2565 31.1932 50.4128 31.5535C50.6559 32.1141 49.2406 33.5154 48.2247 34.0359C47.2869 34.3962 46.4663 33.9558 46.3491 33.3552C46.1928 32.5545 46.6617 31.4734 46.3491 30.7127C46.0694 30.0321 45.3723 29.3915 45.216 28.4706C45.0206 27.6698 44.747 26.709 45.2159 25.8281Z" fill="#BF856C"/>
<path d="M46.4304 26.6689C46.5909 26.9033 46.7534 27.029 46.8415 27.269C46.959 27.5891 46.7114 28.2292 46.6066 28.6293C46.4597 29.1893 46.5442 29.6294 46.8415 29.9895C47.1058 30.3095 48.075 30.4295 48.1631 30.7896C48.2512 31.1496 47.6345 31.7497 47.6345 32.1098C47.6638 32.3898 48.0733 32.5561 48.5155 32.5099C47.9637 32.857 47.3995 32.5899 47.3408 32.3098C47.2653 31.9498 47.7813 31.3097 47.7226 30.9096C47.6756 30.5896 46.8121 30.5095 46.6066 30.2295C46.2835 29.7894 46.1954 28.9893 46.3422 28.3892C46.401 28.0692 46.6066 27.8691 46.6066 27.5891C46.6066 27.229 46.5772 26.989 46.4304 26.6689Z" fill="#D6A691"/>
<path d="M43.3906 28.831L44.2314 26.8291C44.8255 27.3138 45.1923 27.2295 45.3925 27.9101C45.5526 28.831 44.3363 30.0176 43.2304 31.1131L45.3925 33.2351L45.7528 36.8785L43.3906 36.0777L42.5898 29.8719L43.3906 28.831Z" fill="#8F6857"/>
<path d="M43.3906 24.587L46.3134 24.0303L47.1942 24.7509C46.1532 26.2285 45.2708 26.6306 43.3906 26.3486V24.587Z" fill="#8F6857"/>
</g>
<mask id="mask17_2372_136018" style="mask-type:alpha" maskUnits="userSpaceOnUse" x="41" y="17" width="6" height="9">
<path d="M41.9484 18.2616L42.7091 17.9013C45.832 17.5009 47.7538 22.8259 45.872 25.2281C45.6195 25.5506 45.2314 25.68 44.751 25.7486C41.6681 26.189 39.7464 20.6638 41.9484 18.2616Z" fill="#F25C5C"/>
</mask>
<g mask="url(#mask17_2372_136018)">
<path d="M41.9484 18.2616L42.7091 17.9013C45.832 17.5009 47.7538 22.8259 45.872 25.2281C45.6195 25.5506 45.2314 25.68 44.751 25.7486C41.6681 26.189 39.7464 20.6638 41.9484 18.2616Z" fill="#F25C5C"/>
<ellipse cx="42.2769" cy="20.4967" rx="0.779572" ry="1.19453" transform="rotate(1.79504 42.2769 20.4967)" fill="#F17B7B"/>
<path d="M42.748 17.6611L46.2313 17.1807L48.2732 25.1481L44.1494 27.2701L42.668 25.3083C45.3905 26.6314 47.4324 20.9842 42.748 17.6611Z" fill="#F14A4A"/>
<path d="M41.3467 18.7822C42.2748 18.7947 42.6679 19.1025 43.3085 19.663L43.6688 20.9042C42.9481 20.7841 42.2982 20.8176 41.8271 21.3046C42.3183 21.7989 42.6279 22.1854 42.788 22.9061C42.957 23.6668 41.8271 23.9871 42.0673 25.3884L40.7461 22.7459V20.3036L41.3467 18.7822Z" fill="#F14A4A"/>
</g>
<mask id="mask18_2372_136018" style="mask-type:alpha" maskUnits="userSpaceOnUse" x="35" y="15" width="19" height="49">
<path d="M35.5429 18.4608C35.2627 17.54 35.2501 16.9479 35.0625 15.9785C35.6097 16.8323 36.1435 17.3798 36.4638 18.1648L53.6398 63.4871C53.8 63.8232 52.8391 64.1435 52.719 63.7831L35.5429 18.4608Z" fill="#8F6857"/>
</mask>
<g mask="url(#mask18_2372_136018)">
<path d="M35.5429 18.4608C35.2627 17.54 35.2501 16.9479 35.0625 15.9785C35.6097 16.8323 36.1435 17.3798 36.4638 18.1648L53.6398 63.4871C53.8 63.8232 52.8391 64.1435 52.719 63.7831L35.5429 18.4608Z" fill="#8F6857"/>
<path d="M35.9414 18.1806C35.6611 17.2597 35.3008 16.5791 34.9805 15.8984C35.9414 16.1387 36.5419 17.0996 36.8622 17.8846L54.2384 63.5829C54.3986 63.919 53.4377 64.2393 53.3176 63.8789L35.9414 18.1806Z" fill="#684333"/>
</g>
<mask id="mask19_2372_136018" style="mask-type:alpha" maskUnits="userSpaceOnUse" x="45" y="48" width="7" height="9">
<path d="M46.1512 49.5302L49.7145 48.1689C52.1168 50.0107 52.6373 53.8543 50.7155 55.5759C50.3952 55.8628 50.1149 55.9857 49.7145 56.0563C46.3114 56.6569 44.4696 52.1326 46.1512 49.5302Z" fill="#F25C5C"/>
</mask>
<g mask="url(#mask19_2372_136018)">
<path d="M46.1512 49.5302L49.7145 48.1689C52.1168 50.0107 52.6373 53.8543 50.7155 55.5759C50.3952 55.8628 50.1149 55.9857 49.7145 56.0563C46.3114 56.6569 44.4696 52.1326 46.1512 49.5302Z" fill="#F25C5C"/>
<ellipse cx="46.9941" cy="52.1244" rx="0.887951" ry="1.23113" transform="rotate(-16.5048 46.9941 52.1244)" fill="#F17B7B"/>
<path d="M49.1952 48.6094L49.9559 48.0488L53.8796 52.6131L50.7567 58.2984L47.1133 55.5759C49.3554 55.9362 52.6384 52.6131 49.1952 48.6094Z" fill="#F14A4A"/>
<path d="M45.5898 49.8906L49.9539 48.3691V49.0097C48.993 49.6103 48.1454 50.1308 47.1913 50.371C46.5296 50.5376 46.1904 50.371 45.5898 50.4911V49.8906Z" fill="#F14A4A"/>
</g>
<mask id="mask20_2372_136018" style="mask-type:alpha" maskUnits="userSpaceOnUse" x="41" y="40" width="10" height="11">
<path d="M42.0269 41.8827L46.6713 40.001C47.0309 40.2199 47.2325 40.3426 47.5921 40.5615C47.9517 40.7804 48.8733 43.8045 49.1936 44.285C49.4338 44.6453 50.0744 44.8455 50.1945 45.1658C50.3447 45.5662 50.4348 47.3278 50.1945 47.8083C49.8542 48.4889 48.4329 49.2096 47.6722 49.4898C46.7113 49.9302 46.1508 49.6698 45.5902 49.8502C44.5393 50.1884 43.5483 50.1304 43.0679 49.7301C42.8677 49.5632 42.6275 48.1686 42.5474 47.6481C42.4981 47.3278 42.6275 46.9274 42.5474 46.6071C42.4874 46.3669 41.2262 45.6863 41.1861 45.1658C41.1553 44.7654 41.5865 44.1248 41.5865 43.8045C41.5865 43.5643 41.2262 43.3641 41.1861 43.0839C41.1518 42.8436 41.4664 42.2831 42.0269 41.8827Z" fill="#8F6857"/>
</mask>
<g mask="url(#mask20_2372_136018)">
<path d="M42.0269 41.8827L46.6713 40.001C47.0309 40.2199 47.2325 40.3426 47.5921 40.5615C47.9517 40.7804 48.8733 43.8045 49.1936 44.285C49.4338 44.6453 50.0744 44.8455 50.1945 45.1658C50.3447 45.5662 50.4348 47.3278 50.1945 47.8083C49.8542 48.4889 48.4329 49.2096 47.6722 49.4898C46.7113 49.9302 46.1508 49.6698 45.5902 49.8502C44.5393 50.1884 43.5483 50.1304 43.0679 49.7301C42.8677 49.5632 42.6275 48.1686 42.5474 47.6481C42.4981 47.3278 42.6275 46.9274 42.5474 46.6071C42.4874 46.3669 41.2262 45.6863 41.1861 45.1658C41.1553 44.7654 41.5865 44.1248 41.5865 43.8045C41.5865 43.5643 41.2262 43.3641 41.1861 43.0839C41.1518 42.8436 41.4664 42.2831 42.0269 41.8827Z" fill="#8F6857"/>
<path d="M43.6526 42.2923L45.4294 40.9219C45.9587 41.1177 46.3745 41.3917 46.6392 41.7441C46.8282 41.9958 46.5258 43.0363 46.6392 43.4278C46.7866 43.9368 47.5843 43.976 47.8867 44.5633C48.0379 44.994 47.6977 45.2289 47.6977 45.5422C47.6977 45.8554 48.794 45.6596 49.0586 45.8946C49.4997 46.2861 48.3025 47.5782 47.6977 47.9306C46.8912 48.4005 44.5221 49.1444 44.2575 48.8704C44.0685 48.5571 45.0892 47.6174 44.938 47.265C44.8708 47.1084 44.4465 47.4216 44.2575 47.265C44.1441 47.0301 44.6356 46.5994 44.4465 46.2861C44.1394 45.7771 43.3124 45.5422 43.1612 44.8765C43.0544 44.4067 43.6526 44.0934 43.6526 43.6627C43.6527 43.3702 43.3531 43.3286 43.1612 43.1146L43.6526 42.2923Z" fill="#BF856C"/>
<path d="M44.6063 42.7841C44.8552 43.0141 45.2541 43.1592 45.2435 43.3729C45.2265 43.7149 44.5873 44.1973 44.7237 44.5469C44.8601 44.8965 45.9958 44.7388 46.2813 45.1815C46.5098 45.5357 45.9916 45.8527 46.0257 46.1972C46.047 46.4125 46.7821 46.4491 46.8695 46.7534C46.9569 47.0577 46.4306 47.4106 46.1494 47.8317C46.2908 47.4037 46.6032 46.9544 46.5116 46.7356C46.4382 46.5605 45.8531 46.5743 45.7082 46.3957C45.4909 46.1277 45.949 45.6792 45.9106 45.4201C45.8594 45.0748 44.1377 44.9891 44.11 44.5163C44.0873 44.1295 44.762 43.7775 44.8855 43.3551C44.8962 43.1414 44.7154 43.0071 44.6063 42.7841Z" fill="#D6A691"/>
<path d="M42.9062 43.3241L46.3094 40.8418L46.87 41.5625C45.7089 42.6835 44.8201 43.4148 43.2666 44.1649L42.9062 43.3241Z" fill="#8F6857"/>
</g>
<mask id="mask21_2372_136018" style="mask-type:alpha" maskUnits="userSpaceOnUse" x="37" y="37" width="11" height="7">
<path fill-rule="evenodd" clip-rule="evenodd" d="M46.2314 37.7588L47.2324 37.0381L47.7021 38.2517C47.7257 38.2875 47.7348 38.333 47.721 38.38C47.1339 40.3818 46.0156 41.5429 43.2267 43.4705C43.1793 43.5033 43.1161 43.5082 43.0643 43.4829C40.7212 42.3387 39.5636 41.4403 37.9915 39.5345C37.969 39.5073 37.9576 39.4764 37.9553 39.4456L37.5039 38.2794L38.665 38.2394L38.9853 39.1602L38.7023 39.2621C41.5991 39.1982 43.5917 39.069 46.4827 38.4288L46.2314 37.7588Z" fill="#DB3C3C"/>
</mask>
<g mask="url(#mask21_2372_136018)">
<path fill-rule="evenodd" clip-rule="evenodd" d="M46.2314 37.7588L47.2324 37.0381L47.7021 38.2517C47.7257 38.2875 47.7348 38.333 47.721 38.38C47.1339 40.3818 46.0156 41.5429 43.2267 43.4705C43.1793 43.5033 43.1161 43.5082 43.0643 43.4829C40.7212 42.3387 39.5636 41.4403 37.9915 39.5345C37.969 39.5073 37.9576 39.4764 37.9553 39.4456L37.5039 38.2794L38.665 38.2394L38.9853 39.1602L38.7023 39.2621C41.5991 39.1982 43.5917 39.069 46.4827 38.4288L46.2314 37.7588Z" fill="#ABD39D"/>
<path d="M40.909 41.5623L42.7908 42.4832L43.2712 43.8845L40.7489 42.5232L37.5859 39.2802L37.9062 36.8779L40.909 41.5623Z" fill="#CDEBC2"/>
<mask id="mask22_2372_136018" style="mask-type:alpha" maskUnits="userSpaceOnUse" x="37" y="36" width="11" height="7">
<path d="M37.3661 38.489C37.3285 38.4442 37.3154 38.383 37.3478 38.3343C38.2049 37.0472 47.2405 35.8218 47.7041 37.2109C47.7123 37.2353 47.7108 37.2616 47.704 37.2863C47.111 39.44 45.9705 40.6209 42.9603 42.6317C42.9137 42.6628 42.8525 42.6675 42.8019 42.6436C40.2851 41.4561 39.0828 40.5328 37.3661 38.489Z" fill="#4EA04C"/>
</mask>
<g mask="url(#mask22_2372_136018)">
<path d="M37.3661 38.489C37.3285 38.4442 37.3154 38.383 37.3478 38.3343C38.2049 37.0472 47.2405 35.8218 47.7041 37.2109C47.7123 37.2353 47.7108 37.2616 47.704 37.2863C47.111 39.44 45.9705 40.6209 42.9603 42.6317C42.9137 42.6628 42.8525 42.6675 42.8019 42.6436C40.2851 41.4561 39.0828 40.5328 37.3661 38.489Z" fill="#4EA04C"/>
<path d="M42.6289 42.1619L47.073 36.7568L48.114 37.4775L46.1121 42.9226L42.9492 42.8826L42.6289 42.1619Z" fill="#316447"/>
</g>
</g>
<mask id="mask23_2372_136018" style="mask-type:alpha" maskUnits="userSpaceOnUse" x="37" y="36" width="11" height="7">
<path d="M37.5122 38.2934C37.4274 38.1906 37.4993 38.0355 37.6326 38.033C41.2102 37.9653 43.3556 37.8478 47.0505 36.9431C47.1687 36.9142 47.2759 37.0221 47.2417 37.1388C46.6546 39.1407 45.5363 40.3018 42.7474 42.2293C42.7 42.2621 42.6368 42.2671 42.585 42.2418C40.2419 41.0976 39.0843 40.1992 37.5122 38.2934Z" fill="#4EA04C"/>
</mask>
<g mask="url(#mask23_2372_136018)">
<path d="M37.5122 38.2934C37.4274 38.1906 37.4993 38.0355 37.6326 38.033C41.2102 37.9653 43.3556 37.8478 47.0505 36.9431C47.1687 36.9142 47.2759 37.0221 47.2417 37.1388C46.6546 39.1407 45.5363 40.3018 42.7474 42.2293C42.7 42.2621 42.6368 42.2671 42.585 42.2418C40.2419 41.0976 39.0843 40.1992 37.5122 38.2934Z" fill="#4EA04C"/>
<path d="M41.1484 37.2383L46.3133 36.7979C46.3133 37.2383 46.0101 37.7587 45.6326 38.2392C45.1922 38.7997 43.9546 39.2213 42.83 39.12L41.1484 37.2383Z" fill="#316447"/>
<path d="M37.3438 38.4795C41.0614 40.4413 42.743 40.6415 47.7134 38.6396L46.0319 43.0838H38.5849L37.3438 38.4795Z" fill="#69BB67"/>
</g>
<mask id="mask24_2372_136018" style="mask-type:alpha" maskUnits="userSpaceOnUse" x="38" y="30" width="7" height="10">
<path d="M39.268 31.5537L42.0706 30.4326C44.3527 32.3544 45.3136 35.157 44.5128 38.0798C44.2321 39.1043 42.7111 39.4811 41.5901 39.0006C39.2679 38.0054 38.107 34.3963 39.268 31.5537Z" fill="#F25C5C"/>
</mask>
<g mask="url(#mask24_2372_136018)">
<path d="M39.268 31.5537L42.0706 30.4326C44.3527 32.3544 45.3136 35.157 44.5128 38.0798C44.2321 39.1043 42.7111 39.4811 41.5901 39.0006C39.2679 38.0054 38.107 34.3963 39.268 31.5537Z" fill="#F25C5C"/>
<path d="M39.1474 31.7138L42.6707 29.5918V30.7529C41.7899 32.1542 39.5879 33.1151 38.707 32.3143L39.1474 31.7138Z" fill="#F14A4A"/>
<ellipse cx="40.116" cy="34.4138" rx="0.913508" ry="1.32984" transform="rotate(-6.09641 40.116 34.4138)" fill="#F17B7B"/>
<path d="M41.5898 30.4726L43.8719 29.5918L46.114 39.1207L41.5898 40.3218L40.4688 38.5201C42.7108 39.1207 45.5111 36.5583 41.5898 30.4726Z" fill="#F14A4A"/>
</g>
<mask id="mask25_2372_136018" style="mask-type:alpha" maskUnits="userSpaceOnUse" x="35" y="21" width="10" height="11">
<path d="M35.3008 24.5067L39.9451 21.7842C41.0363 22.16 41.5779 22.4344 41.9069 23.5058C42.116 24.1864 41.5866 25.2274 41.7868 25.5477C41.9069 25.828 43.5084 26.0682 44.069 27.5496C44.5537 28.8308 40.2654 33.1948 37.3026 31.5533C36.5419 31.1318 36.9824 28.1501 36.7822 27.8298C36.632 27.5896 36.1416 27.7497 35.7012 27.3494C35.3488 27.0291 35.3008 25.7078 35.3008 24.5067Z" fill="#8D695A"/>
</mask>
<g mask="url(#mask25_2372_136018)">
<path d="M35.3008 24.5067L39.9451 21.7842C41.0363 22.16 41.5779 22.4344 41.9069 23.5058C42.116 24.1864 41.5866 25.2274 41.7868 25.5477C41.9069 25.828 43.5084 26.0682 44.069 27.5496C44.5537 28.8308 40.2654 33.1948 37.3026 31.5533C36.5419 31.1318 36.9824 28.1501 36.7822 27.8298C36.632 27.5896 36.1416 27.7497 35.7012 27.3494C35.3488 27.0291 35.3008 25.7078 35.3008 24.5067Z" fill="#8D695A"/>
<path d="M36.7424 24.3866L38.7042 22.625C39.3765 23.0159 40.1455 23.0654 40.4258 23.6259C40.8662 24.3866 39.911 26.4686 40.4258 27.0691C40.666 27.3494 42.1655 27.1492 42.0273 27.8299C41.8627 28.6402 41.4659 29.2712 41.0264 29.6716C40.1081 30.5079 38.6641 31.2971 38.1837 30.9127C37.7833 30.5924 39.545 29.3432 39.1046 28.9909C38.9044 28.8308 38.3147 29.5114 38.1837 29.2712C37.9435 28.8308 38.5441 26.9891 38.1837 26.6287C37.9835 26.4286 37.5031 26.5086 37.0226 26.3084C36.6623 26.0282 36.7591 25.2239 36.7424 24.3866Z" fill="#BF856C"/>
<path d="M38.2639 24.1465C38.2639 24.5869 38.2639 25.014 38.424 25.0673C38.6643 25.1474 39.2782 24.5469 39.5451 24.747C39.8654 24.9873 39.0246 27.7098 39.1848 27.95C39.3449 28.1903 40.3458 27.95 40.6661 28.2303C40.9464 28.5106 40.2193 29.4534 39.5451 30.072C39.9054 29.5115 40.4259 28.6535 40.1056 28.4705C39.8253 28.3104 39.0647 28.4305 38.9045 28.2303C38.7443 28.0301 39.2648 25.5398 38.9845 25.4277C38.7843 25.3476 38.0665 25.6679 38.0237 25.4277C37.9305 24.9055 38.0249 24.6299 38.2639 24.1465Z" fill="#D6A691"/>
<path d="M36.8633 22.0244H39.826L40.4666 22.7851C38.7184 23.4781 37.9054 24.313 36.543 25.7479L36.8633 22.0244Z" fill="#8D695A"/>
</g>
<mask id="mask26_2372_136018" style="mask-type:alpha" maskUnits="userSpaceOnUse" x="34" y="19" width="9" height="9">
<path fill-rule="evenodd" clip-rule="evenodd" d="M34.882 25.4239C35.2791 23.5451 36.2798 21.2839 38.7016 19.4821C39.0854 19.3724 40.3888 19.7227 41.2626 20.2372L41.224 20.1428H41.7044L42.0263 20.9297C42.0417 20.9606 42.0545 20.9917 42.0644 21.0228L42.0647 21.0236H42.0647L42.0647 21.0238C38.76 22.3821 37.1778 23.8109 34.6578 27.1094C34.6578 27.1091 34.6579 27.1087 34.6579 27.1084L34.6572 27.1093L34.2969 26.2285L34.882 25.4239Z" fill="#316447"/>
</mask>
<g mask="url(#mask26_2372_136018)">
<path fill-rule="evenodd" clip-rule="evenodd" d="M34.882 25.4239C35.2791 23.5451 36.2798 21.2839 38.7016 19.4821C39.0854 19.3724 40.3888 19.7227 41.2626 20.2372L41.224 20.1428H41.7044L42.0263 20.9297C42.0417 20.9606 42.0545 20.9917 42.0644 21.0228L42.0647 21.0236H42.0647L42.0647 21.0238C38.76 22.3821 37.1778 23.8109 34.6578 27.1094C34.6578 27.1091 34.6579 27.1087 34.6579 27.1084L34.6572 27.1093L34.2969 26.2285L34.882 25.4239Z" fill="#ABD39D"/>
<path d="M34.2969 26.2693C36.7177 22.5531 38.4026 21.2499 41.904 20.0635V20.5039C38.3454 21.953 36.8593 23.5067 34.417 26.7097L34.2969 26.2693Z" fill="#316447"/>
</g>
<mask id="mask27_2372_136018" style="mask-type:alpha" maskUnits="userSpaceOnUse" x="34" y="18" width="8" height="9">
<path d="M34.2969 26.2294C34.417 24.1875 35.1297 20.9712 38.3406 18.5822C38.9012 18.4221 41.4235 19.2629 41.7038 20.1437C38.3991 21.502 36.8169 22.9309 34.2969 26.2294Z" fill="#4EA04C"/>
</mask>
<g mask="url(#mask27_2372_136018)">
<path d="M34.2969 26.2294C34.417 24.1875 35.1297 20.9712 38.3406 18.5822C38.9012 18.4221 41.4235 19.2629 41.7038 20.1437C38.3991 21.502 36.8169 22.9309 34.2969 26.2294Z" fill="#4EA04C"/>
<path d="M35.9639 21.0105C37.2664 20.1278 38.8451 20.6895 38.6872 22.0136L40.5817 23.9797L32.2539 27.4704L35.9639 21.0105Z" fill="#69BB67"/>
<path d="M37.0195 20.6639L38.3007 18.4219H39.2216L37.3799 20.9042L37.0195 20.6639Z" fill="#316447"/>
</g>
<mask id="mask28_2372_136018" style="mask-type:alpha" maskUnits="userSpaceOnUse" x="35" y="15" width="3" height="7">
<path d="M35.5429 18.4608C35.2627 17.54 35.2501 16.9479 35.0625 15.9785C35.6097 16.8323 36.1435 17.3798 36.4638 18.1648L37.4247 20.7029C37.5849 21.039 36.624 21.3593 36.5038 20.9989L35.5429 18.4608Z" fill="#8F6857"/>
</mask>
<g mask="url(#mask28_2372_136018)">
<path d="M35.5429 18.4608C35.2627 17.54 35.2501 16.9479 35.0625 15.9785C35.6097 16.8323 36.1435 17.3798 36.4638 18.1648L53.6398 63.4871C53.8 63.8232 52.8391 64.1435 52.719 63.7831L35.5429 18.4608Z" fill="#8F6857"/>
<path d="M35.9414 18.1806C35.6611 17.2597 35.3008 16.5791 34.9805 15.8984C35.9414 16.1387 36.5419 17.0996 36.8622 17.8846L54.2384 63.5829C54.3986 63.919 53.4377 64.2393 53.3176 63.8789L35.9414 18.1806Z" fill="#684333"/>
</g>
</svg>
