<svg width="70" height="70" viewBox="0 0 70 70" fill="none" xmlns="http://www.w3.org/2000/svg">
<rect width="70" height="70" fill="white"/>
<path d="M11.2012 8.16669C10.7346 5.36669 14.0015 3.96667 16.3347 5.83335C17.1162 6.45858 18.2012 8.42565 18.2012 9.56668C18.2012 12.1334 16.1014 13.0667 14.0012 11.6667C12.7392 10.8254 11.4136 9.44134 11.2012 8.16669Z" fill="#F68989" fill-opacity="0.2"/>
<path d="M64.6086 22.1952C66.0086 20.7952 68.5752 21.4952 68.3419 23.5952C68.1429 25.3863 66.9419 26.6285 65.3086 27.7952C63.9083 28.7953 64.1421 28.2618 64.1419 26.1618C64.1418 25.3835 63.4417 23.3618 64.6086 22.1952Z" fill="#F68989" fill-opacity="0.2"/>
<path d="M10.0343 16.7998C13.301 16.3332 22.8677 18.1998 26.601 16.3332C29.401 14.9332 39.4343 6.74314 48.301 6.29983C52.9677 6.0665 59.5593 10.0332 60.201 15.1665C60.6677 18.8998 58.801 22.8198 60.201 28.6998C61.0343 32.1998 67.6677 38.4998 66.501 46.8998C65.5295 53.8946 57.1677 61.1332 49.001 62.9998H15.8675C13.5342 62.9998 9.69245 62.7111 8.40087 59.9665C6.5342 55.9998 12.8342 49.9332 11.4343 45.0332C10.5755 42.0268 5.60117 35.6998 4.43434 29.1665C3.74666 25.316 5.13434 17.4998 10.0343 16.7998Z" fill="#F68989" fill-opacity="0.2"/>
<ellipse cx="35.4659" cy="63.4664" rx="31.2667" ry="1.4" fill="#F25C5C"/>
<path d="M61.7891 45.4696C63.0023 44.3646 64.7083 42.9396 65.2921 43.1342C66.1679 43.4261 66.4598 44.8857 65.876 46.6373C68.026 50.6053 67.141 53.9353 66.1679 54.5192C65.4245 54.9652 63.2487 53.3515 62.3729 52.7676L61.7891 45.4696Z" fill="#2F2F2F"/>
<mask id="mask0_2348_140739" style="mask-type:alpha" maskUnits="userSpaceOnUse" x="10" y="25" width="54" height="39">
<path d="M10.1172 25.6195C26.773 22.8215 33.4845 30.7505 46.0236 42.843C48.748 45.4703 52.4459 46.9299 55.949 46.9299C58.2844 46.9299 60.0359 46.6379 61.7875 45.4703C63.3939 45.5856 63.6698 46.6183 63.8309 48.9733C63.8309 50.4329 63.2471 51.8926 62.3713 52.7683C60.0183 52.557 59.0219 53.1338 57.1167 53.936C51.5702 56.2714 48.359 59.7745 40.769 61.526C34.3467 63.0081 23.2537 63.8614 18.291 63.8614L10.1172 25.6195Z" fill="#835A48"/>
</mask>
<g mask="url(#mask0_2348_140739)">
<path d="M10.1172 25.6195C26.773 22.8215 33.4845 30.7505 46.0236 42.843C48.748 45.4703 52.4459 46.9299 55.949 46.9299C58.2844 46.9299 60.0359 46.6379 61.7875 45.4703C63.3939 45.5856 63.6698 46.6183 63.8309 48.9733C63.8309 50.4329 63.2471 51.8926 62.3713 52.7683C60.0183 52.557 59.0219 53.1338 57.1167 53.936C51.5702 56.2714 48.359 59.7745 40.769 61.526C34.3467 63.0081 23.2537 63.8614 18.291 63.8614L10.1172 25.6195Z" fill="#835A48"/>
<path d="M21 26.6016L23.7018 27.5048L22.7193 29.0102L23.9474 29.9134L22.9649 30.5155L24.6842 31.1177L23.2105 32.322L24.9298 32.9241L23.9474 33.5263L25.6667 33.8274L22.9649 35.9349L24.193 34.279L22.4737 34.1284L23.2105 33.2252L21.4912 32.6231L23.2105 31.4188L21.4912 30.8166L22.4737 29.9134L21.4912 29.0102L22.4737 27.5048L21 26.6016Z" fill="#694037"/>
<path d="M43.1051 38.7559L67.0427 42.8428L63.5396 54.8116L57.4093 62.1097L16.832 64.1531L27.3412 52.1843C35.4736 50.5157 38.2244 46.3083 43.1051 38.7559Z" fill="#694037"/>
</g>
<mask id="mask1_2348_140739" style="mask-type:alpha" maskUnits="userSpaceOnUse" x="3" y="25" width="27" height="39">
<path d="M5.15552 29.9979C6.90706 25.0352 12.4939 23.6572 16.2486 28.5383C19.1678 32.3333 20.0436 37.0041 21.2113 39.6314C22.1899 41.8334 28.5093 42.5506 29.0932 56.5628C29.0932 61.5255 22.6709 63.8609 17.4163 63.8609C6.61514 63.8609 3.69591 50.7244 3.40399 46.9294C3.08938 42.8425 3.19826 35.5444 5.15552 29.9979Z" fill="#FE6D6D"/>
</mask>
<g mask="url(#mask1_2348_140739)">
<path d="M5.15552 29.9979C6.90706 25.0352 12.4939 23.6572 16.2486 28.5383C19.1678 32.3333 20.0436 37.0041 21.2113 39.6314C22.1899 41.8334 28.5093 42.5506 29.0932 56.5628C29.0932 61.5255 22.6709 63.8609 17.4163 63.8609C6.61514 63.8609 3.69591 50.7244 3.40399 46.9294C3.08938 42.8425 3.19826 35.5444 5.15552 29.9979Z" fill="#DFDFDF"/>
<path d="M2.52888 25.3271H16.8331C26.1746 46.6375 3.40465 59.1901 0.777344 47.5133L2.52888 39.3394V25.3271Z" fill="white"/>
</g>
<mask id="mask2_2348_140739" style="mask-type:alpha" maskUnits="userSpaceOnUse" x="4" y="28" width="18" height="35">
<path d="M5.13633 35.0009C6.30292 32.6676 5.83623 29.4009 7.703 28.2342C8.82307 27.5342 8.16956 30.8009 8.403 31.7342C8.63623 32.9009 9.1029 36.6342 10.0363 37.5676C11.0991 38.6302 11.6696 39.9009 12.1363 41.0676C12.558 42.1216 13.3029 42.7009 13.303 43.6342C13.303 44.1009 12.1362 45.5009 12.1363 46.6676C12.1362 47.8342 12.3696 48.3009 12.8362 49.7009C13.0696 50.4009 13.5362 52.5009 16.803 52.5009C17.369 52.5009 17.5029 55.3009 17.9697 56.7009C18.2948 57.6762 18.9651 58.2652 19.603 59.2676C20.1969 60.2009 22.1696 61.9898 21.2363 62.3009C19.8363 62.7676 17.9696 61.8342 17.0362 61.8342C16.1029 61.8342 14.9363 62.3009 13.7697 62.0676C12.0554 61.7247 10.2697 59.9676 9.103 58.3342C8.16966 57.0276 8.0164 55.9166 7.46966 54.3676C7.0579 53.2009 5.13633 50.6342 4.43633 46.6676C3.96966 43.8676 4.49374 36.2863 5.13633 35.0009Z" fill="#F35454"/>
</mask>
<g mask="url(#mask2_2348_140739)">
<path d="M6.46898 32.0142C6.2715 33.0535 6.0507 34.2156 5.55373 35.2096C5.50035 35.3164 5.43163 35.5284 5.35809 35.858C5.28677 36.1777 5.2174 36.5772 5.15231 37.0377C5.02222 37.958 4.91206 39.1012 4.83608 40.2959C4.68327 42.6987 4.6729 45.2456 4.89629 46.5887C5.23658 48.5155 5.87385 50.106 6.48136 51.3647C6.75106 51.9235 7.01357 52.4145 7.24419 52.8458C7.27407 52.9016 7.30341 52.9565 7.33216 53.0104C7.57611 53.4676 7.79261 53.8804 7.90973 54.2122C8.06792 54.6605 8.19131 55.0597 8.30533 55.4285C8.60676 56.4037 8.84265 57.1669 9.48274 58.063C10.0486 58.8551 10.7616 59.6726 11.5334 60.3294C12.3113 60.9913 13.1146 61.4606 13.8612 61.61C14.3601 61.7097 14.8757 61.663 15.4177 61.5774C15.5343 61.559 15.6553 61.538 15.7788 61.5166C16.1948 61.4445 16.6388 61.3675 17.0362 61.3675C17.3319 61.3675 17.6729 61.4394 18.0002 61.5194C18.1479 61.5555 18.2901 61.5925 18.4332 61.6298C18.6362 61.6826 18.8411 61.7359 19.0662 61.7878C19.774 61.9512 20.4388 62.0366 20.987 61.8888C20.9326 61.7533 20.8114 61.5548 20.6186 61.297C20.4324 61.048 20.2116 60.7845 19.9882 60.5178C19.9528 60.4755 19.9173 60.4331 19.8819 60.3907C19.6323 60.092 19.377 59.7816 19.2093 59.5181C18.9957 59.1824 18.786 58.9057 18.5751 58.6274C18.4812 58.5034 18.387 58.3792 18.2922 58.2493C17.9934 57.84 17.712 57.4034 17.527 56.8485C17.3349 56.2723 17.1955 55.473 17.0699 54.7524C17.034 54.5465 16.9993 54.3471 16.9647 54.1611C16.8833 53.7228 16.8042 53.3612 16.7179 53.1143C16.6952 53.0493 16.6748 53.001 16.6581 52.9662C14.9984 52.9357 13.973 52.3804 13.336 51.6765C12.7717 51.0527 12.5492 50.3429 12.4324 49.9703C12.418 49.9243 12.4052 49.8834 12.3935 49.8485C12.3238 49.6393 12.2585 49.4492 12.1978 49.2727C11.8615 48.2939 11.6696 47.7354 11.6697 46.6676L6.46898 32.0142ZM6.46898 32.0142C6.51743 31.7592 6.56448 31.5116 6.61387 31.2757M6.46898 32.0142L6.61387 31.2757M6.61387 31.2757C6.86875 30.0579 7.17844 29.1668 7.86701 28.6851M6.61387 31.2757L7.86701 28.6851M7.86701 28.6851C7.87591 28.7285 7.88439 28.7807 7.89171 28.8427C7.90936 28.9922 7.91744 29.1718 7.91883 29.3749C7.92074 29.6528 7.91048 29.9468 7.90008 30.2449C7.895 30.3905 7.88989 30.537 7.88614 30.6832C7.87573 31.0893 7.87366 31.5293 7.94731 31.8354C7.98659 32.0332 8.03252 32.3042 8.08782 32.6305C8.11185 32.7724 8.13766 32.9247 8.16545 33.0859C8.25695 33.6167 8.36774 34.2301 8.50128 34.8384C8.63442 35.445 8.7925 36.0573 8.98072 36.5836C9.16312 37.0935 9.39529 37.5865 9.70636 37.8976C10.6976 38.8887 11.2396 40.0825 11.7031 41.2409C11.8858 41.6976 12.1304 42.0845 12.3327 42.4043C12.3848 42.4868 12.4342 42.5649 12.4789 42.6385C12.7053 43.011 12.8333 43.2946 12.8363 43.6228C12.8349 43.6285 12.8302 43.6486 12.8158 43.6871C12.7929 43.7482 12.7565 43.8277 12.7047 43.9295C12.6447 44.0476 12.5807 44.1645 12.5095 44.2948C12.4481 44.4071 12.3812 44.5294 12.3067 44.671C12.0175 45.2204 11.6696 45.9557 11.6697 46.6675L7.86701 28.6851ZM21.0165 61.9899C21.0164 61.9899 21.0164 61.9893 21.0164 61.9882C21.0165 61.9893 21.0165 61.9899 21.0165 61.9899ZM8.00527 28.6009C8.00728 28.6001 8.00825 28.5999 8.00823 28.6C8.00822 28.6 8.00721 28.6004 8.00527 28.6009ZM7.81787 28.5289C7.81787 28.5289 7.81813 28.5293 7.81861 28.5301L7.81787 28.5289Z" fill="#FE6D6D" stroke="#F35454" stroke-width="0.933333"/>
<mask id="mask3_2348_140739" style="mask-type:alpha" maskUnits="userSpaceOnUse" x="6" y="37" width="11" height="23">
<path d="M6.53912 46.4338C6.18437 44.1279 6.27871 40.1272 6.80904 37.4769C6.88197 37.1125 7.3234 37.0121 7.54371 37.3114C8.68043 38.8558 10.2603 41.5961 10.9074 43.4414C10.9503 43.5638 10.9361 43.6981 10.875 43.8125C9.797 45.8282 9.66743 47.4537 10.739 50.4005C11.7804 53.2644 13.3514 54.0483 14.8983 54.7161C15.0653 54.7882 15.1733 54.9503 15.1982 55.1304C15.3626 56.3209 16.2543 58.0967 16.9144 59.1804C17.0819 59.4553 16.9449 59.8249 16.6285 59.8842C12.9018 60.5835 11.3897 57.7686 10.5057 56.0005C10.1223 55.2335 9.70362 54.0606 9.33913 52.9671C8.79468 51.3338 7.00578 49.4671 6.53912 46.4338Z" fill="#FF8686"/>
</mask>
<g mask="url(#mask3_2348_140739)">
<path d="M6.53912 46.4338C6.18437 44.1279 6.27871 40.1272 6.80904 37.4769C6.88197 37.1125 7.3234 37.0121 7.54371 37.3114C8.68043 38.8558 10.2603 41.5961 10.9074 43.4414C10.9503 43.5638 10.9361 43.6981 10.875 43.8125C9.797 45.8282 9.66743 47.4537 10.739 50.4005C11.7804 53.2644 13.3514 54.0483 14.8983 54.7161C15.0653 54.7882 15.1733 54.9503 15.1982 55.1304C15.3626 56.3209 16.2543 58.0967 16.9144 59.1804C17.0819 59.4553 16.9449 59.8249 16.6285 59.8842C12.9018 60.5835 11.3897 57.7686 10.5057 56.0005C10.1223 55.2335 9.70362 54.0606 9.33913 52.9671C8.79468 51.3338 7.00578 49.4671 6.53912 46.4338Z" fill="#FF8686"/>
</g>
<path d="M9.80177 43.4014C8.63522 46.9014 8.86858 50.6347 13.0686 54.6014C8.63527 50.868 8.16846 47.6014 9.80177 43.4014Z" fill="#FFB5B5"/>
<path d="M8.79951 42.001C8.16842 45.9676 6.97413 48.301 9.56842 51.801C6.53512 48.7676 7.16619 46.201 8.79951 42.001Z" fill="#FFB5B5"/>
<path d="M10.2695 52.7344C10.9695 55.301 12.1362 55.5344 14.4695 55.301C11.9029 56.4677 10.5029 55.301 10.2695 52.7344Z" fill="#FFB5B5"/>
<path d="M11.2031 56.001C12.3698 57.6343 13.5365 57.1676 15.013 56.6024C13.5365 57.8676 12.3698 58.3343 11.2031 56.001Z" fill="#FFB5B5"/>
<path d="M8.63633 40.3672C7.20162 42.2339 6.76977 43.4005 7.00316 45.2672C6.30327 43.1672 6.53633 41.3005 8.63633 40.3672Z" fill="#FFB5B5"/>
</g>
<mask id="mask4_2348_140739" style="mask-type:alpha" maskUnits="userSpaceOnUse" x="12" y="43" width="7" height="9">
<ellipse cx="15.3818" cy="47.6586" rx="2.83556" ry="4.20984" transform="rotate(-8.71043 15.3818 47.6586)" fill="white"/>
</mask>
<g mask="url(#mask4_2348_140739)">
<ellipse cx="15.3818" cy="47.6586" rx="2.83556" ry="4.20984" transform="rotate(-8.71043 15.3818 47.6586)" fill="#DFDFDF"/>
<ellipse cx="15.009" cy="47.7157" rx="2.45836" ry="4.20984" transform="rotate(-8.71043 15.009 47.7157)" fill="white"/>
<ellipse cx="15.0879" cy="47.7737" rx="1.75288" ry="3.22282" transform="rotate(-8.71043 15.0879 47.7737)" fill="#F35454"/>
</g>
<mask id="mask5_2348_140739" style="mask-type:alpha" maskUnits="userSpaceOnUse" x="17" y="41" width="12" height="21">
<path d="M18.3569 45.6046C18.2655 45.2557 18.3763 44.8849 18.6313 44.6298C19.8829 43.3777 20.8852 41.7676 21.9344 41.7676C22.6344 41.7676 24.8899 44.5676 25.4344 46.2009C25.901 47.6009 26.801 48.5342 27.301 49.7009C28.001 51.3342 28.2344 54.8342 28.001 56.2342C27.6366 57.3277 27.8208 58.3342 27.0677 59.0342C25.7003 60.3053 24.975 61.1843 23.0893 61.6804C22.686 61.7865 22.2751 61.5751 22.066 61.2143C21.1554 59.6432 19.9616 58.3554 19.1344 56.7009C18.4808 55.3937 18.234 54.2899 17.8243 52.6298C17.7669 52.3973 17.802 52.1514 17.9144 51.94C18.9741 49.9471 19.0974 48.4319 18.3569 45.6046Z" fill="#FE6D6D"/>
</mask>
<g mask="url(#mask5_2348_140739)">
<path d="M18.3569 45.6046C18.2655 45.2557 18.3763 44.8849 18.6313 44.6298C19.8829 43.3777 20.8852 41.7676 21.9344 41.7676C22.6344 41.7676 24.8899 44.5676 25.4344 46.2009C25.901 47.6009 26.801 48.5342 27.301 49.7009C28.001 51.3342 28.2344 54.8342 28.001 56.2342C27.6366 57.3277 27.8208 58.3342 27.0677 59.0342C25.7003 60.3053 24.975 61.1843 23.0893 61.6804C22.686 61.7865 22.2751 61.5751 22.066 61.2143C21.1554 59.6432 19.9616 58.3554 19.1344 56.7009C18.4808 55.3937 18.234 54.2899 17.8243 52.6298C17.7669 52.3973 17.802 52.1514 17.9144 51.94C18.9741 49.9471 19.0974 48.4319 18.3569 45.6046Z" fill="#F35454"/>
<path d="M19.194 46.386C19.1192 46.0853 19.2118 45.7674 19.4249 45.5423C20.5019 44.405 21.363 42.9346 22.2646 42.9346C22.864 42.9346 24.7955 45.4741 25.2618 46.9555C25.6614 48.2253 26.4321 49.0718 26.8603 50.1299C27.4597 51.6113 27.6595 54.7857 27.4597 56.0555C27.1476 57.0473 27.3053 57.9602 26.6605 58.595C25.5007 59.7368 24.8804 60.5298 23.2999 60.982C22.9309 61.0875 22.5516 60.8895 22.3668 60.5531C21.5884 59.1369 20.572 57.9726 19.8668 56.4788C19.3046 55.2877 19.0939 54.2828 18.7401 52.7655C18.6939 52.5672 18.7224 52.3587 18.814 52.1769C19.7324 50.3547 19.8378 48.9764 19.194 46.386Z" fill="#FE6D6D"/>
<path d="M19.9919 47.5561C19.9347 47.3075 20.0081 47.0471 20.1757 46.8549C20.9616 45.9536 21.592 44.8008 22.2517 44.8008C22.6934 44.8008 24.1166 46.8194 24.4602 47.9969C24.7546 49.0062 25.3225 49.6791 25.638 50.5202C26.0797 51.6977 26.2269 54.2209 26.0797 55.2302C25.8497 56.0186 25.9659 56.7442 25.4908 57.2488C24.6625 58.1285 24.2076 58.7477 23.12 59.1122C22.7922 59.2221 22.4487 59.0384 22.2891 58.7317C21.7208 57.6389 20.9932 56.7281 20.4849 55.5667C20.0712 54.6213 19.9158 53.8234 19.6558 52.6202C19.6209 52.4586 19.6427 52.2898 19.7126 52.1399C20.3848 50.6979 20.4625 49.604 19.9919 47.5561Z" fill="#FF8686"/>
<path d="M21.0024 47.1338C21.0746 47.1815 21.138 47.239 21.1933 47.3051C23.6144 49.65 19.8591 53.3011 20.3024 52.7338C20.6572 52.2799 22.1637 48.4642 21.1933 47.3051C21.1335 47.2472 21.0699 47.19 21.0024 47.1338Z" fill="#FFB5B5"/>
<path d="M21.6992 52.5008C22.8659 51.5674 23.0992 50.6341 23.3326 48.3008C23.5289 49.6544 23.7992 50.4008 23.3326 51.3341C23.0992 51.8008 22.4753 52.4073 21.6992 52.5008Z" fill="#FFB5B5"/>
<path d="M22.3999 56.7887C23.559 56.4756 23.917 55.946 24.5115 54.5408C24.4513 55.4329 24.5573 55.9624 23.999 56.4379C23.7199 56.6756 23.0819 56.9102 22.3999 56.7887Z" fill="#FFB5B5"/>
<path d="M21.2344 55.0678C23.3773 54.1345 24.2677 52.0345 24.2677 49.7012C24.501 51.3345 24.0344 52.9678 23.5677 53.9012C23.3344 54.3678 22.0105 54.9743 21.2344 55.0678Z" fill="#FFB5B5"/>
</g>
<mask id="mask6_2348_140739" style="mask-type:alpha" maskUnits="userSpaceOnUse" x="10" y="30" width="10" height="14">
<path d="M10.1137 31.7031C10.0759 31.3031 10.2794 30.9093 10.6728 30.8279C11.6247 30.6309 13.0529 30.6611 15.1747 30.1569C15.3238 30.1215 15.4849 30.1117 15.6191 30.1857C16.3018 30.5625 16.1522 31.7525 16.5685 32.6682C16.9927 33.6016 17.9685 33.8349 18.4352 34.7682C19.294 36.4859 19.3625 38.5988 19.9135 40.1978C20.0029 40.4574 19.9996 40.7442 19.8678 40.9851C19.3461 41.9384 18.7196 42.7655 18.0696 43.385C17.7537 43.686 17.2725 43.6554 16.9012 43.4264C16.1723 42.9769 15.4445 42.8446 14.3651 42.7363C14.1319 42.7129 13.9123 42.6067 13.7631 42.4261C13.342 41.9162 13.1308 41.5087 12.8352 40.8349C12.1352 38.9682 10.9685 37.8016 10.5018 35.7016C10.1893 34.295 10.242 33.0616 10.1137 31.7031Z" fill="#F35454"/>
</mask>
<g mask="url(#mask6_2348_140739)">
<path d="M10.5783 31.6592C10.5678 31.548 10.5927 31.4511 10.6315 31.3864C10.667 31.3274 10.7114 31.2965 10.7674 31.2849C11.095 31.2171 11.4789 31.1787 11.9643 31.1303C12.1405 31.1127 12.3301 31.0937 12.5352 31.0716C13.2872 30.9903 14.1957 30.8692 15.2826 30.611C15.332 30.5992 15.3664 30.5961 15.3879 30.5967C15.3933 30.5969 15.3971 30.5973 15.3995 30.5976C15.5339 30.6754 15.6364 30.8591 15.7377 31.3242C15.7563 31.4094 15.7746 31.5043 15.7943 31.6059C15.8673 31.9833 15.9581 32.4532 16.1437 32.8613C16.4039 33.4338 16.8326 33.7857 17.1801 34.071L17.1898 34.0789C17.555 34.3787 17.8354 34.6123 18.0178 34.9769C18.4179 35.7771 18.6402 36.683 18.8326 37.6213C18.8687 37.7973 18.9039 37.9755 18.9393 38.1545C19.0879 38.907 19.2393 39.6736 19.4722 40.3498C19.5279 40.5112 19.515 40.6577 19.4584 40.7611C18.9565 41.6783 18.3581 42.4654 17.7476 43.0471C17.6373 43.1523 17.4064 43.1897 17.1461 43.0292C16.3213 42.5205 15.5023 42.3814 14.4117 42.2719C14.2863 42.2593 14.185 42.204 14.1229 42.1289C13.7434 41.6694 13.5526 41.3078 13.2675 40.6589C12.9653 39.8565 12.5781 39.1723 12.2133 38.528C12.1372 38.3935 12.0621 38.2608 11.9889 38.1291C11.5586 37.3545 11.1761 36.5844 10.9574 35.6003C10.8086 34.9309 10.7456 34.298 10.7044 33.6544C10.6907 33.4421 10.6794 33.2245 10.6678 33.0031C10.6449 32.5664 10.6213 32.1149 10.5783 31.6592Z" fill="#FE6D6D" stroke="#F35454" stroke-width="0.933333"/>
<path d="M11.9027 32.8298C11.9021 32.6016 12.0673 32.407 12.2923 32.3694L14.2753 32.0389C14.5162 31.9988 14.7463 32.152 14.8106 32.3876C15.2084 33.8467 15.6616 34.5646 16.7182 35.4019C16.7732 35.4454 16.8189 35.5007 16.8497 35.5637C17.6501 37.2014 17.8141 38.4024 17.969 40.1344C17.9528 40.5692 17.832 40.9689 17.5167 41.31C17.381 41.4569 17.1586 41.4566 16.9833 41.3604C16.4035 41.0422 15.8495 40.9465 15.2252 40.8691C15.0482 40.8472 14.8991 40.7267 14.8352 40.5602C14.1704 38.8265 13.2567 37.9432 12.369 36.1678C11.9463 35.3224 11.9065 34.0941 11.9027 32.8298Z" fill="#FF8686"/>
<path d="M14.9336 40.1342C15.1669 39.2009 16.8003 39.6675 17.5003 40.8342C16.2665 40.0967 15.6336 39.9009 14.9336 40.1342Z" fill="#FFB5B5"/>
<path d="M12.6016 34.5649C12.8349 33.6315 14.4682 34.0982 15.1682 35.2649C13.9344 34.5273 13.3016 34.3315 12.6016 34.5649Z" fill="#FFB5B5"/>
<path d="M14.4688 38.2062C15.4021 37.5062 17.2687 37.5907 17.5021 39.4573C16.5687 37.824 15.1687 37.9729 14.4688 38.2062Z" fill="#FFB5B5"/>
<path d="M14 36.7476C14.4667 36.0476 15.1667 36.5143 15.6332 37.2143C14.9333 36.7476 14.4667 36.5143 14 36.7476Z" fill="#FFB5B5"/>
</g>
<mask id="mask7_2348_140739" style="mask-type:alpha" maskUnits="userSpaceOnUse" x="9" y="27" width="6" height="4">
<path d="M9.84949 27.9401C9.91261 27.6278 10.1315 27.3009 10.4501 27.3059C11.477 27.322 12.1656 27.3998 13.0687 27.7684C13.4165 27.9104 13.6865 28.3114 14.0549 28.7088C14.3375 29.0137 14.2544 29.607 13.8476 29.6928C12.7547 29.9233 11.5404 30.0197 10.2068 30.0925C10.0961 30.0986 9.98519 30.0665 9.90265 29.9926C9.56842 29.6931 9.52513 29.4251 9.56869 28.9351C9.60463 28.5307 9.78431 28.2626 9.84949 27.9401Z" fill="#FE6D6D"/>
</mask>
<g mask="url(#mask7_2348_140739)">
<path d="M10.0782 27.9864C10.1033 27.8624 10.1589 27.7406 10.2315 27.6554C10.3028 27.5718 10.3758 27.5381 10.4464 27.5392C11.4582 27.5551 12.1147 27.6311 12.9805 27.9845C13.1059 28.0356 13.232 28.1402 13.3837 28.3023C13.4584 28.382 13.5343 28.4701 13.6176 28.5666C13.6998 28.6619 13.7884 28.7646 13.8837 28.8674C13.9677 28.9581 14.0053 29.1048 13.9803 29.2408C13.9557 29.3744 13.884 29.4467 13.7995 29.4645C12.7255 29.691 11.5266 29.7868 10.1941 29.8596C10.1347 29.8628 10.0876 29.845 10.0584 29.8188C9.91555 29.6909 9.85072 29.5849 9.81842 29.4714C9.78356 29.3489 9.77981 29.1953 9.8011 28.9558C9.81637 28.784 9.86203 28.6386 9.91735 28.4868C9.92648 28.4618 9.93615 28.4359 9.94609 28.4094C9.99369 28.2821 10.0475 28.1383 10.0782 27.9864Z" fill="#FE6D6D" stroke="#F35454" stroke-width="0.466667"/>
</g>
<path d="M10.6823 28.4376C10.7113 28.3216 10.8233 28.2462 10.9417 28.2632L12.3143 28.4592C12.3488 28.4642 12.3817 28.4768 12.4107 28.4961L12.5167 28.5667C12.6998 28.6888 12.6276 28.9733 12.4084 28.9932L10.8272 29.137C10.6672 29.1515 10.5407 29.0039 10.5797 28.848L10.6823 28.4376Z" fill="#FF8686"/>
<path d="M24.9648 37.7998L27.9982 38.2665L26.3648 39.6665L28.6982 40.1331L27.2982 41.5331L28.6982 42.2331L27.0648 43.8665L27.7648 42.4665L25.6648 41.9998L27.0648 40.5998L24.9648 40.1331L26.5982 38.4998L24.9648 37.7998Z" fill="#694037"/>
<mask id="mask8_2348_140739" style="mask-type:alpha" maskUnits="userSpaceOnUse" x="25" y="22" width="35" height="42">
<path d="M27.5347 24.7341C30.1014 21.2341 49.0014 21.4674 51.5681 28.7007C54.1347 35.9341 53.2708 42.6755 54.3681 45.9674C54.8347 47.3674 57.7014 49.0008 59.5014 55.3008C59.9681 56.9341 59.1903 59.2674 57.6347 60.4341C53.9014 63.2341 47.1559 63.7008 42.0014 63.7008C36.4014 63.7008 35.4681 59.0341 34.3014 56.9341C33.441 55.3853 30.8912 52.7341 30.1014 50.1674C29.168 47.1341 29.3548 44.3341 28.2347 41.5341C27.3014 39.2008 26.6013 37.1008 25.6681 33.6008C25.1082 31.5008 25.6681 27.2795 27.5347 24.7341Z" fill="white"/>
</mask>
<g mask="url(#mask8_2348_140739)">
<path d="M27.5347 24.7341C30.1014 21.2341 49.0014 21.4674 51.5681 28.7007C54.1347 35.9341 53.2708 42.6755 54.3681 45.9674C54.8347 47.3674 57.7014 49.0008 59.5014 55.3008C59.9681 56.9341 59.1903 59.2674 57.6347 60.4341C53.9014 63.2341 47.1559 63.7008 42.0014 63.7008C36.4014 63.7008 35.4681 59.0341 34.3014 56.9341C33.441 55.3853 30.8912 52.7341 30.1014 50.1674C29.168 47.1341 29.3548 44.3341 28.2347 41.5341C27.3014 39.2008 26.6013 37.1008 25.6681 33.6008C25.1082 31.5008 25.6681 27.2795 27.5347 24.7341Z" fill="white"/>
<path d="M23.5703 30.5673L26.137 24.5006L30.1036 23.1006C28.0805 24.833 27.7703 26.3673 28.237 28.7006C28.517 30.1006 27.3036 31.2673 26.6036 32.2006C26.3703 32.5117 26.0475 33.5836 26.137 34.0673C26.4446 35.7292 26.8572 36.5919 27.7703 37.8006C28.7036 36.8673 29.1703 36.6339 30.8036 36.4006C29.4691 37.0604 29.0634 37.5987 28.7036 38.7339C28.4079 39.6673 30.8036 44.3339 29.1703 45.2673L27.0703 43.4006L23.5703 30.5673Z" fill="#FE6D6D"/>
<path d="M38.7362 60.9009C39.6271 61.5629 39.9525 62.1036 40.6028 63.0009C40.8038 63.2781 40.664 63.7188 40.6028 64.1676H38.7362L35.2362 60.4342L35.0028 59.2676L32.9028 55.0676C32.8481 53.9055 32.9595 53.2837 33.6028 52.2676C33.4784 53.3934 33.5334 53.9531 33.8362 54.8342C34.3172 56.2342 35.2363 58.1009 35.9362 58.8009C36.0971 58.9619 36.4029 58.8009 36.8695 58.8009C37.6742 58.8009 38.5029 59.7342 38.9695 60.2009C38.7282 60.4187 38.6771 60.5721 38.7362 60.9009Z" fill="#FE6D6D"/>
<path d="M44.8018 60.9009L59.9685 55.7676L60.2018 59.9676L54.6018 63.4676L41.5352 64.1676C41.7685 63.2342 42.2352 62.1513 42.9352 61.6009C43.4805 61.1722 43.9135 61.0365 44.8018 60.9009Z" fill="#E56262"/>
<path d="M31.5021 24.2673C33.6021 23.4273 40.8354 22.6339 42.7021 24.5006C43.6354 25.4339 43.6354 25.2006 44.8021 25.4339C45.9687 25.6672 46.2021 24.5006 48.0687 25.4339C49.588 26.1936 48.0687 28.9339 48.3021 30.5672C48.5354 32.2006 50.8687 33.1339 51.3354 34.3006C52.0354 36.6339 49.4687 38.9672 49.9354 40.6006C50.4281 42.3251 52.7354 41.7673 52.5021 43.1672C52.2687 44.5672 52.2687 45.9673 50.6354 46.4339C47.3687 47.3672 43.8687 42.9013 42.0021 42.4672C38.0838 41.556 32.7388 42.7006 31.9687 40.1339C31.2687 37.8006 32.3317 35.9339 31.9687 34.3006C31.5021 32.2006 30.2831 31.0339 29.8687 29.4006C29.2657 27.0233 29.1687 25.2006 31.5021 24.2673Z" fill="#FE6D6D"/>
<path d="M32.6698 43.1669C33.1364 42.9336 35.2364 42.9336 36.8698 42.9336C40.3698 42.9336 42.3609 44.2536 43.6364 44.8003C45.2698 45.5003 46.4364 47.8336 48.3031 48.0669C50.1698 48.3003 51.5698 48.3135 53.2031 48.5336C55.9812 48.908 57.3244 49.7982 59.7364 51.3336V55.7669C59.5032 60.4336 53.4365 59.5936 52.0364 59.7336C49.7032 59.9669 47.1365 60.9003 44.5698 60.9003C43.1698 60.6669 42.7032 59.7336 41.5364 59.0336C40.7163 59.0336 40.1365 59.2669 39.4364 59.0336C38.0365 58.1003 36.4031 55.3003 36.4031 54.3669C36.4031 53.6379 36.2089 53.0828 36.4031 52.5003C36.6365 51.8003 37.5698 51.3336 37.8031 49.9336C36.8008 49.6602 36.1506 49.6907 35.2364 49.2336C34.3032 48.7669 33.3698 47.6782 32.4364 46.4336C31.7365 45.5003 31.7365 43.6336 32.6698 43.1669Z" fill="#FE6D6D"/>
<mask id="mask9_2348_140739" style="mask-type:alpha" maskUnits="userSpaceOnUse" x="29" y="24" width="25" height="36">
<path fill-rule="evenodd" clip-rule="evenodd" d="M30.1005 24.9668L29.8672 25.2001C30.086 25.5284 30.2126 25.867 30.3285 26.1773C30.4598 26.5287 30.5776 26.8439 30.8005 27.0668C30.8966 27.1629 31.0116 27.249 31.1203 27.3305C31.3211 27.481 31.5005 27.6155 31.5005 27.7668C31.5005 27.9321 31.4712 28.0681 31.4438 28.1956C31.3938 28.4281 31.3498 28.6321 31.5005 28.9335C31.6125 29.1575 31.8628 29.274 32.1038 29.3861C32.3649 29.5077 32.6152 29.6241 32.6672 29.8668C32.7633 30.3151 32.8207 30.7941 32.8751 31.2471C32.9755 32.0832 33.0652 32.8308 33.3672 33.1335C33.8508 33.6181 34.2534 33.8738 34.9098 34.1149C34.8498 34.171 34.8011 34.2323 34.7672 34.3001C34.6505 34.6501 34.6505 35.2335 34.6505 35.8168C34.6505 36.4001 34.6505 36.9835 34.5339 37.3335C34.4797 37.496 34.2638 37.77 34.0533 38.0371C33.8237 38.3285 33.6005 38.6117 33.6005 38.7335C33.6005 38.9927 33.9606 39.252 34.3207 39.5112C34.6088 39.7186 34.8968 39.9261 35.0005 40.1335C35.2339 40.6001 35.4672 41.3001 35.4672 42.0001L35.7005 42.2335C35.6645 41.2641 35.5795 40.7489 35.2339 39.9001C35.1011 39.5743 34.742 39.3171 34.4569 39.1131C34.2407 38.9583 34.0672 38.8341 34.0672 38.7335C34.0672 38.4937 34.2338 38.2906 34.4177 38.0664C34.5415 37.9153 34.6733 37.7546 34.7672 37.5668C34.9442 37.2128 35.006 36.7765 35.0712 36.3163C35.144 35.8026 35.221 35.2591 35.4672 34.7668C35.6185 34.4641 35.9325 34.3148 36.2836 34.1477L36.2836 34.1477C36.4739 34.0572 36.6751 33.9615 36.8672 33.8335C37.0661 33.734 37.3073 33.4651 37.5548 33.1892C37.8881 32.8177 38.2327 32.4335 38.5005 32.4335C38.7339 32.4335 39.0255 32.6085 39.3172 32.7835C39.6089 32.9585 39.9005 33.1335 40.1339 33.1335C40.4009 33.1335 40.724 32.9249 41.0763 32.6975C41.2859 32.5622 41.5059 32.4202 41.7304 32.3115C42.1975 33.0799 42.5616 33.7835 42.4672 34.0668C42.3356 34.4615 41.7588 35.2273 41.2808 35.8619L41.2808 35.862L41.2808 35.862C40.9111 36.3527 40.6005 36.765 40.6005 36.8668C40.6005 37.0502 40.7446 37.3056 40.9055 37.5907C41.1539 38.031 41.4422 38.5419 41.3005 38.9668C41.1724 39.1589 41.0191 39.3601 40.8741 39.5503L40.8741 39.5504C40.6065 39.9015 40.3672 40.2155 40.3672 40.3668C40.3672 40.7168 40.4255 41.1251 40.4839 41.5335C40.5422 41.9418 40.6005 42.3501 40.6005 42.7001L41.0034 42.9335C40.8339 42.2335 40.5227 40.8335 40.6005 40.6001C40.7172 40.2501 41.0672 40.0168 41.4172 39.7835C41.7672 39.5501 42.1172 39.3168 42.2339 38.9668C42.3784 38.6777 41.8716 38.0501 41.465 37.5467L41.465 37.5467L41.4649 37.5466L41.4649 37.5466L41.4649 37.5466L41.4649 37.5466C41.2153 37.2375 41.0034 36.9752 41.0034 36.8668C41.025 36.788 41.199 36.576 41.438 36.2849C41.9065 35.7143 42.6248 34.8394 42.9339 34.0668C43.0852 33.6128 42.5616 32.7906 41.9761 31.8709C41.6588 31.3727 41.3234 30.8458 41.0672 30.3335C40.9505 30.1001 41.0089 29.9251 41.0672 29.7501C41.1255 29.5751 41.1839 29.4001 41.0672 29.1668C40.9649 28.9622 40.8177 28.8473 40.6847 28.7434C40.5143 28.6104 40.3672 28.4955 40.3672 28.2335C40.3672 27.7668 40.8339 26.8335 41.5339 26.6001C41.7203 26.538 41.9066 26.4924 42.0975 26.4457C42.6232 26.3172 43.1824 26.1804 43.8672 25.6668L43.4005 25.2001C42.9674 25.6333 42.4694 25.7601 42.0269 25.8729C41.7543 25.9423 41.5028 26.0064 41.3005 26.1335C40.3008 26.7613 40.0836 27.2588 39.9005 28.2335C39.9005 28.6188 39.9712 28.8627 40.0348 29.082C40.0867 29.2611 40.1339 29.4237 40.1339 29.6335C40.1339 29.8195 40.542 30.4509 41.0179 31.1871L41.018 31.1872C41.2369 31.5258 41.4702 31.8867 41.6847 32.2366C41.4911 32.3245 41.3077 32.4246 41.1331 32.5199C40.7653 32.7207 40.4365 32.9001 40.1339 32.9001C39.9241 32.9001 39.7143 32.7116 39.4834 32.5039C39.2005 32.2497 38.8859 31.9668 38.5005 31.9668C38.1894 31.9668 37.6709 32.3816 37.1524 32.7964L37.1524 32.7964L37.1523 32.7965C36.8931 33.0039 36.6338 33.2112 36.4005 33.3668C36.2294 33.4809 35.9956 33.574 35.7566 33.6692C35.6258 33.7213 35.4935 33.7741 35.369 33.8312C34.6963 33.8004 33.979 33.4565 33.6005 32.9001C33.4766 32.6523 33.4185 32.0095 33.3563 31.3213L33.3563 31.3213C33.3014 30.7139 33.2433 30.0711 33.1339 29.6335C33.0739 29.3937 32.7675 29.2771 32.4521 29.1571C32.1537 29.0436 31.8473 28.927 31.7339 28.7001C31.6105 28.4534 31.7346 28.245 31.8516 28.0486C31.9559 27.8736 32.0545 27.7081 31.9672 27.5335C31.847 27.2931 31.6434 27.1851 31.4157 27.0642C31.2924 26.9988 31.1619 26.9295 31.0339 26.8335C30.7812 26.5808 30.6653 26.2598 30.5382 25.9074C30.4304 25.6089 30.3145 25.2878 30.1005 24.9668ZM38.2763 48.9906L37.343 49.9239L37.567 50.1666C37.7343 50.1666 38.0059 49.7491 38.247 49.3785C38.3421 49.2324 38.4323 49.0936 38.5096 48.9906C38.7336 48.7666 39.2002 48.3 39.443 48.2906C39.6252 48.2906 39.9096 48.2906 40.143 48.0572C40.2943 47.9059 40.2493 47.7714 40.199 47.621C40.1718 47.5395 40.143 47.4533 40.143 47.3572C40.143 47.2059 40.3224 47.0714 40.5232 46.921C40.6319 46.8395 40.7469 46.7533 40.843 46.6572C40.9523 46.5479 40.908 46.2851 40.854 45.9646C40.7927 45.6008 40.7189 45.1627 40.843 44.7906C41.009 44.38 41.1302 44.1387 41.543 43.6239V43.1572C41.0763 43.8572 40.7598 44.4902 40.6096 44.7906C40.4893 45.0312 40.5551 45.458 40.6151 45.847C40.6715 46.2123 40.7226 46.5442 40.6096 46.6572C40.493 46.7739 40.2596 46.8906 40.0263 47.0072C39.793 47.1239 39.5596 47.2406 39.443 47.3572C39.1952 47.605 38.9845 47.9472 38.7867 48.2684C38.6119 48.5522 38.4473 48.8196 38.2763 48.9906ZM49.7011 27.3001C50.401 27.3001 50.9455 28.0001 51.1011 28.7001C51.2291 29.2765 51.4113 29.9089 51.5835 30.5069C51.9015 31.6106 52.1857 32.5975 52.0344 32.9001C51.8736 33.2217 51.4912 32.5461 51.1926 32.0186C51.0579 31.7806 50.9403 31.5727 50.8677 31.5001C50.7511 31.3835 50.5177 31.3835 50.2552 31.3835C49.9927 31.3835 49.7011 31.3835 49.4677 31.2668C48.301 30.6834 49.001 27.3001 49.7011 27.3001ZM52.7337 35.7002C52.5193 34.5336 50.5794 39.2707 50.867 40.1335C51.0184 40.5875 51.2725 40.5723 51.5567 40.5552C51.7108 40.5459 51.8736 40.5362 52.0337 40.6002C52.2542 40.7105 52.3927 41.0182 52.5161 41.2926C52.6539 41.5989 52.7731 41.8639 52.967 41.7669C53.4337 41.5335 53.1686 38.0667 52.7337 35.7002ZM48.3005 47.3668L48.5339 47.6001C47.3672 48.5335 47.0038 49.0269 46.6672 49.7001C46.5391 49.9563 46.3858 50.1765 46.2408 50.3848C45.9731 50.7691 45.7339 51.1128 45.7339 51.5668C45.7339 51.8622 45.8276 52.1886 45.9139 52.4893C45.9973 52.7796 46.0737 53.0459 46.0522 53.237C46.3977 53.2657 46.657 53.2477 46.9397 53.2282C47.1364 53.2145 47.3443 53.2001 47.6005 53.2001C47.8909 53.2001 47.9249 53.4858 47.9563 53.7487C47.9753 53.9083 47.9933 54.0596 48.0672 54.1335C48.2185 54.2848 48.353 54.2398 48.5034 54.1895C48.5849 54.1623 48.6711 54.1335 48.7672 54.1335C48.8748 54.1335 49.032 54.3815 49.2159 54.6717C49.4309 55.0109 49.6824 55.4077 49.9339 55.5335C50.4005 55.7668 51.1005 56.0001 51.3339 56.0001C51.4305 56.0001 51.5272 55.9601 51.6404 55.9132C51.8005 55.8469 51.9938 55.7668 52.2672 55.7668C52.6235 55.7668 52.9334 56.1285 53.1994 56.4388C53.2817 56.535 53.3599 56.6261 53.4339 56.7001C53.6672 56.9335 53.7839 57.6335 53.6672 57.8668C53.5505 58.1001 53.4339 58.2168 53.3464 58.3043C53.2589 58.3918 53.2005 58.4501 53.2005 58.5668C53.2005 58.6634 53.2406 58.7601 53.2875 58.8733C53.3538 59.0335 53.4339 59.2268 53.4339 59.5001C53.3018 59.1041 53.1698 58.9321 53.0801 58.8152C53.0112 58.7254 52.9672 58.6681 52.9672 58.5668C52.9672 58.4501 53.0839 58.3335 53.2005 58.2168C53.3172 58.1001 53.4339 57.9835 53.4339 57.8668C53.4339 57.4001 53.4339 56.9335 53.2005 56.7001C52.9672 56.4668 52.5005 56.0001 52.0339 56.0001C51.9264 56.0001 51.8375 56.0496 51.7416 56.1029C51.6291 56.1655 51.5069 56.2335 51.3339 56.2335C50.9801 56.2335 50.5141 55.9762 50.0895 55.7418C49.954 55.667 49.8226 55.5945 49.7005 55.5335C49.3979 55.3821 49.2485 55.128 49.0815 54.8438C48.991 54.6897 48.8953 54.5269 48.7672 54.3668C48.6505 54.2501 48.4755 54.3085 48.3005 54.3668C48.1255 54.4251 47.9505 54.4835 47.8339 54.3668C47.7172 54.2501 47.7172 54.0751 47.7172 53.9001C47.7172 53.7251 47.7172 53.5501 47.6005 53.4335C47.2505 53.3168 46.8422 53.3168 46.4922 53.3168C46.3234 53.3168 46.1683 53.3168 46.0397 53.3037C46.0258 53.3545 46.0025 53.3982 45.9672 53.4335C45.805 53.5957 45.4484 53.7003 45.1461 53.789C45.0135 53.828 44.8913 53.8638 44.8005 53.9001C44.6404 53.9642 44.4776 54.012 44.3236 54.0573C44.0393 54.1408 43.7852 54.2155 43.6339 54.3668C43.3528 54.6479 43.3256 55.0983 43.2975 55.565C43.279 55.8732 43.26 56.1884 43.1672 56.4668C43.0412 56.7188 42.8285 56.804 42.6329 56.8823C42.4662 56.9491 42.3118 57.011 42.2339 57.1668C42.1028 57.4289 42.0454 57.8381 41.9789 58.3118C41.9269 58.6817 41.8695 59.0909 41.7672 59.5001L41.5339 59.2668C41.6433 58.9386 41.7014 58.5591 41.7563 58.2004C41.8185 57.7942 41.8766 57.4147 42.0005 57.1668C42.1281 56.9116 42.3474 56.7521 42.5462 56.6077C42.7108 56.488 42.8613 56.3786 42.9339 56.2335C43.04 56.0212 43.026 55.6395 43.0119 55.2537C42.995 54.7911 42.9779 54.3227 43.1672 54.1335C43.3246 53.9761 43.782 53.8846 44.2187 53.7973C44.4295 53.7552 44.6354 53.714 44.8005 53.6668C45.0939 53.583 45.5589 53.4335 45.7339 53.2001C45.826 53.0772 45.7564 52.8248 45.6698 52.5111C45.592 52.2293 45.5005 51.8981 45.5005 51.5668C45.5005 51.1001 45.8314 50.0205 46.2005 49.4668C46.4208 49.1364 46.693 48.91 47.0172 48.6404L47.0172 48.6403C47.3799 48.3386 47.8077 47.9828 48.3005 47.3668Z" fill="white"/>
</mask>
<g mask="url(#mask9_2348_140739)">
<path fill-rule="evenodd" clip-rule="evenodd" d="M30.1005 24.9668L29.8672 25.2001C30.086 25.5284 30.2126 25.867 30.3285 26.1773C30.4598 26.5287 30.5776 26.8439 30.8005 27.0668C30.8966 27.1629 31.0116 27.249 31.1203 27.3305C31.3211 27.481 31.5005 27.6155 31.5005 27.7668C31.5005 27.9321 31.4712 28.0681 31.4438 28.1956C31.3938 28.4281 31.3498 28.6321 31.5005 28.9335C31.6125 29.1575 31.8628 29.274 32.1038 29.3861C32.3649 29.5077 32.6152 29.6241 32.6672 29.8668C32.7633 30.3151 32.8207 30.7941 32.8751 31.2471C32.9755 32.0832 33.0652 32.8308 33.3672 33.1335C33.8508 33.6181 34.2534 33.8738 34.9098 34.1149C34.8498 34.171 34.8011 34.2323 34.7672 34.3001C34.6505 34.6501 34.6505 35.2335 34.6505 35.8168C34.6505 36.4001 34.6505 36.9835 34.5339 37.3335C34.4797 37.496 34.2638 37.77 34.0533 38.0371C33.8237 38.3285 33.6005 38.6117 33.6005 38.7335C33.6005 38.9927 33.9606 39.252 34.3207 39.5112C34.6088 39.7186 34.8968 39.9261 35.0005 40.1335C35.2339 40.6001 35.4672 41.3001 35.4672 42.0001L35.7005 42.2335C35.6645 41.2641 35.5795 40.7489 35.2339 39.9001C35.1011 39.5743 34.742 39.3171 34.4569 39.1131C34.2407 38.9583 34.0672 38.8341 34.0672 38.7335C34.0672 38.4937 34.2338 38.2906 34.4177 38.0664C34.5415 37.9153 34.6733 37.7546 34.7672 37.5668C34.9442 37.2128 35.006 36.7765 35.0712 36.3163C35.144 35.8026 35.221 35.2591 35.4672 34.7668C35.6185 34.4641 35.9325 34.3148 36.2836 34.1477L36.2836 34.1477C36.4739 34.0572 36.6751 33.9615 36.8672 33.8335C37.0661 33.734 37.3073 33.4651 37.5548 33.1892C37.8881 32.8177 38.2327 32.4335 38.5005 32.4335C38.7339 32.4335 39.0255 32.6085 39.3172 32.7835C39.6089 32.9585 39.9005 33.1335 40.1339 33.1335C40.4009 33.1335 40.724 32.9249 41.0763 32.6975C41.2859 32.5622 41.5059 32.4202 41.7304 32.3115C42.1975 33.0799 42.5616 33.7835 42.4672 34.0668C42.3356 34.4615 41.7588 35.2273 41.2808 35.8619L41.2808 35.862L41.2808 35.862C40.9111 36.3527 40.6005 36.765 40.6005 36.8668C40.6005 37.0502 40.7446 37.3056 40.9055 37.5907C41.1539 38.031 41.4422 38.5419 41.3005 38.9668C41.1724 39.1589 41.0191 39.3601 40.8741 39.5503L40.8741 39.5504C40.6065 39.9015 40.3672 40.2155 40.3672 40.3668C40.3672 40.7168 40.4255 41.1251 40.4839 41.5335C40.5422 41.9418 40.6005 42.3501 40.6005 42.7001L41.0034 42.9335C40.8339 42.2335 40.5227 40.8335 40.6005 40.6001C40.7172 40.2501 41.0672 40.0168 41.4172 39.7835C41.7672 39.5501 42.1172 39.3168 42.2339 38.9668C42.3784 38.6777 41.8716 38.0501 41.465 37.5467L41.465 37.5467L41.4649 37.5466L41.4649 37.5466L41.4649 37.5466L41.4649 37.5466C41.2153 37.2375 41.0034 36.9752 41.0034 36.8668C41.025 36.788 41.199 36.576 41.438 36.2849C41.9065 35.7143 42.6248 34.8394 42.9339 34.0668C43.0852 33.6128 42.5616 32.7906 41.9761 31.8709C41.6588 31.3727 41.3234 30.8458 41.0672 30.3335C40.9505 30.1001 41.0089 29.9251 41.0672 29.7501C41.1255 29.5751 41.1839 29.4001 41.0672 29.1668C40.9649 28.9622 40.8177 28.8473 40.6847 28.7434C40.5143 28.6104 40.3672 28.4955 40.3672 28.2335C40.3672 27.7668 40.8339 26.8335 41.5339 26.6001C41.7203 26.538 41.9066 26.4924 42.0975 26.4457C42.6232 26.3172 43.1824 26.1804 43.8672 25.6668L43.4005 25.2001C42.9674 25.6333 42.4694 25.7601 42.0269 25.8729C41.7543 25.9423 41.5028 26.0064 41.3005 26.1335C40.3008 26.7613 40.0836 27.2588 39.9005 28.2335C39.9005 28.6188 39.9712 28.8627 40.0348 29.082C40.0867 29.2611 40.1339 29.4237 40.1339 29.6335C40.1339 29.8195 40.542 30.4509 41.0179 31.1871L41.018 31.1872C41.2369 31.5258 41.4702 31.8867 41.6847 32.2366C41.4911 32.3245 41.3077 32.4246 41.1331 32.5199C40.7653 32.7207 40.4365 32.9001 40.1339 32.9001C39.9241 32.9001 39.7143 32.7116 39.4834 32.5039C39.2005 32.2497 38.8859 31.9668 38.5005 31.9668C38.1894 31.9668 37.6709 32.3816 37.1524 32.7964L37.1524 32.7964L37.1523 32.7965C36.8931 33.0039 36.6338 33.2112 36.4005 33.3668C36.2294 33.4809 35.9956 33.574 35.7566 33.6692C35.6258 33.7213 35.4935 33.7741 35.369 33.8312C34.6963 33.8004 33.979 33.4565 33.6005 32.9001C33.4766 32.6523 33.4185 32.0095 33.3563 31.3213L33.3563 31.3213C33.3014 30.7139 33.2433 30.0711 33.1339 29.6335C33.0739 29.3937 32.7675 29.2771 32.4521 29.1571C32.1537 29.0436 31.8473 28.927 31.7339 28.7001C31.6105 28.4534 31.7346 28.245 31.8516 28.0486C31.9559 27.8736 32.0545 27.7081 31.9672 27.5335C31.847 27.2931 31.6434 27.1851 31.4157 27.0642C31.2924 26.9988 31.1619 26.9295 31.0339 26.8335C30.7812 26.5808 30.6653 26.2598 30.5382 25.9074C30.4304 25.6089 30.3145 25.2878 30.1005 24.9668ZM38.2763 48.9906L37.343 49.9239L37.567 50.1666C37.7343 50.1666 38.0059 49.7491 38.247 49.3785C38.3421 49.2324 38.4323 49.0936 38.5096 48.9906C38.7336 48.7666 39.2002 48.3 39.443 48.2906C39.6252 48.2906 39.9096 48.2906 40.143 48.0572C40.2943 47.9059 40.2493 47.7714 40.199 47.621C40.1718 47.5395 40.143 47.4533 40.143 47.3572C40.143 47.2059 40.3224 47.0714 40.5232 46.921C40.6319 46.8395 40.7469 46.7533 40.843 46.6572C40.9523 46.5479 40.908 46.2851 40.854 45.9646C40.7927 45.6008 40.7189 45.1627 40.843 44.7906C41.009 44.38 41.1302 44.1387 41.543 43.6239V43.1572C41.0763 43.8572 40.7598 44.4902 40.6096 44.7906C40.4893 45.0312 40.5551 45.458 40.6151 45.847C40.6715 46.2123 40.7226 46.5442 40.6096 46.6572C40.493 46.7739 40.2596 46.8906 40.0263 47.0072C39.793 47.1239 39.5596 47.2406 39.443 47.3572C39.1952 47.605 38.9845 47.9472 38.7867 48.2684C38.6119 48.5522 38.4473 48.8196 38.2763 48.9906ZM49.7011 27.3001C50.401 27.3001 50.9455 28.0001 51.1011 28.7001C51.2291 29.2765 51.4113 29.9089 51.5835 30.5069C51.9015 31.6106 52.1857 32.5975 52.0344 32.9001C51.8736 33.2217 51.4912 32.5461 51.1926 32.0186C51.0579 31.7806 50.9403 31.5727 50.8677 31.5001C50.7511 31.3835 50.5177 31.3835 50.2552 31.3835C49.9927 31.3835 49.7011 31.3835 49.4677 31.2668C48.301 30.6834 49.001 27.3001 49.7011 27.3001ZM52.7337 35.7002C52.5193 34.5336 50.5794 39.2707 50.867 40.1335C51.0184 40.5875 51.2725 40.5723 51.5567 40.5552C51.7108 40.5459 51.8736 40.5362 52.0337 40.6002C52.2542 40.7105 52.3927 41.0182 52.5161 41.2926C52.6539 41.5989 52.7731 41.8639 52.967 41.7669C53.4337 41.5335 53.1686 38.0667 52.7337 35.7002ZM48.3005 47.3668L48.5339 47.6001C47.3672 48.5335 47.0038 49.0269 46.6672 49.7001C46.5391 49.9563 46.3858 50.1765 46.2408 50.3848C45.9731 50.7691 45.7339 51.1128 45.7339 51.5668C45.7339 51.8622 45.8276 52.1886 45.9139 52.4893C45.9973 52.7796 46.0737 53.0459 46.0522 53.237C46.3977 53.2657 46.657 53.2477 46.9397 53.2282C47.1364 53.2145 47.3443 53.2001 47.6005 53.2001C47.8909 53.2001 47.9249 53.4858 47.9563 53.7487C47.9753 53.9083 47.9933 54.0596 48.0672 54.1335C48.2185 54.2848 48.353 54.2398 48.5034 54.1895C48.5849 54.1623 48.6711 54.1335 48.7672 54.1335C48.8748 54.1335 49.032 54.3815 49.2159 54.6717C49.4309 55.0109 49.6824 55.4077 49.9339 55.5335C50.4005 55.7668 51.1005 56.0001 51.3339 56.0001C51.4305 56.0001 51.5272 55.9601 51.6404 55.9132C51.8005 55.8469 51.9938 55.7668 52.2672 55.7668C52.6235 55.7668 52.9334 56.1285 53.1994 56.4388C53.2817 56.535 53.3599 56.6261 53.4339 56.7001C53.6672 56.9335 53.7839 57.6335 53.6672 57.8668C53.5505 58.1001 53.4339 58.2168 53.3464 58.3043C53.2589 58.3918 53.2005 58.4501 53.2005 58.5668C53.2005 58.6634 53.2406 58.7601 53.2875 58.8733C53.3538 59.0335 53.4339 59.2268 53.4339 59.5001C53.3018 59.1041 53.1698 58.9321 53.0801 58.8152C53.0112 58.7254 52.9672 58.6681 52.9672 58.5668C52.9672 58.4501 53.0839 58.3335 53.2005 58.2168C53.3172 58.1001 53.4339 57.9835 53.4339 57.8668C53.4339 57.4001 53.4339 56.9335 53.2005 56.7001C52.9672 56.4668 52.5005 56.0001 52.0339 56.0001C51.9264 56.0001 51.8375 56.0496 51.7416 56.1029C51.6291 56.1655 51.5069 56.2335 51.3339 56.2335C50.9801 56.2335 50.5141 55.9762 50.0895 55.7418C49.954 55.667 49.8226 55.5945 49.7005 55.5335C49.3979 55.3821 49.2485 55.128 49.0815 54.8438C48.991 54.6897 48.8953 54.5269 48.7672 54.3668C48.6505 54.2501 48.4755 54.3085 48.3005 54.3668C48.1255 54.4251 47.9505 54.4835 47.8339 54.3668C47.7172 54.2501 47.7172 54.0751 47.7172 53.9001C47.7172 53.7251 47.7172 53.5501 47.6005 53.4335C47.2505 53.3168 46.8422 53.3168 46.4922 53.3168C46.3234 53.3168 46.1683 53.3168 46.0397 53.3037C46.0258 53.3545 46.0025 53.3982 45.9672 53.4335C45.805 53.5957 45.4484 53.7003 45.1461 53.789C45.0135 53.828 44.8913 53.8638 44.8005 53.9001C44.6404 53.9642 44.4776 54.012 44.3236 54.0573C44.0393 54.1408 43.7852 54.2155 43.6339 54.3668C43.3528 54.6479 43.3256 55.0983 43.2975 55.565C43.279 55.8732 43.26 56.1884 43.1672 56.4668C43.0412 56.7188 42.8285 56.804 42.6329 56.8823C42.4662 56.9491 42.3118 57.011 42.2339 57.1668C42.1028 57.4289 42.0454 57.8381 41.9789 58.3118C41.9269 58.6817 41.8695 59.0909 41.7672 59.5001L41.5339 59.2668C41.6433 58.9386 41.7014 58.5591 41.7563 58.2004C41.8185 57.7942 41.8766 57.4147 42.0005 57.1668C42.1281 56.9116 42.3474 56.7521 42.5462 56.6077C42.7108 56.488 42.8613 56.3786 42.9339 56.2335C43.04 56.0212 43.026 55.6395 43.0119 55.2537C42.995 54.7911 42.9779 54.3227 43.1672 54.1335C43.3246 53.9761 43.782 53.8846 44.2187 53.7973C44.4295 53.7552 44.6354 53.714 44.8005 53.6668C45.0939 53.583 45.5589 53.4335 45.7339 53.2001C45.826 53.0772 45.7564 52.8248 45.6698 52.5111C45.592 52.2293 45.5005 51.8981 45.5005 51.5668C45.5005 51.1001 45.8314 50.0205 46.2005 49.4668C46.4208 49.1364 46.693 48.91 47.0172 48.6404L47.0172 48.6403C47.3799 48.3386 47.8077 47.9828 48.3005 47.3668Z" fill="white"/>
</g>
<path d="M29.168 28.4676C29.168 23.5676 50.168 21.7009 52.7346 31.0342L59.268 50.6342L59.7346 56.0009C59.0346 61.1342 53.2013 59.4426 51.1013 59.9676C47.368 60.9009 44.1013 61.3676 42.9346 61.3676C39.3426 60.619 37.1013 56.7009 36.168 54.8342C35.0013 52.9676 33.6013 51.3342 32.9013 48.5342C32.3187 46.2037 31.4235 39.2009 30.8013 36.8676C29.868 33.3676 29.168 32.9009 29.168 28.4676Z" fill="black" fill-opacity="0.1"/>
</g>
</svg>
