<svg width="95" height="26" viewBox="0 0 95 26" fill="none" xmlns="http://www.w3.org/2000/svg">
<g clip-path="url(#clip0_448_141306)">
<path d="M17.1974 24.2562C15.9711 25.763 13.0422 25.1245 11.548 24.3458C9.54778 23.3039 8.58935 21.2593 7.99405 19.3492C7.85117 18.8955 7.6964 17.848 7.16063 17.6407C6.29744 17.3046 6.36292 18.4921 6.38673 18.9627C6.44626 20.0046 6.37483 20.9457 6.15457 21.9764C5.87478 23.2983 5.4164 24.9172 3.81504 25.2365C2.70183 25.4606 1.7553 25.0348 1.17786 24.1274C0.0467872 22.3629 0.213471 19.9542 0.189659 17.9656C0.153941 14.5766 0.255142 10.1345 0.46945 6.75117C0.52898 5.77088 0.671852 4.4321 1.52908 3.7431C2.43394 3.01489 4.02339 3.0597 4.96397 3.67028C5.94026 4.30326 5.86287 5.51881 5.89859 6.5103C5.95217 7.88269 5.85692 9.27189 6.07718 10.6387C6.20219 11.4061 6.88083 12.7953 7.62496 11.5798C9.23822 8.93579 8.78579 3.11012 13.5244 3.42381C16.1735 3.59746 15.4293 6.48229 14.59 7.96111C13.6256 9.664 12.9886 11.6358 11.9409 13.2714C10.9408 14.8343 11.4051 15.9154 12.5362 17.3606C13.8935 19.0915 15.2031 19.7973 16.7033 20.9625C17.7153 21.7467 18.0189 23.2591 17.2033 24.2618L17.1974 24.2562Z" fill="#1B4D3E"/>
<path d="M34.3942 13.7533C34.1501 17.3495 31.1379 21.4163 28.2864 24.0939C26.9649 25.3374 27.0839 25.7519 26.7982 25.4382C26.1553 24.7324 25.4052 24.1107 24.5539 23.6345C13.7313 17.5568 15.6363 2.6845 26.2267 2.79653C32.4833 2.86375 34.7871 7.96122 34.3942 13.7533ZM28.7091 14.8232C28.8758 10.8629 28.3757 8.34773 25.56 8.34773C22.9168 8.34773 22.7263 13.0027 23.5181 15.3049C23.8634 16.3244 24.5301 18.0553 25.7207 18.4754C27.8281 19.2149 28.6555 16.2236 28.715 14.8232H28.7091Z" fill="#1B4D3E"/>
<path d="M58.7596 13.6633C58.3251 16.7722 57.8846 17.8085 56.1344 20.9118C54.6699 23.511 52.2292 24.5192 48.6098 25.0234C46.5143 25.3147 43.4188 25.197 41.5674 24.2896C37.049 22.0825 36.4299 16.4697 36.4299 12.9687C36.4299 10.8961 36.4299 13.316 36.4299 10.2015C36.4299 7.78723 39.6981 7.20466 41.2459 8.47623C42.5377 9.53493 43.4842 15.0077 45.1928 17.1811C46.0917 18.3239 47.8895 18.4023 48.9015 17.3492C50.8362 15.327 52.3125 10.3024 53.9496 8.82913C56.6523 6.39803 59.224 10.4144 58.7656 13.6633H58.7596Z" fill="#4EA04C"/>
<path d="M38.7333 6.75685C38.0368 6.75685 37.5665 6.2303 37.8106 5.74296C39.3345 2.70129 43.2397 0.539062 47.8176 0.539062C52.3954 0.539062 56.3006 2.70129 57.8246 5.74296C58.0686 6.2303 57.5924 6.75685 56.9019 6.75685C56.5209 6.75685 56.2947 6.53279 56.0089 6.33673C52.199 3.64796 51.3775 2.71809 47.8176 2.71809C44.2577 2.71809 42.1265 4.26974 39.6262 6.33673C39.3643 6.54959 39.1143 6.75685 38.7333 6.75685Z" fill="#4EA04C"/>
<path d="M75.9416 22.4473C75.4773 24.66 70.3875 25.0745 68.2622 25.2986C59.5113 26.2172 61.7377 17.1594 62.1187 11.2721C62.3688 9.70366 62.3688 7.81032 63.0117 6.3427C64.4702 3.00974 71.0185 2.97053 74.0664 3.79957C75.4832 4.18608 75.9178 6.37631 75.0784 7.59746C73.6795 9.65325 70.0124 7.86073 68.2741 8.71778C67.8158 8.94185 67.6372 9.59163 67.5836 10.247C67.5062 11.1881 67.7205 12.4821 68.7206 12.4036C69.7981 12.3196 70.4589 12.3476 70.4589 12.3476C70.7625 12.3028 71.0661 12.3028 71.3518 12.3532C73.483 12.7173 73.5187 15.6582 71.3935 16.0671C71.1435 16.1119 70.8696 16.1399 70.5601 16.1399L68.8099 15.8094C67.5062 15.6638 66.5478 17.3611 67.1133 18.4758C67.5657 19.3496 68.5837 19.8314 69.5957 19.6353C71.0244 19.3552 73.5664 18.7391 74.6974 19.3889C75.6082 19.9154 76.1619 21.4278 75.9476 22.4473H75.9416Z" fill="#1B4D3E"/>
<path d="M94.6448 23.1976C94.1507 24.6596 93.2101 25.4215 91.6445 25.2198C90.2634 25.0461 89.3169 24.2675 88.6442 23.0968C87.9179 21.8364 87.531 20.4192 86.763 19.1701C86.2868 18.3914 84.1675 15.9883 83.7627 18.257C83.4115 20.2232 85.0248 22.9343 83.3698 24.5364C82.5721 25.3094 81.4768 25.4327 80.4707 25.1526C76.4286 24.0267 76.9346 18.5931 77.1668 15.5458C77.4347 11.9496 76.7203 7.177 79.8576 4.46582C82.5126 2.17476 87.025 2.47725 89.9896 4.0457C92.6744 5.46851 94.5198 9.39524 92.5613 12.0112C91.4778 13.462 89.7574 13.8765 91.3826 15.7811C92.5136 17.1031 94.1448 19.0468 94.6567 20.9794C94.8591 21.73 94.8829 22.4862 94.6448 23.1976ZM84.2152 8.52699C83.1734 9.29441 82.7507 13.2772 84.7152 13.2099C85.7986 13.1707 86.6142 11.3782 86.7154 10.566C86.8761 9.20478 85.9118 7.27783 84.2152 8.53259V8.52699Z" fill="#1B4D3E"/>
</g>
<defs>
<clipPath id="clip0_448_141306">
<rect width="94.6349" height="25" fill="white" transform="translate(0.182617 0.539062)"/>
</clipPath>
</defs>
</svg>
